<svg xmlns="http://www.w3.org/2000/svg" xmlns:xlink="http://www.w3.org/1999/xlink" width="1920" zoomAndPan="magnify" viewBox="0 0 1440 809.999993" height="1080" preserveAspectRatio="xMidYMid meet" version="1.0"><defs><clipPath id="0584c989ac"><path d="M 237 5.996094 L 1206 5.996094 L 1206 419 L 237 419 Z M 237 5.996094 " clip-rule="nonzero"/></clipPath><clipPath id="61dab5db62"><path d="M 161 68 L 1279 68 L 1279 803.996094 L 161 803.996094 Z M 161 68 " clip-rule="nonzero"/></clipPath></defs><rect x="-144" width="1728" fill="#ffffff" y="-80.999999" height="971.999992" fill-opacity="1"/><rect x="-144" width="1728" fill="#ffffff" y="-80.999999" height="971.999992" fill-opacity="1"/><g clip-path="url(#0584c989ac)"><path fill="#000173" d="M 1205.183594 15.171875 C 1197.847656 12.121094 1190.289062 9.824219 1182.496094 8.28125 C 1174.707031 6.734375 1166.839844 5.972656 1158.898438 5.996094 L 281.097656 5.996094 C 273.566406 6.003906 266.109375 6.75 258.722656 8.226562 C 251.335938 9.703125 244.164062 11.886719 237.207031 14.773438 L 720 418.5625 Z M 1205.183594 15.171875 " fill-opacity="1" fill-rule="nonzero"/></g><g clip-path="url(#61dab5db62)"><path fill="#000173" d="M 1264.234375 69.835938 L 745.535156 501.152344 C 743.753906 502.628906 741.859375 503.941406 739.847656 505.085938 C 737.839844 506.234375 735.746094 507.199219 733.570312 507.980469 C 731.394531 508.761719 729.164062 509.351562 726.886719 509.746094 C 724.609375 510.140625 722.3125 510.335938 720 510.332031 C 717.683594 510.335938 715.390625 510.140625 713.109375 509.746094 C 710.832031 509.351562 708.601562 508.761719 706.425781 507.980469 C 704.25 507.199219 702.15625 506.234375 700.148438 505.085938 C 698.136719 503.941406 696.242188 502.628906 694.460938 501.152344 L 176.558594 68.238281 C 171.707031 77.042969 167.996094 86.308594 165.429688 96.03125 C 162.863281 105.753906 161.519531 115.640625 161.398438 125.695312 L 161.398438 684.292969 C 161.398438 686.253906 161.445312 688.210938 161.542969 690.167969 C 161.640625 692.125 161.78125 694.078125 161.976562 696.027344 C 162.167969 697.976562 162.40625 699.921875 162.695312 701.859375 C 162.980469 703.796875 163.316406 705.726562 163.699219 707.648438 C 164.082031 709.566406 164.511719 711.480469 164.984375 713.378906 C 165.460938 715.28125 165.984375 717.167969 166.554688 719.042969 C 167.121094 720.917969 167.734375 722.777344 168.394531 724.621094 C 169.054688 726.464844 169.761719 728.292969 170.511719 730.101562 C 171.261719 731.910156 172.054688 733.703125 172.890625 735.472656 C 173.730469 737.242188 174.609375 738.992188 175.53125 740.71875 C 176.457031 742.449219 177.421875 744.152344 178.429688 745.832031 C 179.433594 747.511719 180.484375 749.167969 181.570312 750.796875 C 182.660156 752.425781 183.789062 754.027344 184.953125 755.597656 C 186.121094 757.171875 187.328125 758.71875 188.570312 760.230469 C 189.8125 761.746094 191.089844 763.226562 192.40625 764.679688 C 193.722656 766.132812 195.074219 767.550781 196.457031 768.933594 C 197.84375 770.320312 199.261719 771.671875 200.714844 772.984375 C 202.164062 774.300781 203.648438 775.582031 205.160156 776.824219 C 206.675781 778.066406 208.21875 779.269531 209.792969 780.4375 C 211.367188 781.605469 212.96875 782.734375 214.597656 783.820312 C 216.226562 784.910156 217.878906 785.957031 219.558594 786.964844 C 221.242188 787.972656 222.945312 788.9375 224.671875 789.859375 C 226.398438 790.785156 228.148438 791.664062 229.921875 792.5 C 231.691406 793.339844 233.480469 794.132812 235.292969 794.882812 C 237.101562 795.632812 238.929688 796.335938 240.773438 796.996094 C 242.617188 797.65625 244.476562 798.273438 246.351562 798.839844 C 248.226562 799.410156 250.113281 799.929688 252.015625 800.40625 C 253.914062 800.882812 255.824219 801.3125 257.746094 801.695312 C 259.667969 802.078125 261.597656 802.410156 263.535156 802.699219 C 265.472656 802.988281 267.417969 803.226562 269.367188 803.417969 C 271.316406 803.609375 273.269531 803.753906 275.226562 803.851562 C 277.183594 803.945312 279.140625 803.996094 281.097656 803.996094 L 1158.898438 803.996094 C 1160.859375 803.996094 1162.816406 803.945312 1164.773438 803.851562 C 1166.730469 803.753906 1168.679688 803.609375 1170.632812 803.417969 C 1172.582031 803.226562 1174.523438 802.988281 1176.460938 802.699219 C 1178.398438 802.410156 1180.328125 802.078125 1182.25 801.695312 C 1184.171875 801.3125 1186.082031 800.882812 1187.984375 800.40625 C 1189.882812 799.929688 1191.769531 799.410156 1193.644531 798.839844 C 1195.519531 798.273438 1197.378906 797.65625 1199.222656 796.996094 C 1201.070312 796.335938 1202.894531 795.632812 1204.707031 794.882812 C 1206.515625 794.132812 1208.304688 793.339844 1210.078125 792.5 C 1211.847656 791.664062 1213.597656 790.785156 1215.324219 789.859375 C 1217.050781 788.9375 1218.757812 787.972656 1220.4375 786.964844 C 1222.117188 785.957031 1223.769531 784.910156 1225.398438 783.820312 C 1227.027344 782.734375 1228.628906 781.605469 1230.203125 780.4375 C 1231.777344 779.269531 1233.320312 778.066406 1234.835938 776.824219 C 1236.351562 775.582031 1237.832031 774.300781 1239.285156 772.984375 C 1240.734375 771.671875 1242.152344 770.320312 1243.539062 768.933594 C 1244.925781 767.550781 1246.273438 766.132812 1247.589844 764.679688 C 1248.90625 763.226562 1250.183594 761.746094 1251.429688 760.230469 C 1252.671875 758.71875 1253.875 757.171875 1255.042969 755.601562 C 1256.210938 754.027344 1257.335938 752.425781 1258.425781 750.796875 C 1259.515625 749.167969 1260.5625 747.511719 1261.570312 745.832031 C 1262.574219 744.152344 1263.539062 742.449219 1264.464844 740.71875 C 1265.386719 738.992188 1266.269531 737.242188 1267.105469 735.472656 C 1267.945312 733.703125 1268.738281 731.910156 1269.488281 730.101562 C 1270.238281 728.292969 1270.941406 726.464844 1271.601562 724.621094 C 1272.261719 722.777344 1272.875 720.917969 1273.445312 719.042969 C 1274.011719 717.167969 1274.535156 715.28125 1275.011719 713.378906 C 1275.488281 711.480469 1275.917969 709.566406 1276.296875 707.648438 C 1276.679688 705.726562 1277.015625 703.796875 1277.300781 701.859375 C 1277.589844 699.921875 1277.828125 697.976562 1278.023438 696.027344 C 1278.214844 694.078125 1278.359375 692.125 1278.453125 690.167969 C 1278.550781 688.210938 1278.597656 686.253906 1278.597656 684.292969 L 1278.597656 125.695312 C 1278.515625 115.9375 1277.261719 106.335938 1274.832031 96.886719 C 1272.402344 87.4375 1268.871094 78.421875 1264.234375 69.835938 Z M 1264.234375 69.835938 " fill-opacity="1" fill-rule="nonzero"/></g></svg>