<svg xmlns="http://www.w3.org/2000/svg" xmlns:xlink="http://www.w3.org/1999/xlink" width="1920" zoomAndPan="magnify" viewBox="0 0 1440 809.999993" height="1080" preserveAspectRatio="xMidYMid meet" version="1.0"><defs><clipPath id="9f0fd0fde9"><path d="M 528 8 L 912 8 L 912 804.789062 L 528 804.789062 Z M 528 8 " clip-rule="nonzero"/></clipPath><clipPath id="8d209b69ed"><path d="M 801 250 L 1230 250 L 1230 804.789062 L 801 804.789062 Z M 801 250 " clip-rule="nonzero"/></clipPath><clipPath id="1c39502552"><path d="M 210 250 L 634 250 L 634 804.789062 L 210 804.789062 Z M 210 250 " clip-rule="nonzero"/></clipPath></defs><rect x="-144" width="1728" fill="#ffffff" y="-80.999999" height="971.999992" fill-opacity="1"/><rect x="-144" width="1728" fill="#ffffff" y="-80.999999" height="971.999992" fill-opacity="1"/><g clip-path="url(#9f0fd0fde9)"><path fill="#000173" d="M 726.375 217.289062 L 726.375 115.152344 C 745.394531 111.167969 764.875 114.222656 785.363281 117.449219 C 799.382812 119.65625 813.671875 121.90625 828.21875 121.90625 C 839.574219 122.027344 850.683594 120.417969 861.539062 117.085938 L 869.007812 114.734375 L 869.007812 9.171875 L 855.128906 13.539062 C 833.746094 20.277344 811.859375 16.828125 788.679688 13.175781 C 764.09375 9.304688 738.667969 5.300781 712.507812 13.539062 L 705.039062 15.890625 L 705.039062 218.140625 L 528.445312 396.8125 L 528.445312 804.613281 L 633.015625 804.613281 L 633.015625 646.507812 C 633.015625 599.011719 670.414062 559.042969 717.898438 557.921875 C 719.34375 557.890625 720.789062 557.890625 722.234375 557.929688 C 723.675781 557.96875 725.121094 558.042969 726.558594 558.15625 C 728 558.265625 729.4375 558.410156 730.871094 558.59375 C 732.304688 558.777344 733.730469 558.992188 735.15625 559.246094 C 736.578125 559.5 737.992188 559.789062 739.402344 560.113281 C 740.808594 560.4375 742.207031 560.792969 743.597656 561.1875 C 744.988281 561.582031 746.367188 562.007812 747.738281 562.46875 C 749.105469 562.933594 750.460938 563.429688 751.808594 563.957031 C 753.152344 564.488281 754.480469 565.050781 755.796875 565.644531 C 757.113281 566.242188 758.414062 566.867188 759.699219 567.527344 C 760.984375 568.191406 762.253906 568.882812 763.503906 569.605469 C 764.753906 570.328125 765.984375 571.082031 767.199219 571.867188 C 768.410156 572.652344 769.605469 573.46875 770.777344 574.3125 C 771.949219 575.15625 773.101562 576.027344 774.230469 576.929688 C 775.359375 577.832031 776.464844 578.761719 777.546875 579.71875 C 778.628906 580.675781 779.6875 581.65625 780.722656 582.667969 C 781.757812 583.675781 782.765625 584.710938 783.746094 585.769531 C 784.730469 586.828125 785.683594 587.914062 786.613281 589.019531 C 787.542969 590.125 788.441406 591.253906 789.316406 592.40625 C 790.1875 593.558594 791.03125 594.730469 791.84375 595.925781 C 792.65625 597.121094 793.441406 598.332031 794.195312 599.566406 C 794.949219 600.796875 795.671875 602.050781 796.363281 603.320312 C 797.054688 604.585938 797.710938 605.871094 798.339844 607.175781 C 798.964844 608.476562 799.5625 609.792969 800.121094 611.125 C 800.683594 612.453125 801.210938 613.796875 801.707031 615.15625 C 802.203125 616.515625 802.664062 617.882812 803.089844 619.261719 C 803.515625 620.644531 803.90625 622.035156 804.265625 623.433594 C 804.621094 624.832031 804.945312 626.242188 805.234375 627.65625 C 805.519531 629.074219 805.773438 630.496094 805.988281 631.925781 C 806.203125 633.351562 806.386719 634.785156 806.53125 636.222656 C 806.675781 637.660156 806.785156 639.101562 806.859375 640.542969 C 806.933594 641.988281 806.96875 643.429688 806.972656 644.875 L 806.972656 804.613281 L 911.539062 804.613281 L 911.539062 396.988281 Z M 719.996094 485.246094 C 718.453125 485.246094 716.910156 485.210938 715.367188 485.132812 C 713.828125 485.058594 712.289062 484.945312 710.753906 484.792969 C 709.21875 484.640625 707.6875 484.453125 706.160156 484.226562 C 704.632812 484 703.113281 483.738281 701.601562 483.4375 C 700.089844 483.136719 698.582031 482.796875 697.085938 482.421875 C 695.589844 482.046875 694.101562 481.636719 692.625 481.1875 C 691.148438 480.738281 689.6875 480.257812 688.234375 479.738281 C 686.78125 479.214844 685.339844 478.660156 683.914062 478.070312 C 682.488281 477.480469 681.078125 476.855469 679.683594 476.195312 C 678.289062 475.535156 676.914062 474.84375 675.550781 474.117188 C 674.191406 473.386719 672.847656 472.628906 671.527344 471.835938 C 670.203125 471.042969 668.898438 470.214844 667.617188 469.359375 C 666.332031 468.5 665.070312 467.613281 663.832031 466.695312 C 662.59375 465.777344 661.378906 464.828125 660.183594 463.847656 C 658.992188 462.867188 657.824219 461.863281 656.679688 460.824219 C 655.539062 459.789062 654.421875 458.726562 653.328125 457.632812 C 652.238281 456.542969 651.175781 455.425781 650.140625 454.28125 C 649.101562 453.140625 648.09375 451.972656 647.117188 450.78125 C 646.136719 449.585938 645.1875 448.371094 644.269531 447.132812 C 643.351562 445.890625 642.460938 444.632812 641.605469 443.347656 C 640.746094 442.066406 639.921875 440.761719 639.128906 439.4375 C 638.335938 438.113281 637.574219 436.773438 636.847656 435.414062 C 636.121094 434.050781 635.425781 432.675781 634.769531 431.277344 C 634.109375 429.882812 633.484375 428.472656 632.890625 427.046875 C 632.300781 425.625 631.746094 424.183594 631.226562 422.730469 C 630.707031 421.277344 630.222656 419.8125 629.777344 418.335938 C 629.328125 416.859375 628.917969 415.375 628.542969 413.878906 C 628.167969 412.382812 627.828125 410.875 627.527344 409.363281 C 627.226562 407.851562 626.960938 406.328125 626.738281 404.804688 C 626.511719 403.277344 626.320312 401.746094 626.171875 400.210938 C 626.019531 398.675781 625.90625 397.136719 625.828125 395.597656 C 625.753906 394.054688 625.714844 392.511719 625.714844 390.96875 C 625.714844 389.425781 625.753906 387.886719 625.828125 386.34375 C 625.90625 384.804688 626.019531 383.265625 626.171875 381.730469 C 626.320312 380.195312 626.511719 378.664062 626.738281 377.136719 C 626.960938 375.609375 627.226562 374.089844 627.527344 372.578125 C 627.828125 371.066406 628.167969 369.558594 628.542969 368.0625 C 628.917969 366.566406 629.328125 365.078125 629.777344 363.601562 C 630.222656 362.125 630.707031 360.664062 631.226562 359.210938 C 631.746094 357.757812 632.300781 356.316406 632.890625 354.890625 C 633.484375 353.46875 634.109375 352.058594 634.765625 350.660156 C 635.425781 349.265625 636.121094 347.890625 636.847656 346.527344 C 637.574219 345.167969 638.335938 343.824219 639.128906 342.503906 C 639.921875 341.179688 640.746094 339.875 641.605469 338.59375 C 642.460938 337.308594 643.351562 336.050781 644.269531 334.808594 C 645.1875 333.570312 646.136719 332.355469 647.117188 331.160156 C 648.09375 329.96875 649.101562 328.800781 650.136719 327.65625 C 651.175781 326.515625 652.238281 325.398438 653.328125 324.304688 C 654.421875 323.214844 655.535156 322.152344 656.679688 321.117188 C 657.824219 320.078125 658.992188 319.070312 660.183594 318.09375 C 661.375 317.113281 662.59375 316.164062 663.832031 315.246094 C 665.070312 314.328125 666.332031 313.4375 667.617188 312.582031 C 668.898438 311.726562 670.203125 310.898438 671.523438 310.105469 C 672.847656 309.3125 674.191406 308.554688 675.550781 307.824219 C 676.910156 307.097656 678.289062 306.40625 679.683594 305.746094 C 681.078125 305.085938 682.488281 304.460938 683.914062 303.871094 C 685.339844 303.28125 686.777344 302.722656 688.230469 302.203125 C 689.683594 301.683594 691.148438 301.199219 692.625 300.753906 C 694.101562 300.304688 695.589844 299.894531 697.085938 299.519531 C 698.582031 299.144531 700.085938 298.804688 701.601562 298.503906 C 703.113281 298.203125 704.632812 297.941406 706.160156 297.714844 C 707.6875 297.488281 709.214844 297.296875 710.753906 297.148438 C 712.289062 296.996094 713.824219 296.882812 715.367188 296.808594 C 716.90625 296.730469 718.449219 296.695312 719.992188 296.695312 C 721.535156 296.695312 723.078125 296.730469 724.617188 296.808594 C 726.160156 296.882812 727.699219 296.996094 729.234375 297.148438 C 730.769531 297.296875 732.300781 297.488281 733.828125 297.714844 C 735.351562 297.941406 736.871094 298.203125 738.386719 298.503906 C 739.898438 298.804688 741.402344 299.144531 742.898438 299.519531 C 744.398438 299.894531 745.882812 300.304688 747.359375 300.753906 C 748.835938 301.199219 750.300781 301.683594 751.753906 302.203125 C 753.207031 302.722656 754.644531 303.28125 756.070312 303.871094 C 757.496094 304.460938 758.90625 305.085938 760.300781 305.746094 C 761.695312 306.40625 763.074219 307.097656 764.433594 307.824219 C 765.796875 308.554688 767.136719 309.3125 768.460938 310.105469 C 769.785156 310.898438 771.085938 311.726562 772.371094 312.582031 C 773.652344 313.4375 774.914062 314.328125 776.152344 315.246094 C 777.394531 316.164062 778.609375 317.113281 779.800781 318.09375 C 780.996094 319.070312 782.164062 320.078125 783.304688 321.117188 C 784.449219 322.152344 785.566406 323.214844 786.65625 324.304688 C 787.746094 325.398438 788.8125 326.515625 789.847656 327.65625 C 790.882812 328.800781 791.890625 329.96875 792.871094 331.160156 C 793.847656 332.355469 794.796875 333.570312 795.71875 334.808594 C 796.636719 336.050781 797.523438 337.308594 798.382812 338.59375 C 799.238281 339.875 800.0625 341.179688 800.855469 342.503906 C 801.648438 343.824219 802.410156 345.167969 803.136719 346.527344 C 803.863281 347.890625 804.558594 349.265625 805.21875 350.660156 C 805.878906 352.054688 806.503906 353.464844 807.09375 354.890625 C 807.683594 356.316406 808.238281 357.757812 808.757812 359.210938 C 809.277344 360.664062 809.761719 362.125 810.210938 363.601562 C 810.660156 365.078125 811.070312 366.566406 811.445312 368.0625 C 811.820312 369.558594 812.15625 371.066406 812.457031 372.578125 C 812.757812 374.089844 813.023438 375.609375 813.25 377.136719 C 813.476562 378.664062 813.664062 380.195312 813.816406 381.730469 C 813.96875 383.265625 814.082031 384.804688 814.15625 386.34375 C 814.230469 387.886719 814.269531 389.425781 814.269531 390.96875 C 814.269531 392.511719 814.230469 394.054688 814.152344 395.59375 C 814.074219 397.136719 813.960938 398.671875 813.804688 400.207031 C 813.652344 401.742188 813.464844 403.273438 813.234375 404.796875 C 813.007812 406.324219 812.742188 407.84375 812.441406 409.355469 C 812.140625 410.867188 811.800781 412.371094 811.421875 413.867188 C 811.046875 415.363281 810.636719 416.851562 810.1875 418.324219 C 809.738281 419.800781 809.253906 421.265625 808.734375 422.71875 C 808.210938 424.167969 807.65625 425.605469 807.066406 427.03125 C 806.472656 428.457031 805.847656 429.867188 805.1875 431.261719 C 804.527344 432.652344 803.835938 434.03125 803.105469 435.390625 C 802.378906 436.75 801.617188 438.09375 800.824219 439.414062 C 800.03125 440.738281 799.207031 442.039062 798.347656 443.324219 C 797.492188 444.605469 796.605469 445.867188 795.683594 447.105469 C 794.765625 448.34375 793.816406 449.558594 792.839844 450.75 C 791.859375 451.941406 790.851562 453.109375 789.816406 454.253906 C 788.78125 455.394531 787.71875 456.511719 786.625 457.601562 C 785.535156 458.695312 784.417969 459.757812 783.277344 460.792969 C 782.132812 461.828125 780.964844 462.835938 779.773438 463.816406 C 778.582031 464.792969 777.367188 465.742188 776.128906 466.660156 C 774.890625 467.582031 773.628906 468.46875 772.347656 469.324219 C 771.0625 470.183594 769.761719 471.007812 768.4375 471.800781 C 767.117188 472.59375 765.773438 473.355469 764.414062 474.082031 C 763.054688 474.8125 761.675781 475.503906 760.285156 476.164062 C 758.890625 476.824219 757.480469 477.453125 756.054688 478.042969 C 754.632812 478.632812 753.191406 479.1875 751.742188 479.710938 C 750.289062 480.230469 748.824219 480.714844 747.347656 481.164062 C 745.875 481.613281 744.386719 482.023438 742.890625 482.402344 C 741.394531 482.777344 739.890625 483.117188 738.378906 483.417969 C 736.867188 483.71875 735.347656 483.984375 733.820312 484.214844 C 732.296875 484.441406 730.765625 484.632812 729.230469 484.785156 C 727.695312 484.9375 726.160156 485.050781 724.617188 485.128906 C 723.078125 485.207031 721.535156 485.246094 719.996094 485.246094 Z M 719.996094 485.246094 " fill-opacity="1" fill-rule="nonzero"/></g><path fill="#000173" d="M 719.996094 325.140625 C 718.917969 325.140625 717.839844 325.167969 716.765625 325.21875 C 715.6875 325.273438 714.613281 325.351562 713.542969 325.457031 C 712.46875 325.5625 711.398438 325.695312 710.335938 325.851562 C 709.269531 326.011719 708.207031 326.195312 707.152344 326.40625 C 706.09375 326.613281 705.042969 326.851562 704 327.113281 C 702.953125 327.375 701.914062 327.660156 700.882812 327.972656 C 699.851562 328.285156 698.832031 328.625 697.816406 328.988281 C 696.800781 329.351562 695.796875 329.738281 694.800781 330.152344 C 693.804688 330.5625 692.820312 331 691.847656 331.460938 C 690.871094 331.921875 689.910156 332.40625 688.960938 332.914062 C 688.011719 333.421875 687.074219 333.953125 686.148438 334.503906 C 685.226562 335.058594 684.316406 335.636719 683.417969 336.234375 C 682.523438 336.832031 681.644531 337.453125 680.777344 338.09375 C 679.910156 338.738281 679.0625 339.398438 678.230469 340.082031 C 677.398438 340.765625 676.582031 341.46875 675.785156 342.191406 C 674.984375 342.917969 674.203125 343.660156 673.441406 344.421875 C 672.679688 345.183594 671.9375 345.964844 671.214844 346.761719 C 670.492188 347.558594 669.789062 348.375 669.105469 349.207031 C 668.421875 350.039062 667.757812 350.890625 667.117188 351.753906 C 666.472656 352.621094 665.855469 353.5 665.253906 354.398438 C 664.65625 355.292969 664.082031 356.203125 663.527344 357.128906 C 662.972656 358.050781 662.441406 358.988281 661.933594 359.9375 C 661.425781 360.890625 660.941406 361.851562 660.480469 362.824219 C 660.019531 363.796875 659.585938 364.785156 659.171875 365.777344 C 658.757812 366.773438 658.371094 367.777344 658.007812 368.792969 C 657.644531 369.808594 657.308594 370.832031 656.996094 371.863281 C 656.683594 372.894531 656.394531 373.929688 656.132812 374.976562 C 655.871094 376.019531 655.636719 377.070312 655.425781 378.128906 C 655.214844 379.183594 655.03125 380.246094 654.875 381.3125 C 654.714844 382.378906 654.582031 383.445312 654.476562 384.519531 C 654.371094 385.589844 654.292969 386.664062 654.238281 387.742188 C 654.1875 388.816406 654.160156 389.894531 654.160156 390.972656 C 654.160156 392.050781 654.1875 393.125 654.238281 394.203125 C 654.292969 395.277344 654.371094 396.351562 654.476562 397.425781 C 654.582031 398.496094 654.714844 399.566406 654.875 400.632812 C 655.03125 401.695312 655.214844 402.757812 655.425781 403.816406 C 655.636719 404.871094 655.871094 405.921875 656.132812 406.96875 C 656.394531 408.011719 656.683594 409.050781 656.996094 410.082031 C 657.308594 411.113281 657.644531 412.136719 658.007812 413.148438 C 658.371094 414.164062 658.757812 415.167969 659.171875 416.164062 C 659.585938 417.160156 660.019531 418.144531 660.480469 419.117188 C 660.941406 420.09375 661.425781 421.054688 661.933594 422.003906 C 662.441406 422.953125 662.972656 423.890625 663.527344 424.816406 C 664.082031 425.742188 664.65625 426.652344 665.253906 427.546875 C 665.855469 428.441406 666.472656 429.324219 667.117188 430.1875 C 667.757812 431.054688 668.421875 431.902344 669.105469 432.734375 C 669.789062 433.566406 670.492188 434.382812 671.214844 435.183594 C 671.9375 435.980469 672.679688 436.761719 673.441406 437.523438 C 674.203125 438.285156 674.984375 439.027344 675.78125 439.75 C 676.582031 440.472656 677.394531 441.175781 678.230469 441.859375 C 679.0625 442.542969 679.910156 443.207031 680.777344 443.847656 C 681.640625 444.492188 682.523438 445.109375 683.417969 445.710938 C 684.3125 446.308594 685.222656 446.882812 686.148438 447.4375 C 687.074219 447.992188 688.007812 448.523438 688.960938 449.03125 C 689.910156 449.539062 690.871094 450.023438 691.847656 450.484375 C 692.820312 450.945312 693.804688 451.378906 694.800781 451.792969 C 695.796875 452.207031 696.800781 452.59375 697.816406 452.957031 C 698.828125 453.320312 699.851562 453.65625 700.882812 453.96875 C 701.914062 454.28125 702.953125 454.570312 703.996094 454.832031 C 705.042969 455.09375 706.09375 455.328125 707.148438 455.539062 C 708.207031 455.75 709.265625 455.933594 710.332031 456.089844 C 711.398438 456.25 712.46875 456.382812 713.539062 456.488281 C 714.613281 456.59375 715.6875 456.671875 716.761719 456.726562 C 717.839844 456.777344 718.914062 456.804688 719.992188 456.804688 C 721.070312 456.804688 722.148438 456.777344 723.222656 456.726562 C 724.300781 456.671875 725.375 456.59375 726.445312 456.488281 C 727.519531 456.382812 728.585938 456.25 729.652344 456.089844 C 730.71875 455.933594 731.78125 455.75 732.835938 455.539062 C 733.894531 455.328125 734.945312 455.09375 735.988281 454.832031 C 737.035156 454.570312 738.074219 454.28125 739.101562 453.96875 C 740.132812 453.65625 741.15625 453.320312 742.171875 452.957031 C 743.1875 452.59375 744.191406 452.203125 745.1875 451.792969 C 746.179688 451.378906 747.167969 450.945312 748.140625 450.484375 C 749.113281 450.023438 750.078125 449.539062 751.027344 449.03125 C 751.976562 448.523438 752.914062 447.992188 753.839844 447.4375 C 754.761719 446.882812 755.671875 446.308594 756.566406 445.707031 C 757.464844 445.109375 758.34375 444.488281 759.210938 443.847656 C 760.074219 443.207031 760.925781 442.542969 761.757812 441.859375 C 762.589844 441.175781 763.40625 440.472656 764.203125 439.75 C 765.003906 439.027344 765.78125 438.285156 766.542969 437.523438 C 767.304688 436.761719 768.046875 435.980469 768.773438 435.179688 C 769.496094 434.382812 770.199219 433.566406 770.882812 432.734375 C 771.566406 431.902344 772.230469 431.050781 772.871094 430.1875 C 773.511719 429.320312 774.132812 428.441406 774.730469 427.546875 C 775.328125 426.648438 775.90625 425.738281 776.460938 424.816406 C 777.011719 423.890625 777.542969 422.953125 778.050781 422.003906 C 778.558594 421.054688 779.042969 420.089844 779.503906 419.117188 C 779.964844 418.144531 780.402344 417.160156 780.8125 416.164062 C 781.226562 415.167969 781.613281 414.164062 781.976562 413.148438 C 782.339844 412.132812 782.679688 411.113281 782.992188 410.082031 C 783.304688 409.050781 783.589844 408.011719 783.851562 406.964844 C 784.113281 405.921875 784.351562 404.871094 784.558594 403.8125 C 784.769531 402.757812 784.953125 401.695312 785.113281 400.628906 C 785.269531 399.5625 785.402344 398.496094 785.507812 397.421875 C 785.613281 396.351562 785.691406 395.277344 785.746094 394.199219 C 785.796875 393.125 785.824219 392.046875 785.824219 390.96875 C 785.824219 389.894531 785.796875 388.816406 785.742188 387.742188 C 785.6875 386.664062 785.609375 385.59375 785.5 384.519531 C 785.394531 383.449219 785.261719 382.378906 785.101562 381.316406 C 784.945312 380.25 784.757812 379.1875 784.546875 378.132812 C 784.335938 377.078125 784.101562 376.027344 783.835938 374.980469 C 783.574219 373.9375 783.285156 372.898438 782.972656 371.871094 C 782.660156 370.839844 782.320312 369.816406 781.957031 368.800781 C 781.59375 367.789062 781.207031 366.785156 780.792969 365.789062 C 780.382812 364.792969 779.945312 363.8125 779.484375 362.835938 C 779.023438 361.863281 778.539062 360.902344 778.03125 359.953125 C 777.523438 359.003906 776.992188 358.066406 776.4375 357.144531 C 775.882812 356.21875 775.304688 355.308594 774.707031 354.414062 C 774.109375 353.519531 773.488281 352.640625 772.847656 351.773438 C 772.207031 350.910156 771.542969 350.058594 770.859375 349.226562 C 770.175781 348.394531 769.472656 347.582031 768.75 346.78125 C 768.027344 345.984375 767.285156 345.203125 766.523438 344.441406 C 765.761719 343.679688 764.980469 342.9375 764.183594 342.214844 C 763.382812 341.492188 762.570312 340.789062 761.738281 340.105469 C 760.90625 339.421875 760.054688 338.757812 759.191406 338.117188 C 758.324219 337.476562 757.445312 336.855469 756.550781 336.257812 C 755.65625 335.660156 754.746094 335.082031 753.820312 334.527344 C 752.898438 333.972656 751.960938 333.441406 751.011719 332.933594 C 750.0625 332.425781 749.101562 331.941406 748.128906 331.480469 C 747.152344 331.019531 746.171875 330.582031 745.175781 330.171875 C 744.179688 329.757812 743.175781 329.371094 742.160156 329.007812 C 741.148438 328.644531 740.125 328.304688 739.09375 327.992188 C 738.066406 327.675781 737.027344 327.390625 735.984375 327.128906 C 734.9375 326.863281 733.886719 326.628906 732.832031 326.417969 C 731.777344 326.207031 730.714844 326.019531 729.648438 325.863281 C 728.585938 325.703125 727.515625 325.570312 726.445312 325.464844 C 725.371094 325.355469 724.300781 325.277344 723.222656 325.222656 C 722.148438 325.167969 721.070312 325.140625 719.996094 325.140625 Z M 758.085938 400.449219 L 719.996094 400.449219 C 719.371094 400.449219 718.753906 400.386719 718.144531 400.265625 C 717.535156 400.144531 716.941406 399.964844 716.367188 399.726562 C 715.789062 399.488281 715.246094 399.195312 714.726562 398.851562 C 714.210938 398.503906 713.730469 398.109375 713.289062 397.671875 C 712.851562 397.230469 712.457031 396.75 712.109375 396.234375 C 711.765625 395.714844 711.472656 395.167969 711.234375 394.59375 C 710.996094 394.019531 710.816406 393.425781 710.695312 392.816406 C 710.574219 392.207031 710.511719 391.589844 710.511719 390.964844 L 710.511719 352.878906 C 710.511719 352.253906 710.574219 351.640625 710.695312 351.027344 C 710.816406 350.417969 710.996094 349.824219 711.234375 349.25 C 711.472656 348.675781 711.765625 348.128906 712.109375 347.609375 C 712.457031 347.09375 712.847656 346.613281 713.289062 346.175781 C 713.730469 345.734375 714.207031 345.339844 714.726562 344.996094 C 715.246094 344.648438 715.789062 344.355469 716.367188 344.117188 C 716.941406 343.878906 717.535156 343.699219 718.144531 343.578125 C 718.753906 343.457031 719.371094 343.398438 719.996094 343.398438 C 720.617188 343.398438 721.234375 343.457031 721.84375 343.578125 C 722.453125 343.699219 723.046875 343.878906 723.621094 344.117188 C 724.199219 344.355469 724.746094 344.648438 725.261719 344.996094 C 725.78125 345.339844 726.257812 345.734375 726.699219 346.175781 C 727.140625 346.613281 727.53125 347.09375 727.878906 347.609375 C 728.222656 348.128906 728.515625 348.675781 728.753906 349.25 C 728.992188 349.824219 729.171875 350.417969 729.292969 351.027344 C 729.414062 351.640625 729.476562 352.253906 729.476562 352.878906 L 729.476562 381.488281 L 758.085938 381.488281 C 758.710938 381.488281 759.328125 381.550781 759.9375 381.671875 C 760.546875 381.792969 761.140625 381.972656 761.714844 382.210938 C 762.292969 382.449219 762.835938 382.742188 763.355469 383.085938 C 763.871094 383.433594 764.351562 383.824219 764.792969 384.265625 C 765.230469 384.707031 765.625 385.183594 765.972656 385.703125 C 766.316406 386.21875 766.609375 386.765625 766.847656 387.34375 C 767.085938 387.917969 767.265625 388.511719 767.386719 389.121094 C 767.507812 389.730469 767.570312 390.347656 767.570312 390.96875 C 767.570312 391.59375 767.507812 392.210938 767.386719 392.820312 C 767.265625 393.429688 767.085938 394.023438 766.847656 394.597656 C 766.609375 395.175781 766.316406 395.71875 765.972656 396.238281 C 765.625 396.753906 765.230469 397.234375 764.792969 397.675781 C 764.351562 398.113281 763.871094 398.507812 763.355469 398.855469 C 762.835938 399.199219 762.292969 399.492188 761.714844 399.730469 C 761.140625 399.96875 760.546875 400.148438 759.9375 400.269531 C 759.328125 400.390625 758.710938 400.453125 758.085938 400.453125 Z M 758.085938 400.449219 " fill-opacity="1" fill-rule="nonzero"/><g clip-path="url(#8d209b69ed)"><path fill="#000173" d="M 1214.949219 776.167969 L 1164.8125 776.167969 L 1164.8125 405.199219 L 1211.46875 405.199219 C 1212.402344 405.199219 1213.328125 405.109375 1214.242188 404.925781 C 1215.160156 404.746094 1216.050781 404.476562 1216.910156 404.117188 C 1217.773438 403.761719 1218.59375 403.320312 1219.371094 402.804688 C 1220.148438 402.285156 1220.867188 401.695312 1221.527344 401.035156 C 1222.1875 400.375 1222.777344 399.65625 1223.292969 398.878906 C 1223.8125 398.101562 1224.25 397.28125 1224.609375 396.417969 C 1224.964844 395.558594 1225.234375 394.667969 1225.417969 393.75 C 1225.601562 392.835938 1225.691406 391.910156 1225.691406 390.976562 L 1225.691406 359.789062 C 1225.691406 358.777344 1225.585938 357.777344 1225.371094 356.789062 C 1225.160156 355.804688 1224.84375 354.847656 1224.429688 353.929688 C 1224.011719 353.007812 1223.503906 352.140625 1222.902344 351.328125 C 1222.300781 350.515625 1221.621094 349.777344 1220.863281 349.109375 L 1112.472656 253.769531 C 1111.171875 252.625 1109.714844 251.75 1108.097656 251.140625 C 1106.480469 250.527344 1104.804688 250.222656 1103.078125 250.222656 L 801.15625 250.222656 L 931.53125 376.75 L 935.667969 380.757812 C 937.050781 382.097656 938.113281 383.652344 938.863281 385.425781 C 939.613281 387.195312 939.988281 389.042969 939.988281 390.964844 L 939.988281 804.613281 L 1214.949219 804.613281 C 1215.890625 804.621094 1216.820312 804.539062 1217.746094 804.363281 C 1218.667969 804.1875 1219.566406 803.925781 1220.4375 803.570312 C 1221.308594 803.21875 1222.136719 802.78125 1222.921875 802.265625 C 1223.707031 801.75 1224.429688 801.160156 1225.097656 800.496094 C 1225.765625 799.835938 1226.363281 799.117188 1226.890625 798.335938 C 1227.414062 797.558594 1227.855469 796.734375 1228.21875 795.867188 C 1228.582031 795 1228.855469 794.105469 1229.039062 793.183594 C 1229.222656 792.261719 1229.316406 791.332031 1229.316406 790.390625 C 1229.316406 789.449219 1229.222656 788.519531 1229.039062 787.597656 C 1228.855469 786.675781 1228.582031 785.78125 1228.21875 784.914062 C 1227.855469 784.046875 1227.414062 783.222656 1226.890625 782.445312 C 1226.363281 781.664062 1225.765625 780.945312 1225.097656 780.285156 C 1224.429688 779.621094 1223.707031 779.03125 1222.921875 778.515625 C 1222.136719 778 1221.308594 777.5625 1220.4375 777.210938 C 1219.566406 776.855469 1218.667969 776.59375 1217.746094 776.417969 C 1216.820312 776.242188 1215.890625 776.160156 1214.949219 776.167969 Z M 1090.648438 693.070312 C 1090.648438 694.003906 1090.554688 694.929688 1090.375 695.84375 C 1090.191406 696.761719 1089.921875 697.648438 1089.5625 698.511719 C 1089.207031 699.375 1088.765625 700.195312 1088.25 700.972656 C 1087.730469 701.75 1087.140625 702.464844 1086.480469 703.125 C 1085.816406 703.785156 1085.097656 704.375 1084.324219 704.894531 C 1083.546875 705.414062 1082.726562 705.851562 1081.863281 706.210938 C 1081 706.566406 1080.109375 706.835938 1079.195312 707.019531 C 1078.277344 707.199219 1077.355469 707.289062 1076.417969 707.289062 L 1003.667969 707.289062 C 1002.734375 707.289062 1001.808594 707.199219 1000.890625 707.015625 C 999.976562 706.835938 999.085938 706.566406 998.222656 706.207031 C 997.363281 705.851562 996.542969 705.410156 995.765625 704.894531 C 994.988281 704.375 994.269531 703.785156 993.609375 703.125 C 992.949219 702.464844 992.359375 701.746094 991.84375 700.96875 C 991.324219 700.191406 990.886719 699.371094 990.527344 698.511719 C 990.171875 697.648438 989.902344 696.757812 989.71875 695.84375 C 989.535156 694.925781 989.445312 694 989.445312 693.066406 L 989.445312 620.308594 C 989.445312 619.375 989.535156 618.453125 989.71875 617.535156 C 989.902344 616.621094 990.171875 615.730469 990.527344 614.867188 C 990.886719 614.003906 991.324219 613.1875 991.84375 612.410156 C 992.359375 611.632812 992.949219 610.914062 993.609375 610.253906 C 994.269531 609.59375 994.988281 609.003906 995.765625 608.484375 C 996.542969 607.964844 997.363281 607.527344 998.222656 607.171875 C 999.085938 606.8125 999.976562 606.542969 1000.890625 606.363281 C 1001.808594 606.179688 1002.734375 606.089844 1003.667969 606.089844 L 1076.417969 606.089844 C 1077.355469 606.089844 1078.277344 606.179688 1079.195312 606.363281 C 1080.109375 606.542969 1081 606.8125 1081.863281 607.171875 C 1082.726562 607.527344 1083.542969 607.964844 1084.320312 608.484375 C 1085.097656 609.003906 1085.816406 609.59375 1086.476562 610.253906 C 1087.136719 610.914062 1087.726562 611.632812 1088.246094 612.410156 C 1088.761719 613.1875 1089.203125 614.003906 1089.558594 614.867188 C 1089.917969 615.730469 1090.1875 616.621094 1090.367188 617.535156 C 1090.550781 618.453125 1090.640625 619.375 1090.640625 620.308594 Z M 1090.648438 559.144531 C 1090.648438 560.078125 1090.554688 561.003906 1090.375 561.917969 C 1090.191406 562.835938 1089.921875 563.722656 1089.5625 564.585938 C 1089.207031 565.449219 1088.765625 566.269531 1088.246094 567.042969 C 1087.730469 567.820312 1087.140625 568.539062 1086.476562 569.199219 C 1085.816406 569.859375 1085.097656 570.449219 1084.324219 570.96875 C 1083.546875 571.488281 1082.726562 571.925781 1081.863281 572.28125 C 1081 572.640625 1080.109375 572.910156 1079.195312 573.089844 C 1078.277344 573.273438 1077.355469 573.363281 1076.417969 573.363281 L 1003.667969 573.363281 C 1002.734375 573.363281 1001.808594 573.269531 1000.890625 573.089844 C 999.976562 572.90625 999.085938 572.636719 998.226562 572.28125 C 997.363281 571.921875 996.542969 571.484375 995.765625 570.964844 C 994.988281 570.445312 994.269531 569.855469 993.609375 569.195312 C 992.949219 568.535156 992.359375 567.816406 991.84375 567.042969 C 991.324219 566.265625 990.886719 565.445312 990.527344 564.582031 C 990.171875 563.71875 989.902344 562.832031 989.71875 561.914062 C 989.535156 561 989.445312 560.074219 989.445312 559.140625 L 989.445312 486.382812 C 989.445312 485.449219 989.535156 484.523438 989.71875 483.609375 C 989.902344 482.695312 990.171875 481.804688 990.527344 480.941406 C 990.886719 480.078125 991.324219 479.257812 991.84375 478.480469 C 992.359375 477.707031 992.949219 476.988281 993.609375 476.328125 C 994.269531 475.667969 994.988281 475.078125 995.765625 474.558594 C 996.542969 474.039062 997.363281 473.601562 998.222656 473.242188 C 999.085938 472.886719 999.976562 472.617188 1000.890625 472.433594 C 1001.808594 472.253906 1002.734375 472.160156 1003.667969 472.160156 L 1076.417969 472.160156 C 1077.355469 472.160156 1078.277344 472.253906 1079.195312 472.433594 C 1080.109375 472.617188 1081 472.886719 1081.863281 473.242188 C 1082.726562 473.601562 1083.542969 474.039062 1084.320312 474.558594 C 1085.097656 475.078125 1085.816406 475.667969 1086.476562 476.328125 C 1087.136719 476.988281 1087.726562 477.707031 1088.246094 478.480469 C 1088.761719 479.257812 1089.203125 480.078125 1089.558594 480.941406 C 1089.917969 481.804688 1090.1875 482.691406 1090.367188 483.609375 C 1090.550781 484.523438 1090.640625 485.449219 1090.640625 486.382812 Z M 1090.648438 559.144531 " fill-opacity="1" fill-rule="nonzero"/></g><g clip-path="url(#1c39502552)"><path fill="#000173" d="M 633.335938 250.222656 L 336.90625 250.222656 C 335.179688 250.222656 333.507812 250.527344 331.886719 251.140625 C 330.269531 251.75 328.8125 252.625 327.515625 253.769531 L 219.121094 349.109375 C 218.363281 349.777344 217.683594 350.515625 217.082031 351.328125 C 216.480469 352.140625 215.972656 353.007812 215.554688 353.929688 C 215.140625 354.847656 214.824219 355.804688 214.613281 356.789062 C 214.398438 357.777344 214.292969 358.777344 214.292969 359.789062 L 214.292969 390.96875 C 214.292969 391.90625 214.382812 392.828125 214.566406 393.746094 C 214.746094 394.664062 215.015625 395.550781 215.375 396.414062 C 215.730469 397.277344 216.167969 398.097656 216.6875 398.875 C 217.207031 399.652344 217.796875 400.371094 218.457031 401.03125 C 219.117188 401.691406 219.835938 402.28125 220.613281 402.800781 C 221.386719 403.320312 222.207031 403.757812 223.070312 404.117188 C 223.933594 404.472656 224.824219 404.746094 225.738281 404.925781 C 226.65625 405.109375 227.582031 405.199219 228.515625 405.199219 L 275.175781 405.199219 L 275.175781 776.167969 L 225.039062 776.167969 C 224.097656 776.160156 223.167969 776.242188 222.242188 776.417969 C 221.320312 776.59375 220.421875 776.855469 219.550781 777.210938 C 218.679688 777.5625 217.851562 778 217.066406 778.515625 C 216.285156 779.03125 215.558594 779.621094 214.890625 780.285156 C 214.222656 780.945312 213.625 781.664062 213.101562 782.445312 C 212.574219 783.222656 212.132812 784.046875 211.769531 784.914062 C 211.40625 785.78125 211.132812 786.675781 210.949219 787.597656 C 210.765625 788.519531 210.671875 789.449219 210.671875 790.390625 C 210.671875 791.332031 210.765625 792.261719 210.949219 793.183594 C 211.132812 794.105469 211.40625 795 211.769531 795.867188 C 212.132812 796.734375 212.574219 797.558594 213.101562 798.335938 C 213.625 799.117188 214.222656 799.835938 214.890625 800.496094 C 215.558594 801.160156 216.285156 801.75 217.066406 802.265625 C 217.851562 802.78125 218.679688 803.21875 219.550781 803.570312 C 220.421875 803.925781 221.320312 804.1875 222.242188 804.363281 C 223.167969 804.539062 224.097656 804.621094 225.039062 804.613281 L 500 804.613281 L 500 390.96875 C 500 389.097656 500.355469 387.296875 501.070312 385.566406 C 501.78125 383.835938 502.792969 382.304688 504.109375 380.972656 L 508.285156 376.75 Z M 450.542969 693.066406 C 450.542969 694 450.453125 694.925781 450.269531 695.84375 C 450.089844 696.757812 449.820312 697.648438 449.460938 698.511719 C 449.105469 699.371094 448.667969 700.191406 448.148438 700.96875 C 447.628906 701.746094 447.039062 702.464844 446.378906 703.125 C 445.71875 703.785156 445 704.375 444.222656 704.894531 C 443.445312 705.414062 442.628906 705.851562 441.765625 706.207031 C 440.902344 706.566406 440.011719 706.835938 439.097656 707.015625 C 438.179688 707.199219 437.253906 707.289062 436.320312 707.289062 L 363.570312 707.289062 C 362.636719 707.289062 361.710938 707.199219 360.792969 707.015625 C 359.878906 706.835938 358.988281 706.566406 358.125 706.207031 C 357.261719 705.851562 356.445312 705.410156 355.667969 704.894531 C 354.890625 704.375 354.171875 703.785156 353.511719 703.125 C 352.851562 702.464844 352.261719 701.746094 351.742188 700.96875 C 351.222656 700.191406 350.785156 699.371094 350.429688 698.511719 C 350.070312 697.648438 349.800781 696.757812 349.621094 695.84375 C 349.4375 694.925781 349.347656 694 349.347656 693.066406 L 349.347656 620.308594 C 349.347656 619.375 349.4375 618.453125 349.621094 617.535156 C 349.800781 616.621094 350.070312 615.730469 350.429688 614.867188 C 350.785156 614.003906 351.226562 613.1875 351.742188 612.410156 C 352.261719 611.632812 352.851562 610.914062 353.511719 610.253906 C 354.171875 609.59375 354.890625 609.003906 355.667969 608.484375 C 356.445312 607.964844 357.261719 607.527344 358.125 607.171875 C 358.988281 606.8125 359.878906 606.542969 360.792969 606.363281 C 361.710938 606.179688 362.636719 606.089844 363.570312 606.089844 L 436.324219 606.089844 C 437.257812 606.089844 438.183594 606.179688 439.097656 606.363281 C 440.015625 606.542969 440.90625 606.8125 441.765625 607.171875 C 442.628906 607.527344 443.449219 607.964844 444.226562 608.484375 C 445.003906 609.003906 445.722656 609.59375 446.382812 610.253906 C 447.042969 610.914062 447.632812 611.632812 448.148438 612.410156 C 448.667969 613.183594 449.105469 614.003906 449.464844 614.867188 C 449.820312 615.730469 450.09375 616.621094 450.273438 617.535156 C 450.457031 618.453125 450.546875 619.375 450.546875 620.308594 Z M 450.542969 559.140625 C 450.542969 560.074219 450.453125 561 450.269531 561.914062 C 450.089844 562.832031 449.820312 563.71875 449.460938 564.582031 C 449.105469 565.445312 448.667969 566.265625 448.148438 567.042969 C 447.628906 567.820312 447.039062 568.535156 446.378906 569.195312 C 445.71875 569.859375 445 570.445312 444.222656 570.964844 C 443.445312 571.484375 442.628906 571.921875 441.765625 572.28125 C 440.902344 572.636719 440.011719 572.90625 439.097656 573.089844 C 438.179688 573.269531 437.253906 573.363281 436.320312 573.363281 L 363.570312 573.363281 C 362.636719 573.363281 361.710938 573.269531 360.792969 573.089844 C 359.878906 572.90625 358.988281 572.636719 358.125 572.28125 C 357.261719 571.921875 356.445312 571.484375 355.667969 570.964844 C 354.890625 570.445312 354.171875 569.855469 353.511719 569.195312 C 352.851562 568.535156 352.261719 567.820312 351.742188 567.042969 C 351.226562 566.265625 350.785156 565.445312 350.429688 564.582031 C 350.070312 563.71875 349.800781 562.832031 349.621094 561.914062 C 349.4375 561 349.347656 560.074219 349.347656 559.140625 L 349.347656 486.382812 C 349.347656 485.449219 349.4375 484.523438 349.621094 483.609375 C 349.800781 482.691406 350.070312 481.804688 350.429688 480.941406 C 350.785156 480.078125 351.222656 479.257812 351.742188 478.480469 C 352.261719 477.707031 352.851562 476.988281 353.511719 476.328125 C 354.171875 475.667969 354.890625 475.078125 355.667969 474.558594 C 356.445312 474.039062 357.261719 473.601562 358.125 473.242188 C 358.988281 472.886719 359.878906 472.617188 360.792969 472.433594 C 361.710938 472.25 362.636719 472.160156 363.570312 472.160156 L 436.324219 472.160156 C 437.257812 472.160156 438.183594 472.25 439.097656 472.433594 C 440.015625 472.617188 440.90625 472.886719 441.765625 473.242188 C 442.628906 473.601562 443.449219 474.039062 444.226562 474.558594 C 445.003906 475.078125 445.722656 475.667969 446.382812 476.328125 C 447.042969 476.988281 447.632812 477.707031 448.148438 478.480469 C 448.667969 479.257812 449.105469 480.078125 449.464844 480.941406 C 449.820312 481.804688 450.09375 482.691406 450.273438 483.609375 C 450.457031 484.523438 450.546875 485.449219 450.546875 486.382812 Z M 450.542969 559.140625 " fill-opacity="1" fill-rule="nonzero"/></g></svg>