<svg xmlns="http://www.w3.org/2000/svg" xmlns:xlink="http://www.w3.org/1999/xlink" width="1920" zoomAndPan="magnify" viewBox="0 0 1440 809.999993" height="1080" preserveAspectRatio="xMidYMid meet" version="1.0"><defs><clipPath id="b3d3661298"><path d="M 715 0.339844 L 1114.804688 0.339844 L 1114.804688 409 L 715 409 Z M 715 0.339844 " clip-rule="nonzero"/></clipPath></defs><rect x="-144" width="1728" fill="#ffffff" y="-80.999999" height="971.999992" fill-opacity="1"/><rect x="-144" width="1728" fill="#ffffff" y="-80.999999" height="971.999992" fill-opacity="1"/><path fill="#000173" d="M 484.875 113.726562 C 490.046875 116.679688 491.15625 122.363281 493.527344 127.476562 C 496.339844 133.535156 500.035156 139.46875 503.171875 145.433594 C 510.269531 158.964844 517.386719 172.488281 524.515625 186.003906 C 538.605469 212.730469 552.726562 239.441406 566.804688 266.164062 C 568.902344 270.144531 571.035156 274.253906 571.414062 278.726562 C 572.4375 290.746094 552.9375 304.261719 543.847656 309.867188 C 520.75 324.125 498.414062 334.730469 482.546875 358.0625 C 480.066406 361.710938 477.777344 365.609375 476.859375 369.929688 C 474.601562 380.5625 484.976562 395.246094 489.484375 404.496094 C 495.46875 416.773438 501.902344 428.824219 508.773438 440.621094 C 522.585938 464.324219 538.171875 487 555.464844 508.304688 C 600.777344 564.140625 658.175781 610.6875 724.660156 638.816406 C 729.265625 640.765625 757.703125 610.457031 761.871094 605.582031 C 772.484375 593.164062 781.652344 579.664062 793.484375 568.300781 C 809.605469 552.824219 822.832031 546.5 842.542969 560.203125 C 881.851562 587.539062 921.988281 613.683594 962.882812 638.589844 C 1019.152344 672.863281 937.476562 759.773438 901.058594 775.375 C 820.847656 809.714844 725.921875 779.96875 653.714844 740.210938 C 507.863281 659.914062 394.929688 521.738281 345.261719 362.824219 C 333.476562 325.113281 325.066406 285.558594 328.960938 246.238281 C 334.710938 188.234375 373.234375 137.921875 428.824219 119.507812 C 443.695312 114.582031 459.328125 111.953125 475 111.875 C 477.972656 111.863281 481.046875 111.953125 483.769531 113.167969 C 484.152344 113.339844 484.527344 113.53125 484.875 113.726562 " fill-opacity="1" fill-rule="nonzero"/><g clip-path="url(#b3d3661298)"><path fill="#000173" d="M 1080.664062 235.191406 C 1061.445312 192.332031 1035.015625 153.472656 1002.101562 119.695312 C 969.191406 85.914062 931.03125 58.488281 888.679688 38.160156 C 845.054688 17.230469 798.402344 4.554688 750.015625 0.480469 C 739.824219 -0.382812 730.066406 2.710938 723.261719 8.972656 C 718.003906 13.804688 715.113281 20.070312 715.121094 26.609375 C 715.125 41.246094 728.398438 53.859375 745.351562 55.3125 C 914.757812 69.570312 1050.074219 208.296875 1059.796875 378.023438 L 1059.796875 378.039062 C 1060.800781 395.015625 1073.074219 408.609375 1087.707031 408.992188 C 1088.34375 409.007812 1088.976562 409 1089.609375 408.964844 C 1095.464844 408.617188 1101.0625 405.941406 1105.550781 401.3125 C 1111.992188 394.671875 1115.335938 385.003906 1114.734375 374.792969 C 1111.921875 326.308594 1100.457031 279.34375 1080.664062 235.191406 " fill-opacity="1" fill-rule="nonzero"/></g><path fill="#000173" d="M 911.398438 208.078125 C 885.21875 181.214844 854.910156 159.320312 821.296875 143 C 786.695312 126.207031 749.679688 115.867188 711.269531 112.269531 C 701.742188 111.363281 692.644531 114.164062 686.316406 119.941406 C 681.546875 124.289062 678.925781 129.921875 678.933594 135.800781 L 678.863281 140.859375 L 678.863281 140.949219 C 678.875 147.636719 681.871094 154.023438 687.292969 158.933594 C 692.324219 163.488281 698.929688 166.378906 706.027344 167.058594 C 836.820312 179.304688 938.363281 283.316406 946.96875 414.386719 L 946.96875 414.402344 C 947.675781 421.488281 950.230469 428.242188 954.648438 433.382812 C 959.417969 438.925781 965.753906 442.089844 972.445312 442.269531 L 977.601562 442.339844 C 978.160156 442.355469 978.730469 442.339844 979.289062 442.3125 C 984.566406 441.996094 989.609375 439.578125 993.65625 435.367188 C 999.597656 429.1875 1002.636719 420.167969 1001.976562 410.621094 C 999.378906 372.132812 990.003906 334.859375 974.105469 299.835938 C 958.667969 265.816406 937.570312 234.9375 911.398438 208.078125 " fill-opacity="1" fill-rule="nonzero"/><path fill="#000173" d="M 857.246094 362.066406 C 846.808594 339.675781 832.746094 319.328125 815.441406 301.574219 C 798.140625 283.8125 778.160156 269.230469 756.054688 258.210938 C 733.328125 246.890625 708.996094 239.671875 683.730469 236.761719 C 675.234375 235.773438 666.847656 238.164062 661.289062 243.152344 C 657.277344 246.742188 655.082031 251.394531 655.097656 256.246094 L 654.929688 269.328125 L 654.929688 269.441406 C 654.964844 275.039062 657.472656 280.398438 661.992188 284.53125 C 666.101562 288.289062 671.558594 290.738281 677.367188 291.425781 C 754.308594 300.289062 815.132812 362.71875 822 439.863281 L 822.003906 439.878906 C 822.539062 445.6875 824.847656 451.199219 828.492188 455.410156 C 832.507812 460.039062 837.800781 462.683594 843.398438 462.863281 L 856.59375 463.035156 C 857.0625 463.046875 857.535156 463.039062 857.996094 463.011719 C 862.347656 462.761719 866.503906 460.726562 869.84375 457.191406 C 874.980469 451.761719 877.582031 443.441406 876.816406 434.933594 C 874.558594 409.589844 867.972656 385.074219 857.246094 362.066406 " fill-opacity="1" fill-rule="nonzero"/></svg>