<svg xmlns="http://www.w3.org/2000/svg" xmlns:xlink="http://www.w3.org/1999/xlink" width="1920" zoomAndPan="magnify" viewBox="0 0 1440 809.999993" height="1080" preserveAspectRatio="xMidYMid meet" version="1.0"><defs><clipPath id="b1341eece8"><path d="M 387 200 L 1056 200 L 1056 804.441406 L 387 804.441406 Z M 387 200 " clip-rule="nonzero"/></clipPath></defs><rect x="-144" width="1728" fill="#ffffff" y="-80.999999" height="971.999992" fill-opacity="1"/><rect x="-144" width="1728" fill="#ffffff" y="-80.999999" height="971.999992" fill-opacity="1"/><path fill="#000173" d="M 1122.515625 286.179688 L 987.253906 186.683594 L 987.253906 68 C 987.253906 49.390625 972.152344 34.339844 953.570312 34.339844 L 898.828125 34.339844 C 880.21875 34.339844 865.140625 49.417969 865.140625 68 L 865.140625 96.832031 L 762.007812 20.976562 C 739.632812 4.480469 702.996094 4.480469 680.617188 20.976562 L 320.109375 286.179688 C 297.734375 302.652344 292.910156 334.464844 309.382812 356.867188 L 319.347656 370.390625 C 335.792969 392.792969 367.605469 397.640625 389.957031 381.167969 L 680.617188 167.257812 C 702.996094 150.785156 739.632812 150.785156 762.007812 167.257812 L 1052.644531 381.167969 C 1075.019531 397.640625 1106.808594 392.765625 1123.253906 370.390625 L 1133.242188 356.867188 C 1149.691406 334.464844 1144.867188 302.652344 1122.515625 286.179688 Z M 1122.515625 286.179688 " fill-opacity="1" fill-rule="nonzero"/><g clip-path="url(#b1341eece8)"><path fill="#000173" d="M 1014.664062 399.777344 L 761.929688 212.988281 C 739.578125 196.460938 703.046875 196.460938 680.699219 212.988281 L 427.964844 399.777344 C 405.613281 416.304688 387.320312 440.472656 387.320312 453.570312 L 387.320312 724.386719 C 387.320312 768.351562 425.011719 804.011719 471.53125 804.011719 L 625.875 804.011719 L 625.875 564.453125 C 625.875 545.953125 641.03125 530.824219 659.535156 530.824219 L 783.042969 530.824219 C 801.542969 530.824219 816.699219 545.953125 816.699219 564.453125 L 816.699219 804.011719 L 971.070312 804.011719 C 1017.5625 804.011719 1055.226562 768.351562 1055.226562 724.386719 L 1055.226562 453.570312 C 1055.253906 440.472656 1037.015625 416.304688 1014.664062 399.777344 Z M 1014.664062 399.777344 " fill-opacity="1" fill-rule="nonzero"/></g></svg>