<svg xmlns="http://www.w3.org/2000/svg" xmlns:xlink="http://www.w3.org/1999/xlink" width="1920" zoomAndPan="magnify" viewBox="0 0 1440 809.999993" height="1080" preserveAspectRatio="xMidYMid meet" version="1.0"><rect x="-144" width="1728" fill="#ffffff" y="-80.999999" height="971.999992" fill-opacity="1"/><rect x="-144" width="1728" fill="#ffffff" y="-80.999999" height="971.999992" fill-opacity="1"/><path fill="#000173" d="M 944.296875 570.019531 C 948.359375 580.277344 947.445312 583.222656 947.070312 584.199219 C 946.589844 585.335938 945.929688 586.359375 945.09375 587.265625 C 944.253906 588.171875 943.289062 588.90625 942.191406 589.472656 C 935.863281 587.992188 927.507812 588.570312 923.53125 584.683594 C 919.804688 581.132812 915.949219 577.738281 911.960938 574.488281 C 907.96875 571.242188 903.859375 568.15625 899.628906 565.226562 C 895.398438 562.300781 891.058594 559.542969 886.613281 556.953125 C 882.167969 554.367188 877.628906 551.953125 872.996094 549.71875 C 868.363281 547.484375 863.648438 545.433594 858.855469 543.566406 C 854.0625 541.699219 849.203125 540.023438 844.277344 538.535156 C 839.351562 537.046875 834.378906 535.753906 829.351562 534.652344 C 824.328125 533.554688 819.265625 532.652344 814.171875 531.945312 C 743.269531 520.128906 674.957031 532.066406 608.039062 555.398438 C 593.117188 560.609375 578.550781 566.847656 562.234375 573.242188 L 483.84375 406.613281 C 522.207031 379.882812 560.953125 356.261719 595.769531 327.835938 C 646.015625 286.808594 685.226562 236.683594 699.683594 171.433594 C 702.722656 155.261719 703.96875 138.953125 703.425781 122.511719 C 703.425781 113.527344 700.394531 103.957031 711.351562 100.445312 C 723.792969 96.457031 726.671875 107.246094 730.558594 115.484375 C 770.789062 201.023438 811.023438 286.550781 851.265625 372.0625 C 881.230469 435.738281 911.214844 499.398438 941.214844 563.046875 C 942.375 565.421875 943.070312 566.914062 944.296875 570.019531 Z M 575.519531 605.167969 C 581.847656 617.511719 591.636719 634.992188 596.027344 643.550781 C 652.363281 626.179688 651.226562 612.6875 633.800781 579.3125 Z M 547.449219 614.835938 L 492.039062 641.050781 C 524.269531 691.089844 555.851562 739.699219 587.039062 788.546875 C 594.03125 799.492188 602.636719 805.207031 615.238281 799.613281 C 626.128906 794.777344 627.882812 783.710938 620.898438 768.832031 C 598.488281 721.085938 576.019531 673.34375 553.488281 625.601562 C 551.832031 622.066406 549.664062 618.78125 547.449219 614.890625 Z M 904.421875 14.726562 C 903.585938 13.28125 902.585938 11.960938 901.417969 10.769531 C 900.253906 9.574219 898.957031 8.546875 897.527344 7.683594 C 896.101562 6.816406 894.585938 6.144531 892.988281 5.660156 C 891.390625 5.179688 889.757812 4.902344 888.089844 4.835938 C 886.476562 4.820312 884.882812 5.003906 883.3125 5.386719 C 881.742188 5.773438 880.246094 6.34375 878.816406 7.105469 C 877.390625 7.867188 876.082031 8.789062 874.886719 9.878906 C 873.691406 10.96875 872.652344 12.1875 871.761719 13.535156 C 861.449219 28.253906 851.28125 43.148438 841.253906 58.226562 C 840.324219 59.519531 839.578125 60.914062 839.023438 62.40625 C 838.46875 63.902344 838.117188 65.441406 837.976562 67.027344 C 837.835938 68.617188 837.90625 70.195312 838.1875 71.761719 C 838.46875 73.332031 838.953125 74.835938 839.640625 76.273438 C 839.890625 76.792969 840.164062 77.296875 840.460938 77.792969 C 840.757812 78.285156 841.078125 78.761719 841.421875 79.222656 C 841.765625 79.6875 842.128906 80.128906 842.515625 80.558594 C 842.902344 80.984375 843.308594 81.390625 843.734375 81.777344 C 844.160156 82.164062 844.605469 82.53125 845.066406 82.875 C 845.527344 83.222656 846.003906 83.542969 846.496094 83.839844 C 846.988281 84.140625 847.496094 84.414062 848.011719 84.664062 C 848.53125 84.914062 849.0625 85.136719 849.601562 85.335938 C 850.144531 85.53125 850.691406 85.703125 851.25 85.851562 C 851.804688 85.996094 852.367188 86.113281 852.9375 86.203125 C 853.507812 86.296875 854.078125 86.359375 854.652344 86.394531 C 855.226562 86.429688 855.800781 86.4375 856.378906 86.417969 C 856.953125 86.398438 857.527344 86.351562 858.097656 86.273438 C 858.667969 86.199219 859.234375 86.097656 859.792969 85.964844 C 860.355469 85.835938 860.910156 85.679688 861.453125 85.496094 C 862 85.3125 862.535156 85.101562 863.058594 84.867188 C 866.011719 83.347656 868.445312 81.234375 870.367188 78.527344 C 880.570312 63.917969 891.421875 48.234375 901.625 32.550781 C 903.433594 29.308594 904.4375 25.835938 904.636719 22.128906 C 904.742188 20.949219 904.957031 19.765625 905.171875 18.585938 L 905.601562 16.4375 Z M 1063.519531 228.617188 C 1063.335938 226.953125 1062.949219 225.339844 1062.363281 223.777344 C 1061.773438 222.210938 1061 220.746094 1060.042969 219.375 C 1059.085938 218.003906 1057.972656 216.773438 1056.707031 215.683594 C 1055.441406 214.589844 1054.058594 213.675781 1052.5625 212.929688 C 1051.113281 212.246094 1049.605469 211.753906 1048.03125 211.457031 C 1046.460938 211.15625 1044.875 211.058594 1043.277344 211.160156 C 1041.679688 211.265625 1040.121094 211.566406 1038.601562 212.066406 C 1037.082031 212.566406 1035.644531 213.25 1034.300781 214.113281 C 1018.722656 223.246094 1003.253906 232.699219 987.890625 242.257812 C 986.523438 243.070312 985.28125 244.042969 984.167969 245.179688 C 983.054688 246.316406 982.105469 247.578125 981.324219 248.964844 C 980.539062 250.347656 979.949219 251.8125 979.550781 253.351562 C 979.152344 254.894531 978.960938 256.460938 978.972656 258.050781 C 979.101562 261.117188 979.925781 263.980469 981.445312 266.644531 C 982.214844 268.011719 983.152344 269.246094 984.261719 270.359375 C 985.367188 271.46875 986.601562 272.410156 987.960938 273.1875 C 989.324219 273.964844 990.765625 274.542969 992.285156 274.929688 C 993.804688 275.3125 995.347656 275.488281 996.914062 275.453125 C 1000.230469 275.40625 1003.273438 274.476562 1006.046875 272.660156 C 1021.515625 263.636719 1037.84375 253.859375 1053.636719 243.761719 C 1056.597656 241.539062 1058.925781 238.78125 1060.617188 235.492188 C 1061.261719 234.417969 1061.90625 233.449219 1062.445312 232.484375 L 1063.839844 230.765625 Z M 1123.25 514.480469 C 1122.726562 512.964844 1122.023438 511.542969 1121.144531 510.203125 C 1120.265625 508.867188 1119.234375 507.660156 1118.050781 506.582031 C 1116.871094 505.503906 1115.574219 504.585938 1114.160156 503.832031 C 1112.75 503.078125 1111.265625 502.507812 1109.714844 502.125 C 1092.417969 497.183594 1074.800781 492.671875 1057.289062 488.160156 C 1055.75 487.738281 1054.183594 487.519531 1052.589844 487.507812 C 1050.996094 487.496094 1049.425781 487.6875 1047.882812 488.082031 C 1046.335938 488.476562 1044.871094 489.0625 1043.476562 489.84375 C 1042.085938 490.621094 1040.816406 491.5625 1039.671875 492.671875 C 1037.570312 494.902344 1036.066406 497.480469 1035.160156 500.40625 C 1034.710938 501.910156 1034.46875 503.449219 1034.4375 505.019531 C 1034.40625 506.59375 1034.585938 508.140625 1034.972656 509.660156 C 1035.359375 511.183594 1035.945312 512.628906 1036.722656 513.992188 C 1037.503906 515.355469 1038.449219 516.59375 1039.5625 517.703125 C 1041.898438 520 1044.65625 521.539062 1047.835938 522.320312 C 1065.023438 527.15625 1083.5 532.203125 1101.65625 536.609375 C 1105.320312 537.167969 1108.933594 536.953125 1112.507812 535.964844 C 1113.6875 535.640625 1114.871094 535.425781 1115.945312 535.210938 L 1118.199219 534.996094 L 1119.488281 533.171875 C 1120.566406 531.898438 1121.46875 530.511719 1122.195312 529.011719 C 1122.921875 527.511719 1123.449219 525.945312 1123.777344 524.308594 C 1124.109375 522.675781 1124.226562 521.027344 1124.136719 519.359375 C 1124.046875 517.695312 1123.75 516.070312 1123.25 514.480469 Z M 454.257812 414.949219 C 424.617188 429.441406 395.496094 441.332031 368.789062 457.261719 C 366.472656 458.71875 364.226562 460.273438 362.046875 461.925781 C 359.871094 463.582031 357.769531 465.328125 355.746094 467.167969 C 353.722656 469.007812 351.785156 470.9375 349.933594 472.949219 C 348.082031 474.960938 346.324219 477.054688 344.660156 479.222656 C 342.992188 481.390625 341.425781 483.628906 339.957031 485.9375 C 338.492188 488.246094 337.128906 490.613281 335.871094 493.042969 C 334.617188 495.472656 333.46875 497.953125 332.433594 500.484375 C 331.394531 503.015625 330.472656 505.585938 329.664062 508.199219 C 328.855469 510.8125 328.167969 513.457031 327.59375 516.128906 C 327.019531 518.804688 326.566406 521.496094 326.230469 524.210938 C 325.898438 526.925781 325.683594 529.652344 325.59375 532.382812 C 325.5 535.117188 325.527344 537.851562 325.679688 540.582031 C 325.832031 543.3125 326.101562 546.03125 326.492188 548.738281 C 326.886719 551.445312 327.394531 554.128906 328.027344 556.789062 C 328.65625 559.449219 329.402344 562.078125 330.265625 564.671875 C 331.132812 567.269531 332.109375 569.820312 333.199219 572.328125 C 333.6875 573.605469 334.203125 574.871094 334.75 576.128906 C 335.296875 577.382812 335.871094 578.625 336.472656 579.851562 C 337.078125 581.082031 337.707031 582.296875 338.363281 583.496094 C 339.023438 584.695312 339.707031 585.878906 340.417969 587.046875 C 341.132812 588.214844 341.867188 589.367188 342.632812 590.503906 C 343.398438 591.640625 344.1875 592.757812 345 593.855469 C 345.816406 594.957031 346.65625 596.035156 347.519531 597.097656 C 348.382812 598.15625 349.269531 599.199219 350.183594 600.21875 C 351.09375 601.242188 352.027344 602.238281 352.984375 603.21875 C 353.941406 604.195312 354.917969 605.152344 355.921875 606.085938 C 356.921875 607.019531 357.941406 607.929688 358.984375 608.820312 C 360.023438 609.707031 361.085938 610.570312 362.167969 611.410156 C 363.246094 612.25 364.347656 613.0625 365.464844 613.851562 C 366.582031 614.640625 367.71875 615.40625 368.871094 616.140625 C 370.023438 616.878906 371.191406 617.589844 372.375 618.277344 C 373.5625 618.960938 374.761719 619.617188 375.976562 620.246094 C 377.191406 620.878906 378.417969 621.480469 379.660156 622.054688 C 380.902344 622.628906 382.15625 623.171875 383.425781 623.691406 C 384.691406 624.207031 385.96875 624.695312 387.257812 625.15625 C 388.546875 625.613281 389.847656 626.042969 391.15625 626.445312 C 392.464844 626.84375 393.78125 627.214844 395.105469 627.554688 C 396.429688 627.894531 397.765625 628.203125 399.105469 628.484375 C 400.441406 628.761719 401.789062 629.011719 403.140625 629.230469 C 404.488281 629.449219 405.84375 629.636719 407.203125 629.792969 C 408.5625 629.949219 409.925781 630.078125 411.292969 630.171875 C 412.65625 630.265625 414.023438 630.332031 415.390625 630.363281 C 416.757812 630.394531 418.128906 630.398438 419.496094 630.367188 C 420.863281 630.339844 422.230469 630.277344 423.59375 630.1875 C 424.960938 630.09375 426.324219 629.972656 427.683594 629.820312 C 429.042969 629.667969 430.398438 629.480469 431.75 629.265625 C 433.101562 629.050781 434.445312 628.804688 435.789062 628.53125 C 437.128906 628.253906 438.460938 627.945312 439.789062 627.609375 C 472.535156 616.234375 504.519531 603.015625 535.742188 587.949219 Z M 900.671875 312.796875 C 890.894531 293.457031 873.8125 287.207031 846.011719 294.789062 L 880.742188 368.441406 C 905.441406 350.597656 911.003906 333.207031 900.671875 312.796875 Z M 900.671875 312.796875 " fill-opacity="1" fill-rule="nonzero"/></svg>