<svg xmlns="http://www.w3.org/2000/svg" xmlns:xlink="http://www.w3.org/1999/xlink" width="1920" zoomAndPan="magnify" viewBox="0 0 1440 809.999993" height="1080" preserveAspectRatio="xMidYMid meet" version="1.0"><defs><clipPath id="62098a6abf"><path d="M 337.5625 5 L 1102.5625 5 L 1102.5625 805 L 337.5625 805 Z M 337.5625 5 " clip-rule="nonzero"/></clipPath></defs><rect x="-144" width="1728" fill="#ffffff" y="-80.999999" height="971.999992" fill-opacity="1"/><rect x="-144" width="1728" fill="#ffffff" y="-80.999999" height="971.999992" fill-opacity="1"/><g clip-path="url(#62098a6abf)"><path fill="#000173" d="M 964.269531 84.667969 L 927.089844 84.667969 L 927.089844 29.144531 C 927.089844 15.785156 916.222656 5.019531 902.964844 5.019531 C 889.609375 5.019531 878.84375 15.886719 878.84375 29.144531 L 878.84375 84.765625 L 547.296875 84.765625 L 547.296875 29.144531 C 547.296875 15.785156 536.429688 5.019531 523.171875 5.019531 C 509.8125 5.019531 499.046875 15.886719 499.046875 29.144531 L 499.046875 84.765625 L 475.621094 84.765625 C 399.363281 84.765625 337.5625 146.570312 337.5625 222.828125 L 337.5625 666.917969 C 337.5625 743.175781 399.363281 804.980469 475.621094 804.980469 L 964.269531 804.980469 C 1040.527344 804.980469 1102.332031 743.175781 1102.332031 666.917969 L 1102.332031 222.828125 C 1102.433594 146.570312 1040.527344 84.667969 964.269531 84.667969 Z M 878.742188 110.1875 L 878.742188 160.328125 C 878.742188 173.683594 889.609375 184.449219 902.867188 184.449219 C 916.222656 184.449219 926.988281 173.585938 926.988281 160.328125 L 926.988281 112.078125 C 942.441406 121.050781 952.90625 137.796875 952.90625 156.9375 C 952.90625 185.546875 929.679688 208.773438 901.070312 208.773438 C 872.460938 208.773438 849.238281 185.546875 849.238281 156.9375 C 849.4375 136.304688 861.398438 118.558594 878.742188 110.1875 Z M 498.949219 111.082031 L 498.949219 160.328125 C 498.949219 173.683594 509.8125 184.449219 523.074219 184.449219 C 536.429688 184.449219 547.195312 173.585938 547.195312 160.328125 L 547.195312 111.082031 C 563.644531 119.753906 574.808594 137 574.808594 156.835938 C 574.808594 185.445312 551.582031 208.671875 522.972656 208.671875 C 494.363281 208.671875 471.136719 185.445312 471.136719 156.835938 C 471.335938 137 482.601562 119.753906 498.949219 111.082031 Z M 1054.085938 666.816406 C 1054.085938 716.359375 1013.8125 756.535156 964.371094 756.535156 L 475.621094 756.535156 C 426.082031 756.535156 385.90625 716.261719 385.90625 666.816406 L 385.90625 298.988281 L 1054.085938 298.988281 Z M 1054.085938 666.816406 " fill-opacity="1" fill-rule="nonzero"/></g><path fill="#000173" d="M 547.992188 438.242188 L 481.105469 438.242188 C 475.722656 438.242188 471.335938 433.859375 471.335938 428.476562 L 471.335938 361.585938 C 471.335938 356.203125 475.722656 351.820312 481.105469 351.820312 L 547.992188 351.820312 C 553.375 351.820312 557.761719 356.203125 557.761719 361.585938 L 557.761719 428.476562 C 557.664062 433.859375 553.375 438.242188 547.992188 438.242188 Z M 547.992188 438.242188 " fill-opacity="1" fill-rule="nonzero"/><path fill="#000173" d="M 547.992188 575.410156 L 481.105469 575.410156 C 475.722656 575.410156 471.335938 571.023438 471.335938 565.640625 L 471.335938 498.753906 C 471.335938 493.367188 475.722656 488.984375 481.105469 488.984375 L 547.992188 488.984375 C 553.375 488.984375 557.761719 493.367188 557.761719 498.753906 L 557.761719 565.640625 C 557.664062 571.121094 553.375 575.410156 547.992188 575.410156 Z M 547.992188 575.410156 " fill-opacity="1" fill-rule="nonzero"/><path fill="#000173" d="M 547.992188 712.671875 L 481.105469 712.671875 C 475.722656 712.671875 471.335938 708.285156 471.335938 702.902344 L 471.335938 636.015625 C 471.335938 630.632812 475.722656 626.246094 481.105469 626.246094 L 547.992188 626.246094 C 553.375 626.246094 557.761719 630.632812 557.761719 636.015625 L 557.761719 703.003906 C 557.664062 708.285156 553.375 712.671875 547.992188 712.671875 Z M 547.992188 712.671875 " fill-opacity="1" fill-rule="nonzero"/><path fill="#000173" d="M 685.15625 438.242188 L 618.269531 438.242188 C 612.886719 438.242188 608.5 433.859375 608.5 428.476562 L 608.5 361.585938 C 608.5 356.203125 612.886719 351.820312 618.269531 351.820312 L 685.15625 351.820312 C 690.539062 351.820312 694.925781 356.203125 694.925781 361.585938 L 694.925781 428.476562 C 694.925781 433.859375 690.539062 438.242188 685.15625 438.242188 Z M 685.15625 438.242188 " fill-opacity="1" fill-rule="nonzero"/><path fill="#000173" d="M 685.15625 575.410156 L 618.269531 575.410156 C 612.886719 575.410156 608.5 571.023438 608.5 565.640625 L 608.5 498.753906 C 608.5 493.367188 612.886719 488.984375 618.269531 488.984375 L 685.15625 488.984375 C 690.539062 488.984375 694.925781 493.367188 694.925781 498.753906 L 694.925781 565.640625 C 694.925781 571.121094 690.539062 575.410156 685.15625 575.410156 Z M 685.15625 575.410156 " fill-opacity="1" fill-rule="nonzero"/><path fill="#000173" d="M 685.15625 712.671875 L 618.269531 712.671875 C 612.886719 712.671875 608.5 708.285156 608.5 702.902344 L 608.5 636.015625 C 608.5 630.632812 612.886719 626.246094 618.269531 626.246094 L 685.15625 626.246094 C 690.539062 626.246094 694.925781 630.632812 694.925781 636.015625 L 694.925781 703.003906 C 694.925781 708.285156 690.539062 712.671875 685.15625 712.671875 Z M 685.15625 712.671875 " fill-opacity="1" fill-rule="nonzero"/><path fill="#000173" d="M 822.421875 438.242188 L 755.535156 438.242188 C 750.152344 438.242188 745.765625 433.859375 745.765625 428.476562 L 745.765625 361.585938 C 745.765625 356.203125 750.152344 351.820312 755.535156 351.820312 L 822.421875 351.820312 C 827.804688 351.820312 832.191406 356.203125 832.191406 361.585938 L 832.191406 428.476562 C 832.089844 433.859375 827.804688 438.242188 822.421875 438.242188 Z M 822.421875 438.242188 " fill-opacity="1" fill-rule="nonzero"/><path fill="#000173" d="M 822.421875 575.410156 L 755.535156 575.410156 C 750.152344 575.410156 745.765625 571.023438 745.765625 565.640625 L 745.765625 498.753906 C 745.765625 493.367188 750.152344 488.984375 755.535156 488.984375 L 822.421875 488.984375 C 827.804688 488.984375 832.191406 493.367188 832.191406 498.753906 L 832.191406 565.640625 C 832.089844 571.121094 827.804688 575.410156 822.421875 575.410156 Z M 822.421875 575.410156 " fill-opacity="1" fill-rule="nonzero"/><path fill="#000173" d="M 822.421875 712.671875 L 755.535156 712.671875 C 750.152344 712.671875 745.765625 708.285156 745.765625 702.902344 L 745.765625 636.015625 C 745.765625 630.632812 750.152344 626.246094 755.535156 626.246094 L 822.421875 626.246094 C 827.804688 626.246094 832.191406 630.632812 832.191406 636.015625 L 832.191406 703.003906 C 832.089844 708.285156 827.804688 712.671875 822.421875 712.671875 Z M 822.421875 712.671875 " fill-opacity="1" fill-rule="nonzero"/><path fill="#000173" d="M 959.6875 438.242188 L 892.796875 438.242188 C 887.414062 438.242188 883.027344 433.859375 883.027344 428.476562 L 883.027344 361.585938 C 883.027344 356.203125 887.414062 351.820312 892.796875 351.820312 L 959.6875 351.820312 C 965.070312 351.820312 969.453125 356.203125 969.453125 361.585938 L 969.453125 428.476562 C 969.355469 433.859375 964.96875 438.242188 959.6875 438.242188 Z M 959.6875 438.242188 " fill-opacity="1" fill-rule="nonzero"/><path fill="#000173" d="M 959.6875 575.410156 L 892.796875 575.410156 C 887.414062 575.410156 883.027344 571.023438 883.027344 565.640625 L 883.027344 498.753906 C 883.027344 493.367188 887.414062 488.984375 892.796875 488.984375 L 959.6875 488.984375 C 965.070312 488.984375 969.453125 493.367188 969.453125 498.753906 L 969.453125 565.640625 C 969.355469 571.121094 964.96875 575.410156 959.6875 575.410156 Z M 959.6875 575.410156 " fill-opacity="1" fill-rule="nonzero"/></svg>