<svg xmlns="http://www.w3.org/2000/svg" xmlns:xlink="http://www.w3.org/1999/xlink" width="1920" zoomAndPan="magnify" viewBox="0 0 1440 809.999993" height="1080" preserveAspectRatio="xMidYMid meet" version="1.0"><defs><clipPath id="115cf29217"><path d="M 288.371094 7.363281 L 1151.621094 7.363281 L 1151.621094 802.363281 L 288.371094 802.363281 Z M 288.371094 7.363281 " clip-rule="nonzero"/></clipPath></defs><rect x="-144" width="1728" fill="#ffffff" y="-80.999999" height="971.999992" fill-opacity="1"/><rect x="-144" width="1728" fill="#ffffff" y="-80.999999" height="971.999992" fill-opacity="1"/><path fill="#000173" d="M 440.675781 283.621094 L 848.390625 283.621094 L 848.390625 190.71875 L 440.675781 190.71875 L 440.675781 283.621094 " fill-opacity="1" fill-rule="nonzero"/><g clip-path="url(#115cf29217)"><path fill="#000173" d="M 891.832031 305.339844 C 891.832031 317.335938 882.105469 327.058594 870.113281 327.058594 L 418.957031 327.058594 C 406.96875 327.058594 397.234375 317.335938 397.234375 305.339844 L 397.234375 169 C 397.234375 157.007812 406.96875 147.28125 418.957031 147.28125 L 870.113281 147.28125 C 882.105469 147.28125 891.832031 157.007812 891.832031 169 Z M 870.113281 426.714844 L 775.832031 426.714844 C 763.839844 426.714844 754.113281 416.980469 754.113281 404.996094 C 754.113281 393.003906 763.839844 383.277344 775.832031 383.277344 L 870.113281 383.277344 C 882.105469 383.277344 891.832031 393.003906 891.832031 404.996094 C 891.832031 416.980469 882.105469 426.714844 870.113281 426.714844 Z M 870.113281 523.1875 L 775.832031 523.1875 C 763.839844 523.1875 754.113281 513.457031 754.113281 501.46875 C 754.113281 489.476562 763.839844 479.75 775.832031 479.75 L 870.113281 479.75 C 882.105469 479.75 891.832031 489.476562 891.832031 501.46875 C 891.832031 513.457031 882.105469 523.1875 870.113281 523.1875 Z M 870.113281 619.664062 L 775.832031 619.664062 C 763.839844 619.664062 754.113281 609.929688 754.113281 597.941406 C 754.113281 585.949219 763.839844 576.222656 775.832031 576.222656 L 870.113281 576.222656 C 882.105469 576.222656 891.832031 585.949219 891.832031 597.941406 C 891.832031 609.929688 882.105469 619.664062 870.113281 619.664062 Z M 680.195312 426.714844 L 418.957031 426.714844 C 406.96875 426.714844 397.234375 416.980469 397.234375 404.996094 C 397.234375 393.003906 406.96875 383.277344 418.957031 383.277344 L 680.195312 383.277344 C 692.1875 383.277344 701.914062 393.003906 701.914062 404.996094 C 701.914062 416.980469 692.1875 426.714844 680.195312 426.714844 Z M 680.195312 523.1875 L 418.957031 523.1875 C 406.96875 523.1875 397.234375 513.457031 397.234375 501.46875 C 397.234375 489.476562 406.96875 479.75 418.957031 479.75 L 680.195312 479.75 C 692.1875 479.75 701.914062 489.476562 701.914062 501.46875 C 701.914062 513.457031 692.1875 523.1875 680.195312 523.1875 Z M 680.195312 619.664062 L 418.957031 619.664062 C 406.96875 619.664062 397.234375 609.929688 397.234375 597.941406 C 397.234375 585.949219 406.96875 576.222656 418.957031 576.222656 L 680.195312 576.222656 C 692.1875 576.222656 701.914062 585.949219 701.914062 597.941406 C 701.914062 609.929688 692.1875 619.664062 680.195312 619.664062 Z M 1151.480469 684.082031 C 1151.480469 683.945312 1151.554688 683.832031 1151.554688 683.695312 L 1151.554688 26.359375 C 1151.554688 15.96875 1143.132812 7.539062 1132.726562 7.539062 C 1122.3125 7.539062 1113.890625 15.96875 1113.890625 26.359375 L 1113.890625 665.707031 L 1076.972656 665.707031 L 1076.972656 26.359375 C 1076.972656 15.96875 1068.539062 7.539062 1058.132812 7.539062 C 1047.726562 7.539062 1039.296875 15.96875 1039.296875 26.359375 L 1039.296875 658.4375 C 1016.03125 647.074219 999.828125 623.386719 999.828125 595.789062 L 999.828125 26.359375 C 999.828125 15.96875 991.398438 7.539062 980.992188 7.539062 L 307.257812 7.539062 C 296.851562 7.539062 288.421875 15.96875 288.421875 26.359375 L 288.421875 694.894531 C 288.421875 754.207031 336.695312 802.453125 395.996094 802.453125 L 1043.996094 802.453125 C 1103.296875 802.453125 1151.570312 754.207031 1151.570312 694.894531 L 1151.570312 684.527344 C 1151.570312 684.375 1151.480469 684.238281 1151.480469 684.082031 " fill-opacity="1" fill-rule="nonzero"/></g></svg>