<svg xmlns="http://www.w3.org/2000/svg" xmlns:xlink="http://www.w3.org/1999/xlink" width="1920" zoomAndPan="magnify" viewBox="0 0 1440 809.999993" height="1080" preserveAspectRatio="xMidYMid meet" version="1.0"><defs><clipPath id="8696919501"><path d="M 531.757812 7 L 908.257812 7 L 908.257812 803 L 531.757812 803 Z M 531.757812 7 " clip-rule="nonzero"/></clipPath></defs><g clip-path="url(#8696919501)"><path fill="#ffffff" d="M 821.398438 138.769531 L 908.257812 138.769531 L 908.257812 7.8125 L 797.347656 7.8125 L 797.347656 8.3125 C 651.523438 13.65625 621.457031 95.339844 618.949219 181.699219 L 618.617188 181.699219 L 618.617188 272.570312 L 531.757812 272.570312 L 531.757812 403.699219 L 618.617188 403.699219 L 618.617188 802.257812 L 774.460938 802.257812 L 774.460938 403.699219 L 886.210938 403.699219 L 908.257812 272.570312 L 774.460938 272.570312 L 774.460938 191.222656 C 774.460938 162.324219 793.839844 138.769531 821.398438 138.769531 Z M 821.398438 138.769531 " fill-opacity="1" fill-rule="nonzero"/></g></svg>