<svg xmlns="http://www.w3.org/2000/svg" xmlns:xlink="http://www.w3.org/1999/xlink" width="1920" zoomAndPan="magnify" viewBox="0 0 1440 809.999993" height="1080" preserveAspectRatio="xMidYMid meet" version="1.0"><defs><clipPath id="dcc7795fce"><path d="M 393 204 L 1049 204 L 1049 796.609375 L 393 796.609375 Z M 393 204 " clip-rule="nonzero"/></clipPath></defs><path fill="#000173" d="M 1114.535156 288.535156 L 981.953125 191.011719 L 981.953125 74.679688 C 981.953125 56.441406 967.148438 41.6875 948.9375 41.6875 L 895.28125 41.6875 C 877.039062 41.6875 862.261719 56.464844 862.261719 74.679688 L 862.261719 102.941406 L 761.175781 28.589844 C 739.242188 12.417969 703.332031 12.417969 681.398438 28.589844 L 328.039062 288.535156 C 306.105469 304.683594 301.375 335.863281 317.523438 357.824219 L 327.289062 371.074219 C 343.410156 393.035156 374.589844 397.789062 396.496094 381.640625 L 681.398438 171.972656 C 703.332031 155.824219 739.242188 155.824219 761.175781 171.972656 L 1046.046875 381.640625 C 1067.980469 397.789062 1099.136719 393.007812 1115.257812 371.074219 L 1125.050781 357.824219 C 1141.167969 335.863281 1136.441406 304.683594 1114.535156 288.535156 Z M 1114.535156 288.535156 " fill-opacity="1" fill-rule="nonzero"/><g clip-path="url(#dcc7795fce)"><path fill="#000173" d="M 1008.820312 399.882812 L 761.097656 216.792969 C 739.1875 200.597656 703.382812 200.597656 681.476562 216.792969 L 433.75 399.882812 C 411.84375 416.078125 393.914062 439.769531 393.914062 452.609375 L 393.914062 718.054688 C 393.914062 761.148438 430.859375 796.101562 476.453125 796.101562 L 627.738281 796.101562 L 627.738281 561.292969 C 627.738281 543.15625 642.59375 528.328125 660.730469 528.328125 L 781.789062 528.328125 C 799.925781 528.328125 814.78125 543.15625 814.78125 561.292969 L 814.78125 796.101562 L 966.089844 796.101562 C 1011.664062 796.101562 1048.578125 761.148438 1048.578125 718.054688 L 1048.578125 452.609375 C 1048.605469 439.769531 1030.726562 416.078125 1008.820312 399.882812 Z M 1008.820312 399.882812 " fill-opacity="1" fill-rule="nonzero"/></g></svg>