<svg xmlns="http://www.w3.org/2000/svg" xmlns:xlink="http://www.w3.org/1999/xlink" width="1920" zoomAndPan="magnify" viewBox="0 0 1440 809.999993" height="1080" preserveAspectRatio="xMidYMid meet" version="1.0"><defs><clipPath id="417cedfb6e"><path d="M 318.886719 3.886719 L 866 3.886719 L 866 806.386719 L 318.886719 806.386719 Z M 318.886719 3.886719 " clip-rule="nonzero"/></clipPath><clipPath id="a6116cb485"><path d="M 938 259 L 1121.386719 259 L 1121.386719 551 L 938 551 Z M 938 259 " clip-rule="nonzero"/></clipPath></defs><g clip-path="url(#417cedfb6e)"><path fill="#000173" d="M 756.460938 806.105469 L 428.28125 806.105469 C 426.488281 806.105469 424.699219 806.0625 422.910156 805.972656 C 421.125 805.886719 419.339844 805.753906 417.558594 805.578125 C 415.777344 805.402344 414 805.183594 412.226562 804.921875 C 410.457031 804.65625 408.695312 804.351562 406.9375 804.003906 C 405.183594 803.652344 403.4375 803.261719 401.699219 802.828125 C 399.960938 802.390625 398.238281 801.914062 396.523438 801.394531 C 394.8125 800.875 393.113281 800.3125 391.425781 799.710938 C 389.738281 799.105469 388.070312 798.460938 386.417969 797.777344 C 384.761719 797.09375 383.125 796.367188 381.507812 795.601562 C 379.890625 794.835938 378.289062 794.03125 376.710938 793.1875 C 375.132812 792.34375 373.574219 791.460938 372.039062 790.542969 C 370.503906 789.621094 368.992188 788.664062 367.503906 787.667969 C 366.015625 786.671875 364.550781 785.644531 363.113281 784.578125 C 361.675781 783.511719 360.265625 782.410156 358.882812 781.273438 C 357.496094 780.136719 356.140625 778.96875 354.816406 777.765625 C 353.488281 776.5625 352.191406 775.328125 350.925781 774.0625 C 349.660156 772.796875 348.425781 771.5 347.222656 770.175781 C 346.023438 768.847656 344.851562 767.492188 343.71875 766.109375 C 342.582031 764.726562 341.480469 763.316406 340.414062 761.875 C 339.347656 760.4375 338.316406 758.976562 337.320312 757.488281 C 336.328125 756 335.371094 754.484375 334.449219 752.949219 C 333.527344 751.414062 332.648438 749.859375 331.804688 748.277344 C 330.960938 746.699219 330.15625 745.101562 329.390625 743.484375 C 328.625 741.863281 327.898438 740.226562 327.214844 738.574219 C 326.527344 736.921875 325.882812 735.25 325.28125 733.566406 C 324.675781 731.878906 324.117188 730.179688 323.597656 728.464844 C 323.078125 726.753906 322.597656 725.027344 322.164062 723.292969 C 321.730469 721.554688 321.335938 719.808594 320.988281 718.054688 C 320.636719 716.296875 320.332031 714.535156 320.070312 712.761719 C 319.808594 710.992188 319.589844 709.214844 319.414062 707.433594 C 319.238281 705.652344 319.105469 703.867188 319.019531 702.078125 C 318.929688 700.289062 318.886719 698.5 318.886719 696.710938 L 318.886719 113.28125 C 318.886719 111.488281 318.929688 109.699219 319.019531 107.910156 C 319.105469 106.125 319.238281 104.339844 319.414062 102.558594 C 319.589844 100.777344 319.808594 99 320.070312 97.226562 C 320.332031 95.457031 320.640625 93.695312 320.988281 91.9375 C 321.335938 90.183594 321.730469 88.4375 322.164062 86.699219 C 322.597656 84.960938 323.078125 83.238281 323.597656 81.523438 C 324.117188 79.8125 324.675781 78.113281 325.28125 76.425781 C 325.882812 74.742188 326.527344 73.070312 327.214844 71.417969 C 327.898438 69.761719 328.625 68.125 329.390625 66.507812 C 330.15625 64.890625 330.960938 63.289062 331.804688 61.710938 C 332.648438 60.132812 333.527344 58.574219 334.449219 57.039062 C 335.371094 55.503906 336.328125 53.992188 337.320312 52.503906 C 338.316406 51.015625 339.347656 49.550781 340.414062 48.113281 C 341.480469 46.675781 342.582031 45.265625 343.71875 43.882812 C 344.851562 42.496094 346.023438 41.140625 347.222656 39.816406 C 348.425781 38.488281 349.660156 37.191406 350.925781 35.925781 C 352.191406 34.660156 353.488281 33.425781 354.816406 32.222656 C 356.140625 31.023438 357.496094 29.851562 358.882812 28.71875 C 360.265625 27.582031 361.675781 26.480469 363.113281 25.414062 C 364.550781 24.347656 366.015625 23.316406 367.503906 22.320312 C 368.992188 21.328125 370.503906 20.371094 372.039062 19.449219 C 373.574219 18.527344 375.132812 17.648438 376.710938 16.804688 C 378.289062 15.960938 379.890625 15.15625 381.507812 14.390625 C 383.125 13.625 384.761719 12.898438 386.417969 12.214844 C 388.070312 11.527344 389.742188 10.882812 391.425781 10.28125 C 393.113281 9.675781 394.8125 9.117188 396.523438 8.597656 C 398.238281 8.078125 399.960938 7.597656 401.699219 7.164062 C 403.4375 6.730469 405.183594 6.335938 406.9375 5.988281 C 408.695312 5.640625 410.457031 5.332031 412.226562 5.070312 C 414 4.808594 415.777344 4.589844 417.558594 4.414062 C 419.339844 4.238281 421.125 4.105469 422.910156 4.019531 C 424.699219 3.929688 426.488281 3.886719 428.28125 3.886719 L 756.460938 3.886719 C 758.25 3.886719 760.039062 3.929688 761.828125 4.019531 C 763.617188 4.105469 765.402344 4.238281 767.183594 4.414062 C 768.964844 4.589844 770.742188 4.808594 772.511719 5.070312 C 774.28125 5.332031 776.046875 5.640625 777.800781 5.988281 C 779.558594 6.335938 781.304688 6.730469 783.039062 7.164062 C 784.777344 7.597656 786.503906 8.078125 788.214844 8.597656 C 789.929688 9.117188 791.628906 9.675781 793.3125 10.28125 C 795 10.882812 796.667969 11.527344 798.324219 12.214844 C 799.976562 12.898438 801.613281 13.625 803.230469 14.390625 C 804.851562 15.15625 806.449219 15.960938 808.027344 16.804688 C 809.605469 17.648438 811.164062 18.527344 812.699219 19.449219 C 814.234375 20.371094 815.746094 21.328125 817.234375 22.320312 C 818.722656 23.316406 820.1875 24.347656 821.625 25.414062 C 823.0625 26.480469 824.472656 27.582031 825.859375 28.71875 C 827.242188 29.851562 828.597656 31.023438 829.925781 32.222656 C 831.25 33.425781 832.546875 34.660156 833.8125 35.925781 C 835.078125 37.191406 836.3125 38.488281 837.515625 39.816406 C 838.71875 41.140625 839.886719 42.496094 841.023438 43.882812 C 842.15625 45.265625 843.257812 46.675781 844.324219 48.113281 C 845.390625 49.550781 846.421875 51.015625 847.417969 52.503906 C 848.410156 53.992188 849.371094 55.503906 850.289062 57.039062 C 851.210938 58.574219 852.09375 60.132812 852.9375 61.710938 C 853.78125 63.289062 854.585938 64.890625 855.351562 66.507812 C 856.117188 68.125 856.839844 69.761719 857.527344 71.417969 C 858.210938 73.070312 858.855469 74.738281 859.457031 76.425781 C 860.0625 78.113281 860.625 79.8125 861.144531 81.523438 C 861.664062 83.238281 862.140625 84.960938 862.574219 86.699219 C 863.011719 88.4375 863.402344 90.183594 863.75 91.9375 C 864.101562 93.695312 864.40625 95.457031 864.667969 97.226562 C 864.933594 99 865.152344 100.773438 865.328125 102.558594 C 865.503906 104.339844 865.632812 106.125 865.722656 107.910156 C 865.808594 109.699219 865.851562 111.488281 865.851562 113.28125 L 865.851562 240.90625 C 865.851562 242.097656 865.792969 243.289062 865.679688 244.480469 C 865.5625 245.667969 865.386719 246.847656 865.152344 248.019531 C 864.917969 249.191406 864.628906 250.347656 864.285156 251.492188 C 863.9375 252.632812 863.535156 253.757812 863.078125 254.859375 C 862.621094 255.964844 862.109375 257.042969 861.546875 258.09375 C 860.984375 259.148438 860.371094 260.171875 859.707031 261.164062 C 859.042969 262.15625 858.332031 263.113281 857.578125 264.039062 C 856.820312 264.960938 856.019531 265.84375 855.171875 266.691406 C 854.328125 267.535156 853.445312 268.335938 852.523438 269.09375 C 851.597656 269.851562 850.640625 270.5625 849.648438 271.222656 C 848.65625 271.886719 847.632812 272.5 846.578125 273.0625 C 845.523438 273.628906 844.445312 274.136719 843.34375 274.59375 C 842.238281 275.050781 841.117188 275.453125 839.972656 275.800781 C 838.832031 276.144531 837.675781 276.4375 836.503906 276.667969 C 835.332031 276.902344 834.152344 277.078125 832.964844 277.195312 C 831.773438 277.3125 830.582031 277.371094 829.390625 277.371094 C 828.195312 277.371094 827.003906 277.3125 825.816406 277.195312 C 824.625 277.078125 823.445312 276.902344 822.273438 276.667969 C 821.105469 276.4375 819.945312 276.144531 818.804688 275.800781 C 817.660156 275.453125 816.539062 275.050781 815.433594 274.59375 C 814.332031 274.136719 813.253906 273.628906 812.199219 273.0625 C 811.144531 272.5 810.125 271.886719 809.128906 271.222656 C 808.136719 270.5625 807.179688 269.851562 806.257812 269.09375 C 805.332031 268.335938 804.449219 267.535156 803.605469 266.691406 C 802.761719 265.84375 801.960938 264.960938 801.203125 264.039062 C 800.445312 263.113281 799.734375 262.15625 799.070312 261.164062 C 798.40625 260.171875 797.792969 259.148438 797.230469 258.09375 C 796.667969 257.042969 796.15625 255.964844 795.699219 254.859375 C 795.242188 253.757812 794.839844 252.632812 794.496094 251.492188 C 794.148438 250.347656 793.859375 249.191406 793.625 248.019531 C 793.390625 246.847656 793.21875 245.667969 793.101562 244.480469 C 792.984375 243.289062 792.925781 242.097656 792.925781 240.90625 L 792.925781 113.28125 C 792.925781 112.085938 792.867188 110.894531 792.75 109.707031 C 792.632812 108.515625 792.457031 107.335938 792.222656 106.164062 C 791.992188 104.996094 791.699219 103.835938 791.355469 102.695312 C 791.007812 101.550781 790.605469 100.429688 790.148438 99.324219 C 789.691406 98.222656 789.183594 97.144531 788.617188 96.089844 C 788.054688 95.035156 787.441406 94.015625 786.777344 93.019531 C 786.117188 92.027344 785.40625 91.070312 784.648438 90.148438 C 783.890625 89.222656 783.089844 88.339844 782.246094 87.496094 C 781.398438 86.652344 780.515625 85.851562 779.59375 85.09375 C 778.667969 84.335938 777.710938 83.625 776.71875 82.960938 C 775.726562 82.296875 774.703125 81.683594 773.648438 81.121094 C 772.597656 80.558594 771.515625 80.046875 770.414062 79.589844 C 769.3125 79.132812 768.1875 78.730469 767.046875 78.386719 C 765.902344 78.039062 764.746094 77.75 763.574219 77.515625 C 762.402344 77.28125 761.222656 77.109375 760.035156 76.992188 C 758.84375 76.875 757.652344 76.816406 756.460938 76.816406 L 428.28125 76.816406 C 427.085938 76.816406 425.894531 76.875 424.707031 76.992188 C 423.515625 77.109375 422.335938 77.28125 421.164062 77.515625 C 419.996094 77.75 418.835938 78.039062 417.695312 78.386719 C 416.550781 78.730469 415.429688 79.132812 414.324219 79.589844 C 413.222656 80.046875 412.144531 80.558594 411.089844 81.121094 C 410.039062 81.683594 409.015625 82.296875 408.019531 82.960938 C 407.027344 83.625 406.070312 84.335938 405.148438 85.09375 C 404.222656 85.851562 403.339844 86.652344 402.496094 87.496094 C 401.652344 88.339844 400.851562 89.222656 400.09375 90.148438 C 399.335938 91.070312 398.625 92.027344 397.960938 93.019531 C 397.296875 94.015625 396.683594 95.035156 396.121094 96.089844 C 395.558594 97.144531 395.046875 98.222656 394.589844 99.324219 C 394.132812 100.429688 393.730469 101.550781 393.386719 102.695312 C 393.039062 103.835938 392.75 104.996094 392.515625 106.164062 C 392.28125 107.335938 392.109375 108.515625 391.992188 109.707031 C 391.875 110.894531 391.816406 112.085938 391.816406 113.28125 L 391.816406 696.710938 C 391.816406 697.90625 391.875 699.097656 391.992188 700.285156 C 392.109375 701.472656 392.28125 702.652344 392.515625 703.824219 C 392.75 704.996094 393.039062 706.152344 393.386719 707.296875 C 393.730469 708.4375 394.132812 709.5625 394.589844 710.664062 C 395.046875 711.769531 395.558594 712.847656 396.121094 713.902344 C 396.683594 714.953125 397.296875 715.976562 397.960938 716.96875 C 398.625 717.964844 399.335938 718.921875 400.09375 719.84375 C 400.851562 720.765625 401.652344 721.652344 402.496094 722.496094 C 403.339844 723.339844 404.222656 724.140625 405.148438 724.898438 C 406.070312 725.65625 407.027344 726.367188 408.019531 727.03125 C 409.015625 727.695312 410.035156 728.308594 411.089844 728.871094 C 412.144531 729.433594 413.222656 729.941406 414.324219 730.398438 C 415.429688 730.855469 416.550781 731.257812 417.695312 731.605469 C 418.835938 731.953125 419.996094 732.242188 421.164062 732.476562 C 422.335938 732.707031 423.515625 732.882812 424.707031 733 C 425.894531 733.117188 427.085938 733.175781 428.28125 733.175781 L 756.460938 733.175781 C 757.652344 733.175781 758.84375 733.117188 760.035156 733 C 761.222656 732.882812 762.402344 732.707031 763.574219 732.476562 C 764.746094 732.242188 765.902344 731.953125 767.046875 731.605469 C 768.1875 731.257812 769.3125 730.855469 770.414062 730.398438 C 771.519531 729.941406 772.597656 729.433594 773.648438 728.871094 C 774.703125 728.308594 775.726562 727.695312 776.71875 727.03125 C 777.710938 726.367188 778.667969 725.65625 779.59375 724.898438 C 780.515625 724.140625 781.398438 723.339844 782.246094 722.496094 C 783.089844 721.652344 783.890625 720.765625 784.648438 719.84375 C 785.40625 718.921875 786.117188 717.960938 786.777344 716.96875 C 787.441406 715.976562 788.054688 714.953125 788.617188 713.902344 C 789.183594 712.847656 789.691406 711.769531 790.148438 710.664062 C 790.605469 709.5625 791.007812 708.4375 791.355469 707.296875 C 791.699219 706.152344 791.992188 704.996094 792.222656 703.824219 C 792.457031 702.652344 792.632812 701.472656 792.75 700.285156 C 792.867188 699.097656 792.925781 697.90625 792.925781 696.710938 L 792.925781 569.085938 C 792.925781 567.890625 792.984375 566.699219 793.101562 565.511719 C 793.21875 564.324219 793.390625 563.144531 793.625 561.972656 C 793.859375 560.800781 794.148438 559.644531 794.496094 558.5 C 794.839844 557.359375 795.242188 556.234375 795.699219 555.132812 C 796.15625 554.027344 796.667969 552.949219 797.230469 551.894531 C 797.792969 550.84375 798.40625 549.820312 799.070312 548.828125 C 799.734375 547.835938 800.445312 546.875 801.203125 545.953125 C 801.960938 545.03125 802.761719 544.144531 803.605469 543.300781 C 804.449219 542.457031 805.332031 541.65625 806.257812 540.898438 C 807.179688 540.140625 808.136719 539.429688 809.128906 538.765625 C 810.125 538.101562 811.144531 537.488281 812.199219 536.925781 C 813.253906 536.363281 814.332031 535.855469 815.433594 535.398438 C 816.539062 534.941406 817.660156 534.539062 818.804688 534.191406 C 819.945312 533.84375 821.105469 533.554688 822.273438 533.320312 C 823.445312 533.089844 824.625 532.914062 825.816406 532.796875 C 827.003906 532.679688 828.195312 532.621094 829.390625 532.621094 C 830.582031 532.621094 831.773438 532.679688 832.964844 532.796875 C 834.152344 532.914062 835.332031 533.089844 836.503906 533.320312 C 837.675781 533.554688 838.832031 533.84375 839.972656 534.191406 C 841.117188 534.539062 842.238281 534.941406 843.34375 535.398438 C 844.445312 535.855469 845.523438 536.363281 846.578125 536.925781 C 847.632812 537.488281 848.65625 538.101562 849.648438 538.765625 C 850.640625 539.429688 851.597656 540.140625 852.523438 540.898438 C 853.445312 541.65625 854.328125 542.457031 855.171875 543.300781 C 856.019531 544.144531 856.820312 545.03125 857.578125 545.953125 C 858.332031 546.875 859.042969 547.835938 859.707031 548.828125 C 860.371094 549.820312 860.984375 550.84375 861.546875 551.894531 C 862.109375 552.949219 862.621094 554.027344 863.078125 555.132812 C 863.535156 556.234375 863.9375 557.359375 864.285156 558.5 C 864.628906 559.644531 864.917969 560.800781 865.152344 561.972656 C 865.386719 563.144531 865.5625 564.324219 865.679688 565.511719 C 865.792969 566.699219 865.851562 567.890625 865.851562 569.085938 L 865.851562 696.710938 C 865.851562 698.5 865.808594 700.289062 865.722656 702.078125 C 865.632812 703.867188 865.503906 705.652344 865.328125 707.433594 C 865.152344 709.214844 864.933594 710.992188 864.667969 712.761719 C 864.40625 714.535156 864.101562 716.296875 863.75 718.054688 C 863.402344 719.808594 863.011719 721.554688 862.574219 723.292969 C 862.140625 725.027344 861.664062 726.753906 861.144531 728.464844 C 860.625 730.179688 860.0625 731.878906 859.457031 733.566406 C 858.855469 735.25 858.210938 736.921875 857.527344 738.574219 C 856.839844 740.226562 856.117188 741.863281 855.351562 743.484375 C 854.585938 745.101562 853.78125 746.699219 852.9375 748.277344 C 852.09375 749.859375 851.210938 751.414062 850.289062 752.949219 C 849.371094 754.484375 848.410156 756 847.417969 757.488281 C 846.421875 758.976562 845.390625 760.4375 844.324219 761.875 C 843.257812 763.316406 842.15625 764.726562 841.023438 766.109375 C 839.886719 767.492188 838.71875 768.847656 837.515625 770.175781 C 836.3125 771.5 835.078125 772.796875 833.8125 774.0625 C 832.546875 775.328125 831.25 776.5625 829.925781 777.765625 C 828.597656 778.96875 827.242188 780.136719 825.859375 781.273438 C 824.472656 782.410156 823.0625 783.511719 821.625 784.578125 C 820.1875 785.644531 818.722656 786.671875 817.234375 787.667969 C 815.746094 788.664062 814.234375 789.621094 812.699219 790.542969 C 811.164062 791.460938 809.605469 792.34375 808.027344 793.1875 C 806.449219 794.03125 804.851562 794.835938 803.230469 795.601562 C 801.613281 796.367188 799.976562 797.09375 798.324219 797.777344 C 796.667969 798.460938 795 799.105469 793.3125 799.710938 C 791.628906 800.3125 789.929688 800.875 788.214844 801.394531 C 786.5 801.914062 784.777344 802.390625 783.039062 802.828125 C 781.304688 803.261719 779.558594 803.652344 777.800781 804.003906 C 776.046875 804.351562 774.28125 804.65625 772.511719 804.921875 C 770.742188 805.183594 768.964844 805.402344 767.183594 805.578125 C 765.402344 805.753906 763.617188 805.886719 761.828125 805.972656 C 760.039062 806.0625 758.25 806.105469 756.460938 806.105469 Z M 756.460938 806.105469 " fill-opacity="1" fill-rule="nonzero"/></g><path fill="#000173" d="M 1066.40625 441.460938 L 589.089844 441.460938 C 587.894531 441.460938 586.703125 441.402344 585.515625 441.285156 C 584.324219 441.167969 583.144531 440.992188 581.972656 440.757812 C 580.804688 440.527344 579.644531 440.238281 578.503906 439.890625 C 577.359375 439.542969 576.238281 439.140625 575.132812 438.683594 C 574.03125 438.226562 572.953125 437.71875 571.898438 437.152344 C 570.84375 436.589844 569.824219 435.976562 568.828125 435.3125 C 567.835938 434.652344 566.878906 433.941406 565.957031 433.183594 C 565.03125 432.425781 564.148438 431.625 563.304688 430.78125 C 562.460938 429.933594 561.65625 429.050781 560.902344 428.128906 C 560.144531 427.203125 559.433594 426.246094 558.769531 425.253906 C 558.105469 424.261719 557.492188 423.238281 556.929688 422.183594 C 556.367188 421.132812 555.855469 420.054688 555.398438 418.949219 C 554.941406 417.847656 554.539062 416.722656 554.195312 415.582031 C 553.847656 414.4375 553.558594 413.28125 553.324219 412.109375 C 553.089844 410.9375 552.917969 409.757812 552.800781 408.570312 C 552.683594 407.382812 552.625 406.191406 552.625 404.996094 C 552.625 403.800781 552.683594 402.609375 552.800781 401.421875 C 552.917969 400.234375 553.089844 399.054688 553.324219 397.882812 C 553.558594 396.710938 553.847656 395.554688 554.195312 394.410156 C 554.539062 393.265625 554.941406 392.144531 555.398438 391.039062 C 555.855469 389.9375 556.367188 388.859375 556.929688 387.804688 C 557.492188 386.753906 558.105469 385.730469 558.769531 384.738281 C 559.433594 383.742188 560.144531 382.785156 560.902344 381.863281 C 561.65625 380.9375 562.460938 380.054688 563.304688 379.210938 C 564.148438 378.367188 565.03125 377.566406 565.957031 376.808594 C 566.878906 376.050781 567.835938 375.339844 568.828125 374.675781 C 569.824219 374.011719 570.84375 373.398438 571.898438 372.835938 C 572.953125 372.273438 574.03125 371.761719 575.132812 371.304688 C 576.238281 370.847656 577.359375 370.449219 578.503906 370.101562 C 579.644531 369.753906 580.804688 369.464844 581.972656 369.230469 C 583.144531 369 584.324219 368.824219 585.515625 368.707031 C 586.703125 368.589844 587.894531 368.53125 589.089844 368.53125 L 1066.40625 368.53125 C 1067.601562 368.53125 1068.792969 368.589844 1069.980469 368.707031 C 1071.171875 368.824219 1072.351562 369 1073.523438 369.230469 C 1074.691406 369.464844 1075.851562 369.753906 1076.992188 370.101562 C 1078.136719 370.449219 1079.257812 370.847656 1080.363281 371.304688 C 1081.464844 371.761719 1082.542969 372.273438 1083.597656 372.835938 C 1084.652344 373.398438 1085.671875 374.011719 1086.667969 374.675781 C 1087.660156 375.339844 1088.617188 376.050781 1089.539062 376.808594 C 1090.464844 377.566406 1091.347656 378.367188 1092.191406 379.210938 C 1093.035156 380.054688 1093.835938 380.9375 1094.59375 381.863281 C 1095.351562 382.785156 1096.0625 383.742188 1096.726562 384.738281 C 1097.390625 385.730469 1098.003906 386.753906 1098.566406 387.804688 C 1099.128906 388.859375 1099.640625 389.9375 1100.097656 391.039062 C 1100.554688 392.144531 1100.957031 393.265625 1101.300781 394.410156 C 1101.648438 395.554688 1101.9375 396.710938 1102.171875 397.882812 C 1102.40625 399.054688 1102.578125 400.234375 1102.695312 401.421875 C 1102.8125 402.609375 1102.871094 403.800781 1102.871094 404.996094 C 1102.871094 406.191406 1102.8125 407.382812 1102.695312 408.570312 C 1102.578125 409.757812 1102.40625 410.9375 1102.171875 412.109375 C 1101.9375 413.28125 1101.648438 414.4375 1101.300781 415.582031 C 1100.957031 416.722656 1100.554688 417.847656 1100.097656 418.949219 C 1099.640625 420.054688 1099.128906 421.132812 1098.566406 422.183594 C 1098.003906 423.238281 1097.390625 424.261719 1096.726562 425.253906 C 1096.0625 426.246094 1095.351562 427.203125 1094.59375 428.128906 C 1093.835938 429.050781 1093.035156 429.933594 1092.191406 430.78125 C 1091.347656 431.625 1090.464844 432.425781 1089.539062 433.183594 C 1088.617188 433.941406 1087.660156 434.652344 1086.667969 435.3125 C 1085.671875 435.976562 1084.648438 436.589844 1083.597656 437.152344 C 1082.542969 437.71875 1081.464844 438.226562 1080.363281 438.683594 C 1079.257812 439.140625 1078.136719 439.542969 1076.992188 439.890625 C 1075.851562 440.238281 1074.691406 440.527344 1073.523438 440.757812 C 1072.351562 440.992188 1071.171875 441.167969 1069.980469 441.285156 C 1068.792969 441.402344 1067.601562 441.460938 1066.40625 441.460938 Z M 1066.40625 441.460938 " fill-opacity="1" fill-rule="nonzero"/><g clip-path="url(#a6116cb485)"><path fill="#000173" d="M 975.246094 550.851562 C 973.457031 550.847656 971.679688 550.707031 969.914062 550.4375 C 968.148438 550.167969 966.410156 549.773438 964.699219 549.25 C 962.992188 548.722656 961.328125 548.078125 959.714844 547.308594 C 958.101562 546.539062 956.550781 545.65625 955.070312 544.660156 C 953.585938 543.664062 952.179688 542.5625 950.859375 541.359375 C 949.535156 540.15625 948.308594 538.863281 947.175781 537.480469 C 946.046875 536.097656 945.019531 534.636719 944.101562 533.101562 C 943.1875 531.566406 942.386719 529.976562 941.703125 528.324219 C 941.019531 526.671875 940.460938 524.976562 940.027344 523.242188 C 939.59375 521.507812 939.289062 519.753906 939.113281 517.972656 C 938.9375 516.195312 938.890625 514.410156 938.976562 512.625 C 939.0625 510.839844 939.28125 509.070312 939.628906 507.316406 C 939.972656 505.5625 940.449219 503.84375 941.046875 502.160156 C 941.644531 500.476562 942.367188 498.84375 943.207031 497.265625 C 944.046875 495.6875 944.996094 494.179688 946.058594 492.742188 C 947.117188 491.300781 948.277344 489.949219 949.539062 488.679688 L 1033.042969 404.996094 L 949.355469 321.308594 C 948.511719 320.464844 947.710938 319.582031 946.953125 318.65625 C 946.195312 317.734375 945.484375 316.773438 944.820312 315.78125 C 944.15625 314.785156 943.542969 313.761719 942.980469 312.710938 C 942.414062 311.65625 941.90625 310.578125 941.449219 309.472656 C 940.992188 308.367188 940.589844 307.246094 940.242188 306.101562 C 939.894531 304.957031 939.605469 303.800781 939.371094 302.628906 C 939.140625 301.457031 938.964844 300.277344 938.847656 299.085938 C 938.730469 297.898438 938.671875 296.707031 938.671875 295.511719 C 938.671875 294.316406 938.730469 293.125 938.847656 291.933594 C 938.964844 290.746094 939.140625 289.566406 939.371094 288.394531 C 939.605469 287.222656 939.894531 286.0625 940.242188 284.917969 C 940.589844 283.777344 940.992188 282.652344 941.449219 281.546875 C 941.90625 280.445312 942.414062 279.367188 942.980469 278.3125 C 943.542969 277.257812 944.15625 276.234375 944.820312 275.242188 C 945.484375 274.246094 946.195312 273.289062 946.953125 272.363281 C 947.710938 271.441406 948.511719 270.558594 949.355469 269.710938 C 950.203125 268.867188 951.085938 268.066406 952.011719 267.308594 C 952.933594 266.550781 953.890625 265.839844 954.886719 265.175781 C 955.878906 264.511719 956.902344 263.898438 957.957031 263.335938 C 959.011719 262.769531 960.089844 262.261719 961.195312 261.804688 C 962.296875 261.347656 963.421875 260.945312 964.566406 260.597656 C 965.707031 260.25 966.867188 259.960938 968.039062 259.726562 C 969.210938 259.492188 970.390625 259.320312 971.578125 259.203125 C 972.769531 259.085938 973.960938 259.027344 975.15625 259.027344 C 976.351562 259.027344 977.542969 259.085938 978.730469 259.203125 C 979.921875 259.320312 981.101562 259.492188 982.273438 259.726562 C 983.445312 259.960938 984.601562 260.25 985.746094 260.597656 C 986.890625 260.945312 988.015625 261.347656 989.117188 261.804688 C 990.222656 262.261719 991.300781 262.769531 992.355469 263.335938 C 993.410156 263.898438 994.433594 264.511719 995.425781 265.175781 C 996.417969 265.839844 997.378906 266.550781 998.300781 267.308594 C 999.226562 268.066406 1000.109375 268.867188 1000.953125 269.710938 L 1110.347656 379.105469 C 1111.191406 379.949219 1111.996094 380.835938 1112.753906 381.757812 C 1113.511719 382.679688 1114.222656 383.640625 1114.890625 384.632812 C 1115.554688 385.625 1116.167969 386.648438 1116.730469 387.703125 C 1117.292969 388.757812 1117.804688 389.835938 1118.261719 390.941406 C 1118.71875 392.042969 1119.121094 393.167969 1119.46875 394.3125 C 1119.816406 395.457031 1120.109375 396.613281 1120.339844 397.785156 C 1120.574219 398.957031 1120.75 400.136719 1120.867188 401.328125 C 1120.984375 402.515625 1121.042969 403.710938 1121.042969 404.90625 C 1121.042969 406.097656 1120.984375 407.292969 1120.867188 408.480469 C 1120.75 409.671875 1120.574219 410.851562 1120.339844 412.023438 C 1120.109375 413.195312 1119.816406 414.351562 1119.46875 415.496094 C 1119.121094 416.640625 1118.71875 417.765625 1118.261719 418.867188 C 1117.804688 419.972656 1117.292969 421.050781 1116.730469 422.105469 C 1116.167969 423.160156 1115.554688 424.183594 1114.890625 425.175781 C 1114.222656 426.167969 1113.511719 427.128906 1112.753906 428.050781 C 1111.996094 428.972656 1111.191406 429.859375 1110.347656 430.703125 L 1000.953125 540.097656 C 999.269531 541.792969 997.433594 543.308594 995.453125 544.640625 C 993.46875 545.976562 991.375 547.105469 989.167969 548.027344 C 986.964844 548.949219 984.6875 549.648438 982.347656 550.125 C 980.003906 550.601562 977.636719 550.84375 975.246094 550.851562 Z M 975.246094 550.851562 " fill-opacity="1" fill-rule="nonzero"/></g></svg>