<svg xmlns="http://www.w3.org/2000/svg" xmlns:xlink="http://www.w3.org/1999/xlink" width="1920" zoomAndPan="magnify" viewBox="0 0 1440 809.999993" height="1080" preserveAspectRatio="xMidYMid meet" version="1.0"><defs><clipPath id="f8485aa86e"><path d="M 165.207031 1 L 1274.457031 1 L 1274.457031 810 L 165.207031 810 Z M 165.207031 1 " clip-rule="nonzero"/></clipPath></defs><g clip-path="url(#f8485aa86e)"><path fill="#ffffff" d="M 293.679688 1.332031 C 280.523438 1.332031 268.199219 3.832031 256.375 7.492188 L 380.605469 86.59375 L 1059.382812 86.59375 L 1183.613281 7.492188 C 1171.789062 3.832031 1159.464844 1.332031 1146.308594 1.332031 Z M 213.246094 30.640625 C 184.433594 54.121094 165.785156 89.425781 165.785156 129.226562 L 165.785156 683.4375 C 165.785156 753.878906 223.238281 811.332031 293.679688 811.332031 L 1146.308594 811.332031 C 1216.753906 811.332031 1274.203125 753.878906 1274.203125 683.4375 L 1274.203125 129.226562 C 1274.203125 89.425781 1255.554688 54.121094 1226.742188 30.640625 L 719.996094 353.042969 Z M 293.679688 232.140625 L 719.996094 503.585938 L 1146.308594 232.140625 L 1146.308594 726.070312 L 293.679688 726.070312 Z M 293.679688 232.140625 " fill-opacity="1" fill-rule="nonzero"/></g></svg>