<svg xmlns="http://www.w3.org/2000/svg" xmlns:xlink="http://www.w3.org/1999/xlink" width="1920" zoomAndPan="magnify" viewBox="0 0 1440 809.999993" height="1080" preserveAspectRatio="xMidYMid meet" version="1.0"><path fill="#ffffff" d="M 693.34375 0 C 484.625 0 315 169.625 315 378.34375 C 315 587.066406 484.625 756.6875 693.34375 756.6875 C 728.746094 756.6875 763.34375 751.582031 796.527344 742.175781 L 796.527344 675.804688 C 770.800781 700.660156 741.644531 716.582031 710.542969 720.949219 L 710.542969 584.714844 L 796.527344 584.714844 L 796.527344 550.320312 L 710.542969 550.320312 L 710.542969 395.542969 L 796.527344 395.542969 L 796.527344 361.148438 L 710.542969 361.148438 L 710.542969 206.371094 L 871.699219 206.371094 C 887.082031 250.773438 896.824219 301.292969 898.972656 355.300781 L 916.910156 372.164062 L 933.90625 388.015625 L 941.902344 395.542969 L 1036.6875 395.542969 C 1035.34375 421.808594 1031.179688 447.605469 1024.058594 472.59375 L 1051.871094 498.660156 C 1064.835938 460.167969 1071.6875 419.726562 1071.6875 378.34375 C 1071.6875 169.625 902.066406 0 693.34375 0 Z M 676.144531 35.804688 L 676.144531 171.972656 L 528.960938 171.972656 C 535.410156 157.800781 542.261719 144.296875 549.851562 132.070312 C 584.179688 76.648438 628.449219 42.523438 676.144531 35.804688 Z M 710.542969 35.804688 C 770.800781 44.136719 823.667969 95.726562 858.0625 171.972656 L 710.542969 171.972656 Z M 822.324219 59.386719 C 880.769531 83.03125 931.019531 122.332031 968.300781 171.972656 L 894.875 171.972656 C 876.066406 126.765625 851.277344 88.40625 822.324219 59.386719 Z M 563.085938 60.058594 C 547.570312 75.710938 533.191406 93.644531 520.628906 113.933594 C 509.613281 131.734375 499.804688 151.214844 491.273438 171.972656 L 418.519531 171.972656 C 455.535156 122.734375 505.246094 83.703125 563.085938 60.058594 Z M 395.679688 206.371094 L 478.710938 206.371094 C 463.597656 253.257812 454.660156 305.65625 453.117188 361.148438 L 349.796875 361.148438 C 352.621094 304.851562 369.078125 252.320312 395.679688 206.371094 Z M 515.121094 206.371094 L 676.144531 206.371094 L 676.144531 361.148438 L 487.511719 361.148438 C 489.191406 304.851562 499 252.183594 515.121094 206.371094 Z M 907.507812 206.371094 L 991.277344 206.371094 C 1017.8125 252.320312 1034.070312 304.917969 1036.824219 361.148438 L 933.570312 361.148438 C 931.957031 305.589844 922.824219 253.191406 907.507812 206.371094 Z M 349.796875 395.542969 L 453.117188 395.542969 C 454.660156 451.03125 463.597656 503.429688 478.710938 550.320312 L 395.679688 550.320312 C 369.078125 504.367188 352.621094 451.835938 349.796875 395.542969 Z M 487.511719 395.542969 L 676.144531 395.542969 L 676.144531 550.320312 L 515.121094 550.320312 C 499 504.503906 489.191406 451.835938 487.511719 395.542969 Z M 864.511719 395.542969 C 855.375 396.011719 848.121094 403.535156 848.121094 412.738281 L 848.121094 743.789062 C 848.121094 750.777344 852.285156 757.023438 858.734375 759.644531 C 865.183594 762.332031 872.574219 760.851562 877.476562 755.949219 L 929.269531 704.085938 L 972.464844 798.269531 C 976.429688 806.871094 986.640625 810.632812 995.308594 806.667969 L 1061.679688 776.304688 C 1070.277344 772.339844 1074.039062 762.128906 1070.074219 753.464844 L 1025.269531 655.652344 L 1106.082031 655.652344 C 1113.136719 655.652344 1119.519531 651.351562 1122.070312 644.769531 C 1124.691406 638.1875 1123.011719 630.730469 1117.839844 625.894531 L 877.074219 400.175781 C 873.648438 397.019531 869.148438 395.339844 864.511719 395.542969 Z M 882.515625 452.441406 L 1062.550781 621.257812 L 1000.75 621.257812 C 998.0625 621.257812 995.441406 621.863281 993.023438 623.070312 L 991.210938 624.011719 C 982.945312 628.175781 979.386719 638.121094 983.28125 646.515625 L 1031.648438 752.121094 L 996.515625 768.242188 L 950.230469 667.273438 C 947.945312 662.167969 943.175781 658.542969 937.667969 657.535156 C 932.09375 656.527344 926.449219 658.339844 922.488281 662.371094 L 882.515625 702.273438 Z M 418.519531 584.714844 L 491.273438 584.714844 C 499.804688 605.472656 509.613281 624.953125 520.628906 642.753906 C 533.191406 663.042969 547.570312 680.980469 563.085938 696.632812 C 505.246094 672.984375 455.535156 633.953125 418.519531 584.714844 Z M 528.960938 584.714844 L 676.144531 584.714844 L 676.144531 720.882812 C 628.449219 714.164062 584.179688 680.039062 549.851562 624.683594 C 542.261719 612.390625 535.410156 598.886719 528.960938 584.714844 Z M 528.960938 584.714844 " fill-opacity="1" fill-rule="nonzero"/></svg>