<svg xmlns="http://www.w3.org/2000/svg" xmlns:xlink="http://www.w3.org/1999/xlink" width="1920" zoomAndPan="magnify" viewBox="0 0 1440 809.999993" height="1080" preserveAspectRatio="xMidYMid meet" version="1.0"><defs><clipPath id="db46a70abb"><path d="M 287 6.078125 L 1153 6.078125 L 1153 804 L 287 804 Z M 287 6.078125 " clip-rule="nonzero"/></clipPath></defs><path fill="#000173" d="M 439.773438 283.226562 L 848.808594 283.226562 L 848.808594 190.027344 L 439.773438 190.027344 L 439.773438 283.226562 " fill-opacity="1" fill-rule="nonzero"/><g clip-path="url(#db46a70abb)"><path fill="#000173" d="M 892.386719 305.015625 C 892.386719 317.050781 882.628906 326.808594 870.597656 326.808594 L 417.984375 326.808594 C 405.957031 326.808594 396.191406 317.050781 396.191406 305.015625 L 396.191406 168.234375 C 396.191406 156.203125 405.957031 146.445312 417.984375 146.445312 L 870.597656 146.445312 C 882.628906 146.445312 892.386719 156.203125 892.386719 168.234375 Z M 870.597656 426.785156 L 776.011719 426.785156 C 763.980469 426.785156 754.222656 417.019531 754.222656 404.996094 C 754.222656 392.964844 763.980469 383.207031 776.011719 383.207031 L 870.597656 383.207031 C 882.628906 383.207031 892.386719 392.964844 892.386719 404.996094 C 892.386719 417.019531 882.628906 426.785156 870.597656 426.785156 Z M 870.597656 523.570312 L 776.011719 523.570312 C 763.980469 523.570312 754.222656 513.804688 754.222656 501.78125 C 754.222656 489.746094 763.980469 479.992188 776.011719 479.992188 L 870.597656 479.992188 C 882.628906 479.992188 892.386719 489.746094 892.386719 501.78125 C 892.386719 513.804688 882.628906 523.570312 870.597656 523.570312 Z M 870.597656 620.355469 L 776.011719 620.355469 C 763.980469 620.355469 754.222656 610.589844 754.222656 598.566406 C 754.222656 586.53125 763.980469 576.777344 776.011719 576.777344 L 870.597656 576.777344 C 882.628906 576.777344 892.386719 586.53125 892.386719 598.566406 C 892.386719 610.589844 882.628906 620.355469 870.597656 620.355469 Z M 680.066406 426.785156 L 417.984375 426.785156 C 405.957031 426.785156 396.191406 417.019531 396.191406 404.996094 C 396.191406 392.964844 405.957031 383.207031 417.984375 383.207031 L 680.066406 383.207031 C 692.097656 383.207031 701.855469 392.964844 701.855469 404.996094 C 701.855469 417.019531 692.097656 426.785156 680.066406 426.785156 Z M 680.066406 523.570312 L 417.984375 523.570312 C 405.957031 523.570312 396.191406 513.804688 396.191406 501.78125 C 396.191406 489.746094 405.957031 479.992188 417.984375 479.992188 L 680.066406 479.992188 C 692.097656 479.992188 701.855469 489.746094 701.855469 501.78125 C 701.855469 513.804688 692.097656 523.570312 680.066406 523.570312 Z M 680.066406 620.355469 L 417.984375 620.355469 C 405.957031 620.355469 396.191406 610.589844 396.191406 598.566406 C 396.191406 586.53125 405.957031 576.777344 417.984375 576.777344 L 680.066406 576.777344 C 692.097656 576.777344 701.855469 586.53125 701.855469 598.566406 C 701.855469 610.589844 692.097656 620.355469 680.066406 620.355469 Z M 1152.875 684.984375 C 1152.875 684.84375 1152.949219 684.730469 1152.949219 684.59375 L 1152.949219 25.132812 C 1152.949219 14.710938 1144.5 6.253906 1134.058594 6.253906 C 1123.613281 6.253906 1115.164062 14.710938 1115.164062 25.132812 L 1115.164062 666.550781 L 1078.125 666.550781 L 1078.125 25.132812 C 1078.125 14.710938 1069.667969 6.253906 1059.226562 6.253906 C 1048.785156 6.253906 1040.328125 14.710938 1040.328125 25.132812 L 1040.328125 659.253906 C 1016.988281 647.855469 1000.730469 624.089844 1000.730469 596.402344 L 1000.730469 25.132812 C 1000.730469 14.710938 992.273438 6.253906 981.835938 6.253906 L 305.925781 6.253906 C 295.484375 6.253906 287.027344 14.710938 287.027344 25.132812 L 287.027344 695.828125 C 287.027344 755.332031 335.457031 803.738281 394.949219 803.738281 L 1045.042969 803.738281 C 1104.535156 803.738281 1152.964844 755.332031 1152.964844 695.828125 L 1152.964844 685.429688 C 1152.964844 685.277344 1152.875 685.136719 1152.875 684.984375 " fill-opacity="1" fill-rule="nonzero"/></g></svg>