<svg xmlns="http://www.w3.org/2000/svg" xmlns:xlink="http://www.w3.org/1999/xlink" width="1920" zoomAndPan="magnify" viewBox="0 0 1440 809.999993" height="1080" preserveAspectRatio="xMidYMid meet" version="1.0"><defs><clipPath id="c20359c721"><path d="M 732 6.140625 L 1125 6.140625 L 1125 398 L 732 398 Z M 732 6.140625 " clip-rule="nonzero"/></clipPath></defs><path fill="#ffffff" d="M 732.492188 141.347656 C 732.492188 140.546875 732.570312 139.75 732.726562 138.960938 C 732.882812 138.175781 733.113281 137.410156 733.421875 136.667969 C 733.730469 135.925781 734.105469 135.21875 734.554688 134.550781 C 735 133.886719 735.507812 133.265625 736.074219 132.699219 C 736.640625 132.132812 737.261719 131.625 737.929688 131.179688 C 738.59375 130.730469 739.300781 130.355469 740.042969 130.046875 C 740.785156 129.738281 741.550781 129.507812 742.335938 129.351562 C 743.125 129.195312 743.921875 129.117188 744.722656 129.117188 C 748.910156 129.121094 753.097656 129.226562 757.28125 129.4375 C 761.460938 129.644531 765.636719 129.957031 769.804688 130.371094 C 773.972656 130.785156 778.128906 131.300781 782.269531 131.921875 C 786.410156 132.539062 790.535156 133.257812 794.644531 134.078125 C 798.75 134.898438 802.832031 135.816406 806.894531 136.839844 C 810.957031 137.859375 814.992188 138.976562 819 140.195312 C 823.003906 141.414062 826.980469 142.730469 830.921875 144.144531 C 834.863281 145.558594 838.769531 147.066406 842.636719 148.671875 C 846.507812 150.273438 850.332031 151.972656 854.117188 153.765625 C 857.902344 155.558594 861.640625 157.441406 865.335938 159.417969 C 869.027344 161.394531 872.671875 163.457031 876.261719 165.613281 C 879.851562 167.765625 883.390625 170.007812 886.871094 172.335938 C 890.351562 174.664062 893.773438 177.074219 897.136719 179.570312 C 900.5 182.066406 903.800781 184.640625 907.039062 187.296875 C 910.277344 189.957031 913.445312 192.691406 916.546875 195.503906 C 919.652344 198.316406 922.683594 201.203125 925.644531 204.164062 C 928.605469 207.125 931.492188 210.15625 934.304688 213.261719 C 937.117188 216.363281 939.855469 219.53125 942.511719 222.769531 C 945.167969 226.007812 947.746094 229.308594 950.238281 232.671875 C 952.734375 236.035156 955.148438 239.457031 957.472656 242.9375 C 959.800781 246.417969 962.042969 249.957031 964.195312 253.546875 C 966.351562 257.140625 968.417969 260.78125 970.390625 264.472656 C 972.367188 268.167969 974.25 271.90625 976.042969 275.691406 C 977.835938 279.476562 979.535156 283.300781 981.140625 287.171875 C 982.742188 291.039062 984.253906 294.945312 985.664062 298.886719 C 987.078125 302.828125 988.394531 306.804688 989.613281 310.808594 C 990.832031 314.816406 991.949219 318.851562 992.96875 322.914062 C 993.992188 326.976562 994.910156 331.058594 995.730469 335.167969 C 996.550781 339.273438 997.269531 343.398438 997.886719 347.539062 C 998.507812 351.683594 999.023438 355.835938 999.4375 360.003906 C 999.851562 364.171875 1000.164062 368.347656 1000.371094 372.527344 C 1000.582031 376.710938 1000.6875 380.898438 1000.691406 385.085938 C 1000.691406 385.886719 1000.613281 386.683594 1000.457031 387.472656 C 1000.300781 388.257812 1000.070312 389.023438 999.761719 389.765625 C 999.453125 390.507812 999.078125 391.214844 998.632812 391.882812 C 998.183594 392.550781 997.679688 393.167969 997.109375 393.734375 C 996.542969 394.300781 995.925781 394.808594 995.257812 395.257812 C 994.589844 395.703125 993.882812 396.078125 993.140625 396.386719 C 992.398438 396.695312 991.632812 396.925781 990.847656 397.082031 C 990.058594 397.238281 989.261719 397.316406 988.460938 397.316406 C 987.65625 397.316406 986.863281 397.238281 986.074219 397.082031 C 985.285156 396.925781 984.519531 396.695312 983.777344 396.386719 C 983.035156 396.078125 982.332031 395.703125 981.664062 395.257812 C 980.996094 394.808594 980.378906 394.300781 979.8125 393.734375 C 979.242188 393.167969 978.734375 392.550781 978.289062 391.882812 C 977.84375 391.214844 977.464844 390.507812 977.160156 389.765625 C 976.851562 389.023438 976.621094 388.257812 976.464844 387.472656 C 976.304688 386.683594 976.226562 385.886719 976.226562 385.085938 C 976.222656 381.296875 976.125 377.511719 975.9375 373.730469 C 975.746094 369.945312 975.464844 366.171875 975.089844 362.402344 C 974.714844 358.632812 974.246094 354.875 973.6875 351.128906 C 973.128906 347.382812 972.480469 343.652344 971.738281 339.9375 C 970.996094 336.226562 970.160156 332.53125 969.238281 328.859375 C 968.316406 325.183594 967.304688 321.535156 966.199219 317.910156 C 965.097656 314.289062 963.910156 310.695312 962.628906 307.128906 C 961.351562 303.5625 959.988281 300.03125 958.535156 296.53125 C 957.085938 293.035156 955.546875 289.574219 953.925781 286.148438 C 952.304688 282.726562 950.601562 279.347656 948.816406 276.007812 C 947.027344 272.667969 945.160156 269.371094 943.210938 266.125 C 941.265625 262.875 939.238281 259.679688 937.132812 256.53125 C 935.027344 253.382812 932.847656 250.285156 930.589844 247.246094 C 928.332031 244.203125 926.003906 241.21875 923.597656 238.289062 C 921.195312 235.363281 918.722656 232.496094 916.179688 229.691406 C 913.636719 226.882812 911.023438 224.140625 908.347656 221.464844 C 905.667969 218.785156 902.925781 216.171875 900.121094 213.628906 C 897.3125 211.085938 894.445312 208.613281 891.519531 206.210938 C 888.589844 203.804688 885.605469 201.476562 882.566406 199.21875 C 879.523438 196.960938 876.429688 194.78125 873.277344 192.675781 C 870.128906 190.570312 866.933594 188.542969 863.683594 186.597656 C 860.4375 184.648438 857.140625 182.78125 853.800781 180.992188 C 850.464844 179.207031 847.082031 177.503906 843.660156 175.882812 C 840.234375 174.261719 836.773438 172.722656 833.277344 171.273438 C 829.777344 169.820312 826.246094 168.457031 822.679688 167.179688 C 819.113281 165.898438 815.519531 164.710938 811.898438 163.609375 C 808.273438 162.503906 804.625 161.492188 800.953125 160.570312 C 797.277344 159.648438 793.585938 158.8125 789.871094 158.070312 C 786.15625 157.332031 782.425781 156.679688 778.679688 156.121094 C 774.933594 155.5625 771.175781 155.09375 767.40625 154.71875 C 763.636719 154.34375 759.863281 154.0625 756.078125 153.871094 C 752.296875 153.683594 748.511719 153.585938 744.722656 153.582031 C 743.921875 153.582031 743.125 153.503906 742.335938 153.347656 C 741.550781 153.1875 740.785156 152.957031 740.042969 152.648438 C 739.300781 152.34375 738.59375 151.964844 737.929688 151.519531 C 737.261719 151.074219 736.640625 150.566406 736.074219 150 C 735.507812 149.429688 735 148.8125 734.554688 148.144531 C 734.105469 147.476562 733.730469 146.773438 733.421875 146.03125 C 733.113281 145.289062 732.882812 144.523438 732.726562 143.734375 C 732.570312 142.945312 732.492188 142.152344 732.492188 141.347656 Z M 732.492188 141.347656 " fill-opacity="1" fill-rule="nonzero"/><g clip-path="url(#c20359c721)"><path fill="#ffffff" d="M 1124.058594 385.085938 C 1124.058594 385.886719 1123.980469 386.683594 1123.824219 387.472656 C 1123.664062 388.257812 1123.433594 389.023438 1123.125 389.765625 C 1122.820312 390.507812 1122.441406 391.214844 1121.996094 391.882812 C 1121.550781 392.550781 1121.042969 393.167969 1120.476562 393.734375 C 1119.90625 394.300781 1119.289062 394.808594 1118.621094 395.257812 C 1117.953125 395.703125 1117.25 396.078125 1116.507812 396.386719 C 1115.765625 396.695312 1115 396.925781 1114.210938 397.082031 C 1113.421875 397.238281 1112.628906 397.316406 1111.824219 397.316406 C 1111.023438 397.316406 1110.226562 397.238281 1109.4375 397.082031 C 1108.652344 396.925781 1107.886719 396.695312 1107.144531 396.386719 C 1106.402344 396.078125 1105.695312 395.703125 1105.027344 395.257812 C 1104.359375 394.808594 1103.742188 394.300781 1103.175781 393.734375 C 1102.609375 393.167969 1102.101562 392.550781 1101.652344 391.882812 C 1101.207031 391.214844 1100.832031 390.507812 1100.523438 389.765625 C 1100.214844 389.023438 1099.984375 388.257812 1099.828125 387.472656 C 1099.671875 386.683594 1099.59375 385.886719 1099.59375 385.085938 C 1099.589844 379.277344 1099.441406 373.472656 1099.152344 367.675781 C 1098.863281 361.875 1098.433594 356.085938 1097.859375 350.304688 C 1097.289062 344.527344 1096.574219 338.765625 1095.71875 333.019531 C 1094.863281 327.277344 1093.867188 321.558594 1092.730469 315.863281 C 1091.597656 310.167969 1090.320312 304.503906 1088.90625 298.871094 C 1087.492188 293.238281 1085.941406 287.644531 1084.253906 282.085938 C 1082.566406 276.53125 1080.746094 271.019531 1078.785156 265.550781 C 1076.828125 260.082031 1074.738281 254.667969 1072.511719 249.304688 C 1070.289062 243.9375 1067.933594 238.632812 1065.453125 233.382812 C 1062.96875 228.132812 1060.355469 222.949219 1057.617188 217.828125 C 1054.878906 212.707031 1052.015625 207.65625 1049.03125 202.675781 C 1046.042969 197.691406 1042.9375 192.789062 1039.710938 187.960938 C 1036.484375 183.132812 1033.140625 178.386719 1029.683594 173.722656 C 1026.222656 169.054688 1022.652344 164.480469 1018.96875 159.988281 C 1015.285156 155.5 1011.492188 151.105469 1007.59375 146.800781 C 1003.695312 142.496094 999.691406 138.292969 995.585938 134.183594 C 991.480469 130.078125 987.277344 126.074219 982.972656 122.171875 C 978.671875 118.273438 974.277344 114.480469 969.789062 110.792969 C 965.300781 107.109375 960.726562 103.535156 956.0625 100.074219 C 951.398438 96.613281 946.652344 93.265625 941.828125 90.039062 C 937 86.8125 932.097656 83.703125 927.117188 80.714844 C 922.136719 77.726562 917.085938 74.863281 911.964844 72.121094 C 906.847656 69.382812 901.664062 66.769531 896.414062 64.285156 C 891.164062 61.796875 885.859375 59.441406 880.496094 57.214844 C 875.132812 54.988281 869.714844 52.898438 864.25 50.9375 C 858.785156 48.976562 853.273438 47.152344 847.714844 45.460938 C 842.160156 43.769531 836.566406 42.21875 830.933594 40.804688 C 825.300781 39.386719 819.640625 38.109375 813.945312 36.972656 C 808.25 35.835938 802.53125 34.835938 796.785156 33.980469 C 791.042969 33.121094 785.28125 32.40625 779.503906 31.832031 C 773.722656 31.257812 767.933594 30.824219 762.132812 30.53125 C 756.335938 30.242188 750.53125 30.09375 744.722656 30.085938 C 743.921875 30.085938 743.125 30.007812 742.335938 29.851562 C 741.550781 29.695312 740.785156 29.460938 740.042969 29.15625 C 739.300781 28.847656 738.59375 28.472656 737.929688 28.023438 C 737.261719 27.578125 736.640625 27.070312 736.074219 26.503906 C 735.507812 25.933594 735 25.316406 734.554688 24.648438 C 734.105469 23.980469 733.730469 23.277344 733.421875 22.535156 C 733.113281 21.792969 732.882812 21.027344 732.726562 20.238281 C 732.570312 19.453125 732.492188 18.65625 732.492188 17.855469 C 732.492188 17.050781 732.570312 16.253906 732.726562 15.46875 C 732.882812 14.679688 733.113281 13.914062 733.421875 13.171875 C 733.730469 12.429688 734.105469 11.726562 734.554688 11.058594 C 735 10.390625 735.507812 9.773438 736.074219 9.203125 C 736.640625 8.636719 737.261719 8.128906 737.929688 7.683594 C 738.59375 7.238281 739.300781 6.859375 740.042969 6.550781 C 740.785156 6.246094 741.550781 6.011719 742.335938 5.855469 C 743.125 5.699219 743.921875 5.621094 744.722656 5.621094 C 750.929688 5.628906 757.132812 5.789062 763.332031 6.101562 C 769.53125 6.414062 775.71875 6.878906 781.898438 7.496094 C 788.074219 8.113281 794.230469 8.878906 800.371094 9.796875 C 806.507812 10.714844 812.621094 11.78125 818.707031 13 C 824.792969 14.214844 830.847656 15.582031 836.867188 17.097656 C 842.886719 18.609375 848.867188 20.273438 854.804688 22.078125 C 860.742188 23.886719 866.632812 25.839844 872.476562 27.933594 C 878.316406 30.03125 884.105469 32.269531 889.835938 34.648438 C 895.570312 37.027344 901.242188 39.546875 906.851562 42.203125 C 912.460938 44.863281 918 47.65625 923.472656 50.585938 C 928.945312 53.515625 934.34375 56.574219 939.664062 59.769531 C 944.988281 62.964844 950.226562 66.285156 955.386719 69.738281 C 960.546875 73.1875 965.617188 76.761719 970.601562 80.464844 C 975.585938 84.164062 980.476562 87.980469 985.273438 91.921875 C 990.070312 95.859375 994.769531 99.914062 999.367188 104.085938 C 1003.964844 108.253906 1008.457031 112.535156 1012.847656 116.921875 C 1017.234375 121.3125 1021.511719 125.808594 1025.679688 130.40625 C 1029.847656 135.007812 1033.902344 139.707031 1037.839844 144.503906 C 1041.777344 149.304688 1045.59375 154.195312 1049.292969 159.179688 C 1052.992188 164.164062 1056.566406 169.238281 1060.011719 174.398438 C 1063.460938 179.558594 1066.785156 184.800781 1069.976562 190.125 C 1073.167969 195.449219 1076.226562 200.847656 1079.15625 206.320312 C 1082.082031 211.792969 1084.875 217.335938 1087.53125 222.945312 C 1090.1875 228.554688 1092.703125 234.226562 1095.082031 239.960938 C 1097.457031 245.695312 1099.695312 251.484375 1101.789062 257.328125 C 1103.882812 263.167969 1105.832031 269.0625 1107.636719 275 C 1109.441406 280.9375 1111.101562 286.917969 1112.613281 292.9375 C 1114.125 298.957031 1115.488281 305.011719 1116.703125 311.097656 C 1117.921875 317.183594 1118.984375 323.296875 1119.902344 329.4375 C 1120.816406 335.578125 1121.582031 341.734375 1122.195312 347.910156 C 1122.808594 354.089844 1123.273438 360.277344 1123.582031 366.476562 C 1123.894531 372.675781 1124.050781 378.878906 1124.058594 385.085938 Z M 1124.058594 385.085938 " fill-opacity="1" fill-rule="nonzero"/></g><path fill="#ffffff" d="M 732.492188 264.714844 C 732.492188 263.910156 732.570312 263.113281 732.726562 262.328125 C 732.882812 261.539062 733.113281 260.773438 733.421875 260.03125 C 733.730469 259.289062 734.105469 258.585938 734.554688 257.917969 C 735 257.25 735.507812 256.632812 736.074219 256.0625 C 736.640625 255.496094 737.261719 254.988281 737.925781 254.542969 C 738.59375 254.097656 739.300781 253.71875 740.042969 253.414062 C 740.785156 253.105469 741.550781 252.871094 742.335938 252.714844 C 743.125 252.558594 743.921875 252.480469 744.722656 252.480469 C 746.886719 252.488281 749.050781 252.550781 751.214844 252.664062 C 753.375 252.78125 755.53125 252.945312 757.6875 253.167969 C 759.839844 253.386719 761.988281 253.660156 764.125 253.984375 C 766.265625 254.308594 768.398438 254.6875 770.519531 255.117188 C 772.640625 255.546875 774.75 256.027344 776.847656 256.5625 C 778.949219 257.09375 781.03125 257.679688 783.101562 258.3125 C 785.171875 258.949219 787.222656 259.632812 789.257812 260.367188 C 791.292969 261.105469 793.3125 261.890625 795.308594 262.722656 C 797.304688 263.558594 799.28125 264.441406 801.238281 265.371094 C 803.191406 266.300781 805.121094 267.28125 807.027344 268.304688 C 808.933594 269.332031 810.8125 270.402344 812.667969 271.523438 C 814.523438 272.640625 816.347656 273.800781 818.144531 275.007812 C 819.941406 276.214844 821.707031 277.464844 823.445312 278.757812 C 825.179688 280.054688 826.882812 281.386719 828.550781 282.765625 C 830.222656 284.140625 831.859375 285.558594 833.460938 287.015625 C 835.058594 288.472656 836.625 289.96875 838.152344 291.503906 C 839.679688 293.035156 841.167969 294.605469 842.621094 296.214844 C 844.070312 297.820312 845.480469 299.460938 846.851562 301.136719 C 848.222656 302.8125 849.550781 304.519531 850.835938 306.261719 C 852.125 308.003906 853.367188 309.773438 854.566406 311.574219 C 855.769531 313.378906 856.921875 315.207031 858.035156 317.066406 C 859.144531 318.925781 860.207031 320.808594 861.226562 322.71875 C 862.246094 324.628906 863.214844 326.5625 864.136719 328.519531 C 865.0625 330.480469 865.9375 332.457031 866.761719 334.460938 C 867.589844 336.460938 868.367188 338.480469 869.09375 340.519531 C 869.820312 342.558594 870.5 344.613281 871.125 346.683594 C 871.753906 348.757812 872.328125 350.84375 872.851562 352.945312 C 873.378906 355.042969 873.851562 357.15625 874.273438 359.277344 C 874.695312 361.402344 875.0625 363.535156 875.378906 365.675781 C 875.695312 367.816406 875.960938 369.964844 876.171875 372.121094 C 876.382812 374.273438 876.542969 376.433594 876.648438 378.59375 C 876.753906 380.757812 876.808594 382.921875 876.808594 385.085938 C 876.816406 385.890625 876.746094 386.6875 876.59375 387.480469 C 876.445312 388.273438 876.214844 389.039062 875.910156 389.785156 C 875.609375 390.53125 875.234375 391.242188 874.785156 391.914062 C 874.339844 392.582031 873.832031 393.203125 873.261719 393.773438 C 872.695312 394.34375 872.074219 394.851562 871.402344 395.296875 C 870.730469 395.742188 870.023438 396.117188 869.277344 396.421875 C 868.53125 396.726562 867.761719 396.953125 866.96875 397.105469 C 866.179688 397.253906 865.378906 397.328125 864.574219 397.316406 C 863.785156 397.269531 863.007812 397.15625 862.238281 396.964844 C 861.472656 396.777344 860.726562 396.523438 860.003906 396.199219 C 859.285156 395.875 858.597656 395.488281 857.945312 395.039062 C 857.296875 394.589844 856.691406 394.085938 856.132812 393.527344 C 855.574219 392.96875 855.070312 392.363281 854.621094 391.714844 C 854.171875 391.0625 853.785156 390.375 853.460938 389.65625 C 853.136719 388.933594 852.882812 388.1875 852.695312 387.421875 C 852.507812 386.652344 852.390625 385.875 852.34375 385.085938 C 852.34375 383.316406 852.300781 381.550781 852.210938 379.78125 C 852.125 378.015625 851.996094 376.253906 851.824219 374.492188 C 851.648438 372.734375 851.433594 370.980469 851.175781 369.230469 C 850.914062 367.480469 850.613281 365.738281 850.269531 364.003906 C 849.921875 362.269531 849.535156 360.542969 849.105469 358.828125 C 848.675781 357.113281 848.207031 355.410156 847.695312 353.71875 C 847.179688 352.023438 846.625 350.347656 846.03125 348.679688 C 845.4375 347.015625 844.800781 345.367188 844.125 343.730469 C 843.449219 342.097656 842.730469 340.480469 841.976562 338.882812 C 841.21875 337.285156 840.425781 335.703125 839.59375 334.144531 C 838.761719 332.585938 837.890625 331.046875 836.980469 329.527344 C 836.070312 328.011719 835.125 326.515625 834.144531 325.046875 C 833.164062 323.574219 832.144531 322.128906 831.09375 320.710938 C 830.039062 319.289062 828.953125 317.894531 827.832031 316.527344 C 826.710938 315.160156 825.558594 313.820312 824.371094 312.507812 C 823.183594 311.199219 821.964844 309.917969 820.714844 308.664062 C 819.464844 307.414062 818.1875 306.195312 816.875 305.003906 C 815.566406 303.816406 814.230469 302.660156 812.863281 301.539062 C 811.496094 300.414062 810.105469 299.328125 808.683594 298.273438 C 807.265625 297.21875 805.820312 296.199219 804.351562 295.214844 C 802.878906 294.230469 801.386719 293.285156 799.871094 292.375 C 798.355469 291.464844 796.816406 290.59375 795.257812 289.757812 C 793.699219 288.921875 792.121094 288.125 790.523438 287.367188 C 788.925781 286.609375 787.308594 285.894531 785.675781 285.214844 C 784.042969 284.535156 782.394531 283.898438 780.730469 283.300781 C 779.066406 282.703125 777.386719 282.148438 775.695312 281.632812 C 774.003906 281.117188 772.300781 280.644531 770.585938 280.214844 C 768.871094 279.78125 767.144531 279.394531 765.410156 279.046875 C 763.679688 278.699219 761.9375 278.394531 760.1875 278.132812 C 758.4375 277.871094 756.683594 277.652344 754.925781 277.476562 C 753.164062 277.304688 751.402344 277.171875 749.636719 277.082031 C 747.871094 276.992188 746.101562 276.949219 744.332031 276.945312 C 743.546875 276.921875 742.769531 276.820312 742.003906 276.644531 C 741.234375 276.46875 740.492188 276.222656 739.773438 275.90625 C 739.050781 275.585938 738.371094 275.203125 737.722656 274.75 C 737.078125 274.300781 736.484375 273.792969 735.933594 273.226562 C 735.386719 272.664062 734.898438 272.050781 734.46875 271.390625 C 734.042969 270.730469 733.679688 270.035156 733.382812 269.304688 C 733.089844 268.578125 732.867188 267.824219 732.714844 267.054688 C 732.566406 266.28125 732.492188 265.5 732.492188 264.714844 Z M 732.492188 264.714844 " fill-opacity="1" fill-rule="nonzero"/><path fill="#ffffff" d="M 1082.15625 646.390625 L 1082.15625 670.074219 C 1082.136719 674.65625 1081.671875 679.195312 1080.761719 683.683594 C 1079.855469 688.175781 1078.519531 692.539062 1076.753906 696.769531 C 1074.992188 701 1072.835938 705.015625 1070.285156 708.824219 C 1067.730469 712.628906 1064.835938 716.152344 1061.59375 719.394531 L 997.570312 782.898438 C 994.375 786.074219 990.902344 788.914062 987.152344 791.414062 C 983.402344 793.914062 979.445312 796.03125 975.285156 797.757812 C 971.125 799.488281 966.832031 800.800781 962.417969 801.691406 C 958 802.585938 953.535156 803.042969 949.03125 803.066406 L 946.167969 803.066406 C 936 802.628906 925.847656 801.957031 915.710938 801.046875 C 905.574219 800.140625 895.464844 798.996094 885.378906 797.617188 C 875.296875 796.238281 865.25 794.628906 855.242188 792.785156 C 845.234375 790.941406 835.273438 788.863281 825.359375 786.558594 C 815.449219 784.25 805.59375 781.714844 795.800781 778.953125 C 786.003906 776.1875 776.28125 773.199219 766.625 769.984375 C 756.96875 766.765625 747.390625 763.328125 737.894531 759.667969 C 728.398438 756.011719 718.992188 752.132812 709.675781 748.035156 C 700.359375 743.9375 691.144531 739.628906 682.027344 735.105469 C 672.910156 730.578125 663.90625 725.847656 655.007812 720.90625 C 646.109375 715.960938 637.332031 710.816406 628.675781 705.464844 C 620.019531 700.117188 611.488281 694.570312 603.089844 688.824219 C 594.6875 683.078125 586.425781 677.140625 578.300781 671.011719 C 570.175781 664.882812 562.199219 658.570312 554.367188 652.070312 C 546.535156 645.570312 538.859375 638.894531 531.335938 632.039062 C 523.816406 625.183594 516.457031 618.15625 509.261719 610.957031 C 502.066406 603.761719 495.039062 596.402344 488.1875 588.878906 C 481.332031 581.355469 474.65625 573.675781 468.15625 565.84375 C 461.660156 558.011719 455.347656 550.03125 449.222656 541.90625 C 443.09375 533.777344 437.15625 525.515625 431.414062 517.113281 C 425.671875 508.710938 420.125 500.183594 414.777344 491.523438 C 409.429688 482.863281 404.285156 474.085938 399.34375 465.1875 C 394.402344 456.289062 389.671875 447.28125 385.148438 438.164062 C 380.628906 429.046875 376.320312 419.832031 372.226562 410.515625 C 368.128906 401.195312 364.253906 391.789062 360.597656 382.292969 C 356.9375 372.796875 353.503906 363.21875 350.289062 353.5625 C 347.074219 343.90625 344.089844 334.179688 341.328125 324.382812 C 338.566406 314.589844 336.03125 304.734375 333.726562 294.820312 C 331.421875 284.910156 329.347656 274.949219 327.507812 264.9375 C 325.664062 254.929688 324.054688 244.882812 322.679688 234.800781 C 321.304688 224.714844 320.160156 214.605469 319.253906 204.46875 C 318.347656 194.332031 317.675781 184.179688 317.242188 174.011719 C 317.117188 171.617188 317.117188 169.226562 317.242188 166.832031 C 317.371094 164.441406 317.621094 162.0625 317.996094 159.695312 C 318.375 157.328125 318.871094 154.988281 319.496094 152.675781 C 320.117188 150.363281 320.859375 148.085938 321.71875 145.851562 C 322.578125 143.617188 323.554688 141.429688 324.644531 139.296875 C 325.734375 137.164062 326.933594 135.09375 328.242188 133.085938 C 329.550781 131.078125 330.960938 129.144531 332.46875 127.285156 C 333.980469 125.425781 335.585938 123.648438 337.28125 121.960938 L 400.785156 58.585938 C 404.027344 55.347656 407.550781 52.453125 411.359375 49.902344 C 415.167969 47.351562 419.1875 45.195312 423.414062 43.433594 C 427.644531 41.671875 432.003906 40.332031 436.496094 39.421875 C 440.988281 38.511719 445.523438 38.046875 450.105469 38.023438 L 473.398438 38.023438 C 475.152344 38.027344 476.898438 38.09375 478.648438 38.230469 C 480.394531 38.363281 482.132812 38.5625 483.863281 38.828125 C 485.59375 39.09375 487.316406 39.425781 489.019531 39.820312 C 490.726562 40.214844 492.417969 40.675781 494.089844 41.195312 C 495.761719 41.71875 497.410156 42.304688 499.039062 42.949219 C 500.667969 43.597656 502.269531 44.304688 503.84375 45.070312 C 505.417969 45.835938 506.960938 46.664062 508.476562 47.546875 C 509.988281 48.429688 511.464844 49.371094 512.90625 50.363281 C 514.347656 51.359375 515.75 52.40625 517.113281 53.507812 C 518.476562 54.609375 519.796875 55.757812 521.070312 56.957031 C 522.347656 58.15625 523.578125 59.402344 524.761719 60.695312 C 525.941406 61.988281 527.074219 63.324219 528.15625 64.703125 C 529.238281 66.082031 530.265625 67.496094 531.242188 68.953125 C 532.214844 70.40625 533.136719 71.898438 533.996094 73.421875 C 534.859375 74.945312 535.664062 76.5 536.410156 78.085938 C 537.15625 79.671875 537.839844 81.28125 538.464844 82.917969 L 594.683594 232.3125 C 595.804688 235.34375 596.710938 238.4375 597.40625 241.59375 C 598.097656 244.75 598.570312 247.941406 598.820312 251.164062 C 599.074219 254.386719 599.101562 257.609375 598.902344 260.835938 C 598.707031 264.0625 598.289062 267.261719 597.648438 270.429688 C 597.007812 273.597656 596.148438 276.707031 595.078125 279.757812 C 594.007812 282.804688 592.730469 285.765625 591.246094 288.640625 C 589.761719 291.511719 588.089844 294.269531 586.222656 296.90625 C 584.359375 299.546875 582.320312 302.046875 580.105469 304.402344 L 556.8125 329 C 555.9375 329.921875 555.101562 330.882812 554.304688 331.878906 C 553.507812 332.875 552.757812 333.90625 552.050781 334.964844 C 551.34375 336.027344 550.679688 337.113281 550.066406 338.230469 C 549.453125 339.347656 548.886719 340.488281 548.371094 341.65625 C 547.851562 342.820312 547.386719 344.003906 546.96875 345.210938 C 546.554688 346.414062 546.191406 347.636719 545.878906 348.871094 C 545.566406 350.109375 545.308594 351.355469 545.105469 352.613281 C 544.898438 353.871094 544.75 355.136719 544.652344 356.410156 C 544.554688 357.679688 544.511719 358.953125 544.523438 360.226562 C 544.535156 361.503906 544.601562 362.773438 544.722656 364.042969 C 544.84375 365.3125 545.019531 366.574219 545.246094 367.828125 C 545.472656 369.082031 545.757812 370.324219 546.089844 371.554688 C 546.425781 372.785156 546.8125 374 547.25 375.195312 C 547.6875 376.394531 548.175781 377.570312 548.714844 378.726562 C 549.253906 379.882812 549.839844 381.011719 550.476562 382.117188 C 551.109375 383.222656 551.792969 384.296875 552.519531 385.34375 C 564.800781 403.191406 577.855469 420.453125 591.6875 437.121094 C 605.519531 453.792969 620.074219 469.8125 635.347656 485.171875 C 650.625 500.535156 666.558594 515.179688 683.148438 529.105469 C 699.742188 543.035156 716.925781 556.191406 734.703125 568.570312 C 735.753906 569.253906 736.828125 569.890625 737.929688 570.484375 C 739.03125 571.078125 740.15625 571.625 741.304688 572.125 C 742.453125 572.625 743.617188 573.074219 744.804688 573.476562 C 745.988281 573.878906 747.191406 574.226562 748.40625 574.53125 C 749.621094 574.832031 750.84375 575.082031 752.082031 575.28125 C 753.316406 575.476562 754.558594 575.625 755.808594 575.71875 C 757.054688 575.816406 758.304688 575.859375 759.554688 575.847656 C 760.808594 575.839844 762.058594 575.777344 763.304688 575.664062 C 764.550781 575.546875 765.789062 575.382812 767.023438 575.164062 C 768.253906 574.945312 769.476562 574.679688 770.6875 574.359375 C 771.894531 574.039062 773.089844 573.667969 774.269531 573.25 C 775.449219 572.828125 776.609375 572.359375 777.75 571.84375 C 778.886719 571.328125 780.003906 570.761719 781.097656 570.152344 C 782.191406 569.542969 783.253906 568.886719 784.292969 568.1875 C 785.332031 567.488281 786.339844 566.746094 787.316406 565.964844 C 788.289062 565.179688 789.234375 564.359375 790.140625 563.496094 L 815.125 539.8125 C 817.480469 537.601562 819.980469 535.5625 822.621094 533.695312 C 825.261719 531.832031 828.015625 530.15625 830.890625 528.671875 C 833.761719 527.191406 836.722656 525.914062 839.773438 524.839844 C 842.820312 523.769531 845.929688 522.914062 849.097656 522.273438 C 852.265625 521.632812 855.464844 521.210938 858.691406 521.015625 C 861.917969 520.820312 865.140625 520.847656 868.363281 521.097656 C 871.589844 521.347656 874.777344 521.820312 877.933594 522.511719 C 881.09375 523.207031 884.1875 524.113281 887.21875 525.238281 L 1036.609375 581.453125 C 1038.257812 582.0625 1039.882812 582.734375 1041.480469 583.46875 C 1043.078125 584.203125 1044.648438 584.992188 1046.1875 585.84375 C 1047.722656 586.695312 1049.226562 587.605469 1050.699219 588.570312 C 1052.167969 589.535156 1053.597656 590.554688 1054.992188 591.628906 C 1056.382812 592.703125 1057.734375 593.828125 1059.042969 595.003906 C 1060.351562 596.179688 1061.609375 597.402344 1062.828125 598.671875 C 1064.042969 599.945312 1065.207031 601.261719 1066.324219 602.621094 C 1067.4375 603.980469 1068.5 605.378906 1069.511719 606.816406 C 1070.519531 608.257812 1071.472656 609.734375 1072.371094 611.246094 C 1073.269531 612.757812 1074.109375 614.300781 1074.890625 615.875 C 1075.671875 617.449219 1076.394531 619.054688 1077.054688 620.683594 C 1077.714844 622.3125 1078.3125 623.964844 1078.847656 625.640625 C 1079.382812 627.316406 1079.855469 629.007812 1080.261719 630.71875 C 1080.667969 632.429688 1081.011719 634.152344 1081.285156 635.890625 C 1081.5625 637.625 1081.773438 639.371094 1081.917969 641.125 C 1082.066406 642.875 1082.144531 644.632812 1082.15625 646.390625 Z M 1082.15625 646.390625 " fill-opacity="1" fill-rule="nonzero"/></svg>