<svg xmlns="http://www.w3.org/2000/svg" xmlns:xlink="http://www.w3.org/1999/xlink" width="1920" zoomAndPan="magnify" viewBox="0 0 1440 809.999993" height="1080" preserveAspectRatio="xMidYMid meet" version="1.0"><defs><clipPath id="bdd42a60bb"><path d="M 339.226562 6.28125 L 1100.472656 6.28125 L 1100.472656 803.53125 L 339.226562 803.53125 Z M 339.226562 6.28125 " clip-rule="nonzero"/></clipPath></defs><g clip-path="url(#bdd42a60bb)"><path fill="#000173" d="M 963.207031 86.054688 L 926.1875 86.054688 L 926.1875 30.773438 C 926.1875 17.476562 915.367188 6.753906 902.167969 6.753906 C 888.871094 6.753906 878.152344 17.574219 878.152344 30.773438 L 878.152344 86.15625 L 548.046875 86.15625 L 548.046875 30.773438 C 548.046875 17.476562 537.226562 6.753906 524.027344 6.753906 C 510.726562 6.753906 500.007812 17.574219 500.007812 30.773438 L 500.007812 86.15625 L 476.683594 86.15625 C 400.757812 86.15625 339.222656 147.691406 339.222656 223.617188 L 339.222656 665.773438 C 339.222656 741.699219 400.757812 803.234375 476.683594 803.234375 L 963.207031 803.234375 C 1039.132812 803.234375 1100.667969 741.699219 1100.667969 665.773438 L 1100.667969 223.617188 C 1100.769531 147.691406 1039.132812 86.054688 963.207031 86.054688 Z M 878.050781 111.464844 L 878.050781 161.386719 C 878.050781 174.6875 888.871094 185.40625 902.070312 185.40625 C 915.371094 185.40625 926.089844 174.585938 926.089844 161.386719 L 926.089844 113.351562 C 941.472656 122.28125 951.894531 138.957031 951.894531 158.011719 C 951.894531 186.496094 928.769531 209.621094 900.285156 209.621094 C 871.796875 209.621094 848.671875 186.496094 848.671875 158.011719 C 848.871094 137.46875 860.78125 119.800781 878.050781 111.464844 Z M 499.910156 112.359375 L 499.910156 161.386719 C 499.910156 174.6875 510.726562 185.40625 523.929688 185.40625 C 537.226562 185.40625 547.945312 174.585938 547.945312 161.386719 L 547.945312 112.359375 C 564.324219 120.992188 575.4375 138.164062 575.4375 157.914062 C 575.4375 186.398438 552.3125 209.523438 523.828125 209.523438 C 495.34375 209.523438 472.21875 186.398438 472.21875 157.914062 C 472.417969 138.164062 483.632812 120.992188 499.910156 112.359375 Z M 1052.632812 665.675781 C 1052.632812 715 1012.535156 755 963.308594 755 L 476.683594 755 C 427.359375 755 387.359375 714.902344 387.359375 665.675781 L 387.359375 299.441406 L 1052.632812 299.441406 Z M 1052.632812 665.675781 " fill-opacity="1" fill-rule="nonzero"/></g><path fill="#000173" d="M 548.742188 438.09375 L 482.144531 438.09375 C 476.785156 438.09375 472.417969 433.726562 472.417969 428.367188 L 472.417969 361.773438 C 472.417969 356.414062 476.785156 352.046875 482.144531 352.046875 L 548.742188 352.046875 C 554.101562 352.046875 558.46875 356.414062 558.46875 361.773438 L 558.46875 428.367188 C 558.367188 433.726562 554.101562 438.09375 548.742188 438.09375 Z M 548.742188 438.09375 " fill-opacity="1" fill-rule="nonzero"/><path fill="#000173" d="M 548.742188 574.664062 L 482.144531 574.664062 C 476.785156 574.664062 472.417969 570.296875 472.417969 564.9375 L 472.417969 498.339844 C 472.417969 492.980469 476.785156 488.613281 482.144531 488.613281 L 548.742188 488.613281 C 554.101562 488.613281 558.46875 492.980469 558.46875 498.339844 L 558.46875 564.9375 C 558.367188 570.394531 554.101562 574.664062 548.742188 574.664062 Z M 548.742188 574.664062 " fill-opacity="1" fill-rule="nonzero"/><path fill="#000173" d="M 548.742188 711.328125 L 482.144531 711.328125 C 476.785156 711.328125 472.417969 706.960938 472.417969 701.601562 L 472.417969 635.007812 C 472.417969 629.648438 476.785156 625.28125 482.144531 625.28125 L 548.742188 625.28125 C 554.101562 625.28125 558.46875 629.648438 558.46875 635.007812 L 558.46875 701.703125 C 558.367188 706.960938 554.101562 711.328125 548.742188 711.328125 Z M 548.742188 711.328125 " fill-opacity="1" fill-rule="nonzero"/><path fill="#000173" d="M 685.308594 438.09375 L 618.710938 438.09375 C 613.351562 438.09375 608.984375 433.726562 608.984375 428.367188 L 608.984375 361.773438 C 608.984375 356.414062 613.351562 352.046875 618.710938 352.046875 L 685.308594 352.046875 C 690.667969 352.046875 695.035156 356.414062 695.035156 361.773438 L 695.035156 428.367188 C 695.035156 433.726562 690.667969 438.09375 685.308594 438.09375 Z M 685.308594 438.09375 " fill-opacity="1" fill-rule="nonzero"/><path fill="#000173" d="M 685.308594 574.664062 L 618.710938 574.664062 C 613.351562 574.664062 608.984375 570.296875 608.984375 564.9375 L 608.984375 498.339844 C 608.984375 492.980469 613.351562 488.613281 618.710938 488.613281 L 685.308594 488.613281 C 690.667969 488.613281 695.035156 492.980469 695.035156 498.339844 L 695.035156 564.9375 C 695.035156 570.394531 690.667969 574.664062 685.308594 574.664062 Z M 685.308594 574.664062 " fill-opacity="1" fill-rule="nonzero"/><path fill="#000173" d="M 685.308594 711.328125 L 618.710938 711.328125 C 613.351562 711.328125 608.984375 706.960938 608.984375 701.601562 L 608.984375 635.007812 C 608.984375 629.648438 613.351562 625.28125 618.710938 625.28125 L 685.308594 625.28125 C 690.667969 625.28125 695.035156 629.648438 695.035156 635.007812 L 695.035156 701.703125 C 695.035156 706.960938 690.667969 711.328125 685.308594 711.328125 Z M 685.308594 711.328125 " fill-opacity="1" fill-rule="nonzero"/><path fill="#000173" d="M 821.976562 438.09375 L 755.378906 438.09375 C 750.019531 438.09375 745.652344 433.726562 745.652344 428.367188 L 745.652344 361.773438 C 745.652344 356.414062 750.019531 352.046875 755.378906 352.046875 L 821.976562 352.046875 C 827.335938 352.046875 831.703125 356.414062 831.703125 361.773438 L 831.703125 428.367188 C 831.601562 433.726562 827.335938 438.09375 821.976562 438.09375 Z M 821.976562 438.09375 " fill-opacity="1" fill-rule="nonzero"/><path fill="#000173" d="M 821.976562 574.664062 L 755.378906 574.664062 C 750.019531 574.664062 745.652344 570.296875 745.652344 564.9375 L 745.652344 498.339844 C 745.652344 492.980469 750.019531 488.613281 755.378906 488.613281 L 821.976562 488.613281 C 827.335938 488.613281 831.703125 492.980469 831.703125 498.339844 L 831.703125 564.9375 C 831.601562 570.394531 827.335938 574.664062 821.976562 574.664062 Z M 821.976562 574.664062 " fill-opacity="1" fill-rule="nonzero"/><path fill="#000173" d="M 821.976562 711.328125 L 755.378906 711.328125 C 750.019531 711.328125 745.652344 706.960938 745.652344 701.601562 L 745.652344 635.007812 C 745.652344 629.648438 750.019531 625.28125 755.378906 625.28125 L 821.976562 625.28125 C 827.335938 625.28125 831.703125 629.648438 831.703125 635.007812 L 831.703125 701.703125 C 831.601562 706.960938 827.335938 711.328125 821.976562 711.328125 Z M 821.976562 711.328125 " fill-opacity="1" fill-rule="nonzero"/><path fill="#000173" d="M 958.640625 438.09375 L 892.046875 438.09375 C 886.6875 438.09375 882.320312 433.726562 882.320312 428.367188 L 882.320312 361.773438 C 882.320312 356.414062 886.6875 352.046875 892.046875 352.046875 L 958.640625 352.046875 C 964 352.046875 968.367188 356.414062 968.367188 361.773438 L 968.367188 428.367188 C 968.269531 433.726562 963.902344 438.09375 958.640625 438.09375 Z M 958.640625 438.09375 " fill-opacity="1" fill-rule="nonzero"/><path fill="#000173" d="M 958.640625 574.664062 L 892.046875 574.664062 C 886.6875 574.664062 882.320312 570.296875 882.320312 564.9375 L 882.320312 498.339844 C 882.320312 492.980469 886.6875 488.613281 892.046875 488.613281 L 958.640625 488.613281 C 964 488.613281 968.367188 492.980469 968.367188 498.339844 L 968.367188 564.9375 C 968.269531 570.394531 963.902344 574.664062 958.640625 574.664062 Z M 958.640625 574.664062 " fill-opacity="1" fill-rule="nonzero"/></svg>