<svg xmlns="http://www.w3.org/2000/svg" xmlns:xlink="http://www.w3.org/1999/xlink" width="1920" zoomAndPan="magnify" viewBox="0 0 1440 809.999993" height="1080" preserveAspectRatio="xMidYMid meet" version="1.0"><defs><clipPath id="05db2d470c"><path d="M 527 6 L 913 6 L 913 807.460938 L 527 807.460938 Z M 527 6 " clip-rule="nonzero"/></clipPath><clipPath id="0bf76a340c"><path d="M 801 249 L 1233 249 L 1233 807.460938 L 801 807.460938 Z M 801 249 " clip-rule="nonzero"/></clipPath><clipPath id="91b19468e1"><path d="M 207 249 L 633 249 L 633 807.460938 L 207 807.460938 Z M 207 249 " clip-rule="nonzero"/></clipPath></defs><g clip-path="url(#05db2d470c)"><path fill="#000173" d="M 726.417969 216.082031 L 726.417969 113.285156 C 745.558594 109.277344 765.167969 112.351562 785.785156 115.597656 C 799.898438 117.820312 814.277344 120.085938 828.917969 120.085938 C 840.347656 120.203125 851.527344 118.585938 862.453125 115.234375 L 869.96875 112.867188 L 869.96875 6.625 L 856 11.019531 C 834.480469 17.796875 812.453125 14.332031 789.125 10.65625 C 764.378906 6.757812 738.789062 2.726562 712.460938 11.019531 L 704.945312 13.386719 L 704.945312 216.9375 L 527.214844 396.761719 L 527.214844 807.191406 L 632.457031 807.191406 L 632.457031 648.066406 C 632.457031 600.261719 670.097656 560.039062 717.886719 558.910156 C 719.339844 558.878906 720.792969 558.882812 722.25 558.917969 C 723.703125 558.957031 725.152344 559.035156 726.605469 559.144531 C 728.054688 559.257812 729.5 559.402344 730.941406 559.585938 C 732.386719 559.769531 733.820312 559.988281 735.253906 560.242188 C 736.683594 560.5 738.109375 560.789062 739.527344 561.113281 C 740.945312 561.441406 742.351562 561.800781 743.75 562.195312 C 745.152344 562.59375 746.539062 563.023438 747.917969 563.488281 C 749.296875 563.953125 750.660156 564.453125 752.011719 564.984375 C 753.367188 565.519531 754.707031 566.082031 756.03125 566.683594 C 757.355469 567.28125 758.664062 567.914062 759.957031 568.578125 C 761.25 569.246094 762.527344 569.941406 763.785156 570.667969 C 765.042969 571.398438 766.285156 572.15625 767.503906 572.945312 C 768.726562 573.734375 769.925781 574.554688 771.105469 575.40625 C 772.285156 576.253906 773.445312 577.132812 774.582031 578.042969 C 775.71875 578.949219 776.832031 579.882812 777.921875 580.847656 C 779.011719 581.808594 780.074219 582.796875 781.117188 583.8125 C 782.15625 584.832031 783.171875 585.871094 784.160156 586.9375 C 785.148438 588.003906 786.109375 589.09375 787.042969 590.207031 C 787.980469 591.324219 788.886719 592.460938 789.761719 593.617188 C 790.640625 594.777344 791.488281 595.957031 792.308594 597.160156 C 793.128906 598.359375 793.917969 599.582031 794.675781 600.824219 C 795.433594 602.0625 796.160156 603.324219 796.855469 604.597656 C 797.550781 605.875 798.214844 607.171875 798.847656 608.480469 C 799.476562 609.789062 800.074219 611.113281 800.640625 612.453125 C 801.207031 613.792969 801.738281 615.148438 802.234375 616.511719 C 802.734375 617.878906 803.195312 619.257812 803.625 620.648438 C 804.054688 622.035156 804.449219 623.433594 804.808594 624.84375 C 805.171875 626.253906 805.496094 627.671875 805.785156 629.09375 C 806.074219 630.519531 806.328125 631.953125 806.542969 633.390625 C 806.761719 634.828125 806.945312 636.269531 807.089844 637.714844 C 807.238281 639.164062 807.347656 640.613281 807.421875 642.066406 C 807.496094 643.515625 807.53125 644.96875 807.535156 646.425781 L 807.535156 807.191406 L 912.777344 807.191406 L 912.777344 396.9375 Z M 719.996094 485.765625 C 718.441406 485.765625 716.890625 485.730469 715.339844 485.652344 C 713.789062 485.578125 712.242188 485.460938 710.695312 485.3125 C 709.148438 485.160156 707.609375 484.96875 706.074219 484.742188 C 704.539062 484.511719 703.007812 484.246094 701.484375 483.945312 C 699.960938 483.640625 698.445312 483.300781 696.941406 482.925781 C 695.433594 482.546875 693.9375 482.132812 692.453125 481.683594 C 690.964844 481.230469 689.492188 480.746094 688.03125 480.222656 C 686.566406 479.699219 685.121094 479.140625 683.683594 478.546875 C 682.25 477.949219 680.832031 477.320312 679.425781 476.65625 C 678.023438 475.992188 676.636719 475.296875 675.265625 474.5625 C 673.898438 473.832031 672.546875 473.066406 671.214844 472.269531 C 669.882812 471.46875 668.570312 470.640625 667.28125 469.777344 C 665.988281 468.914062 664.71875 468.019531 663.472656 467.09375 C 662.226562 466.171875 661 465.214844 659.800781 464.230469 C 658.601562 463.246094 657.425781 462.230469 656.273438 461.1875 C 655.125 460.144531 654 459.074219 652.902344 457.976562 C 651.804688 456.878906 650.734375 455.753906 649.691406 454.605469 C 648.648438 453.453125 647.632812 452.277344 646.648438 451.078125 C 645.664062 449.875 644.707031 448.652344 643.78125 447.40625 C 642.859375 446.160156 641.964844 444.890625 641.101562 443.597656 C 640.238281 442.308594 639.40625 440.996094 638.609375 439.664062 C 637.8125 438.332031 637.046875 436.980469 636.3125 435.613281 C 635.582031 434.242188 634.882812 432.855469 634.21875 431.453125 C 633.554688 430.046875 632.925781 428.628906 632.332031 427.195312 C 631.738281 425.757812 631.179688 424.3125 630.65625 422.847656 C 630.132812 421.386719 629.648438 419.914062 629.195312 418.425781 C 628.746094 416.941406 628.332031 415.445312 627.953125 413.9375 C 627.578125 412.433594 627.234375 410.917969 626.933594 409.394531 C 626.628906 407.871094 626.363281 406.339844 626.136719 404.804688 C 625.910156 403.269531 625.71875 401.730469 625.566406 400.183594 C 625.414062 398.636719 625.300781 397.089844 625.222656 395.539062 C 625.148438 393.988281 625.109375 392.4375 625.109375 390.882812 C 625.109375 389.332031 625.148438 387.777344 625.222656 386.226562 C 625.300781 384.675781 625.414062 383.128906 625.566406 381.582031 C 625.71875 380.039062 625.910156 378.496094 626.136719 376.960938 C 626.363281 375.425781 626.628906 373.894531 626.933594 372.371094 C 627.234375 370.847656 627.574219 369.335938 627.953125 367.828125 C 628.332031 366.320312 628.746094 364.824219 629.195312 363.339844 C 629.644531 361.851562 630.132812 360.378906 630.65625 358.917969 C 631.179688 357.457031 631.738281 356.007812 632.332031 354.570312 C 632.925781 353.136719 633.554688 351.71875 634.21875 350.316406 C 634.882812 348.910156 635.582031 347.523438 636.3125 346.15625 C 637.046875 344.785156 637.8125 343.433594 638.609375 342.101562 C 639.40625 340.769531 640.238281 339.460938 641.101562 338.167969 C 641.964844 336.875 642.855469 335.609375 643.78125 334.359375 C 644.707031 333.113281 645.664062 331.890625 646.648438 330.6875 C 647.632812 329.488281 648.648438 328.3125 649.691406 327.164062 C 650.730469 326.011719 651.804688 324.886719 652.902344 323.789062 C 654 322.691406 655.125 321.621094 656.273438 320.578125 C 657.425781 319.535156 658.601562 318.519531 659.800781 317.535156 C 661 316.550781 662.222656 315.597656 663.472656 314.671875 C 664.71875 313.746094 665.988281 312.851562 667.28125 311.988281 C 668.570312 311.125 669.882812 310.296875 671.214844 309.496094 C 672.546875 308.699219 673.898438 307.933594 675.265625 307.203125 C 676.636719 306.46875 678.023438 305.773438 679.425781 305.109375 C 680.828125 304.445312 682.25 303.816406 683.683594 303.222656 C 685.117188 302.625 686.566406 302.066406 688.027344 301.542969 C 689.492188 301.023438 690.964844 300.535156 692.449219 300.085938 C 693.9375 299.632812 695.433594 299.21875 696.9375 298.84375 C 698.445312 298.464844 699.960938 298.125 701.484375 297.820312 C 703.007812 297.519531 704.535156 297.253906 706.070312 297.023438 C 707.609375 296.796875 709.148438 296.609375 710.695312 296.457031 C 712.238281 296.304688 713.789062 296.1875 715.339844 296.113281 C 716.890625 296.035156 718.441406 296 719.996094 296 C 721.546875 296 723.097656 296.035156 724.648438 296.113281 C 726.203125 296.1875 727.75 296.304688 729.292969 296.457031 C 730.839844 296.605469 732.382812 296.796875 733.917969 297.023438 C 735.453125 297.253906 736.984375 297.519531 738.503906 297.820312 C 740.027344 298.125 741.542969 298.464844 743.050781 298.84375 C 744.554688 299.21875 746.050781 299.632812 747.539062 300.082031 C 749.023438 300.535156 750.496094 301.023438 751.960938 301.542969 C 753.421875 302.066406 754.871094 302.625 756.304688 303.222656 C 757.738281 303.816406 759.160156 304.445312 760.5625 305.109375 C 761.964844 305.773438 763.351562 306.46875 764.722656 307.203125 C 766.09375 307.933594 767.441406 308.699219 768.773438 309.496094 C 770.105469 310.296875 771.417969 311.125 772.710938 311.988281 C 774 312.851562 775.269531 313.746094 776.515625 314.671875 C 777.765625 315.597656 778.988281 316.550781 780.1875 317.535156 C 781.390625 318.519531 782.566406 319.535156 783.714844 320.578125 C 784.867188 321.621094 785.988281 322.691406 787.089844 323.789062 C 788.1875 324.886719 789.257812 326.011719 790.300781 327.164062 C 791.34375 328.3125 792.355469 329.488281 793.339844 330.6875 C 794.328125 331.890625 795.28125 333.113281 796.207031 334.359375 C 797.132812 335.605469 798.027344 336.875 798.886719 338.167969 C 799.75 339.457031 800.582031 340.769531 801.378906 342.101562 C 802.179688 343.433594 802.941406 344.785156 803.675781 346.15625 C 804.40625 347.523438 805.105469 348.910156 805.769531 350.3125 C 806.433594 351.71875 807.0625 353.136719 807.65625 354.570312 C 808.25 356.007812 808.808594 357.453125 809.332031 358.917969 C 809.855469 360.378906 810.34375 361.851562 810.792969 363.339844 C 811.246094 364.824219 811.660156 366.320312 812.035156 367.828125 C 812.414062 369.335938 812.753906 370.847656 813.054688 372.371094 C 813.359375 373.894531 813.625 375.425781 813.851562 376.960938 C 814.078125 378.496094 814.269531 380.039062 814.421875 381.582031 C 814.574219 383.128906 814.6875 384.675781 814.765625 386.226562 C 814.839844 387.777344 814.878906 389.332031 814.878906 390.882812 C 814.878906 392.433594 814.835938 393.988281 814.761719 395.535156 C 814.683594 397.085938 814.566406 398.636719 814.414062 400.179688 C 814.257812 401.722656 814.066406 403.265625 813.839844 404.800781 C 813.609375 406.335938 813.34375 407.863281 813.039062 409.386719 C 812.734375 410.910156 812.394531 412.421875 812.015625 413.929688 C 811.636719 415.433594 811.222656 416.929688 810.769531 418.414062 C 810.316406 419.898438 809.832031 421.371094 809.304688 422.835938 C 808.78125 424.296875 808.222656 425.742188 807.628906 427.175781 C 807.035156 428.609375 806.402344 430.027344 805.738281 431.433594 C 805.074219 432.835938 804.375 434.222656 803.644531 435.589844 C 802.910156 436.957031 802.144531 438.308594 801.347656 439.640625 C 800.550781 440.972656 799.71875 442.28125 798.855469 443.574219 C 797.992188 444.863281 797.097656 446.132812 796.175781 447.378906 C 795.25 448.625 794.292969 449.847656 793.308594 451.046875 C 792.324219 452.246094 791.308594 453.421875 790.269531 454.574219 C 789.226562 455.722656 788.15625 456.847656 787.058594 457.945312 C 785.960938 459.042969 784.835938 460.113281 783.6875 461.15625 C 782.535156 462.199219 781.359375 463.210938 780.160156 464.195312 C 778.960938 465.183594 777.738281 466.136719 776.492188 467.0625 C 775.242188 467.988281 773.976562 468.878906 772.683594 469.742188 C 771.394531 470.605469 770.082031 471.4375 768.753906 472.234375 C 767.421875 473.035156 766.070312 473.800781 764.703125 474.53125 C 763.332031 475.265625 761.949219 475.960938 760.546875 476.628906 C 759.140625 477.292969 757.722656 477.921875 756.289062 478.515625 C 754.855469 479.109375 753.40625 479.671875 751.945312 480.195312 C 750.484375 480.71875 749.011719 481.207031 747.527344 481.65625 C 746.042969 482.109375 744.546875 482.523438 743.042969 482.902344 C 741.535156 483.28125 740.023438 483.621094 738.5 483.925781 C 736.976562 484.230469 735.449219 484.496094 733.914062 484.726562 C 732.378906 484.957031 730.835938 485.148438 729.292969 485.300781 C 727.746094 485.453125 726.199219 485.570312 724.648438 485.648438 C 723.097656 485.726562 721.546875 485.765625 719.996094 485.765625 Z M 719.996094 485.765625 " fill-opacity="1" fill-rule="nonzero"/></g><path fill="#000173" d="M 719.996094 324.628906 C 718.910156 324.628906 717.828125 324.65625 716.746094 324.707031 C 715.660156 324.761719 714.582031 324.839844 713.5 324.945312 C 712.421875 325.054688 711.347656 325.1875 710.273438 325.34375 C 709.203125 325.503906 708.132812 325.6875 707.070312 325.902344 C 706.007812 326.113281 704.949219 326.351562 703.898438 326.613281 C 702.84375 326.875 701.800781 327.164062 700.761719 327.480469 C 699.726562 327.796875 698.695312 328.136719 697.675781 328.5 C 696.652344 328.867188 695.640625 329.257812 694.640625 329.671875 C 693.636719 330.085938 692.648438 330.523438 691.667969 330.988281 C 690.6875 331.453125 689.71875 331.941406 688.761719 332.449219 C 687.804688 332.960938 686.863281 333.496094 685.933594 334.054688 C 685.003906 334.613281 684.085938 335.191406 683.183594 335.792969 C 682.285156 336.394531 681.398438 337.019531 680.527344 337.667969 C 679.65625 338.3125 678.800781 338.980469 677.960938 339.667969 C 677.125 340.355469 676.304688 341.0625 675.5 341.792969 C 674.695312 342.519531 673.910156 343.265625 673.144531 344.035156 C 672.378906 344.800781 671.628906 345.585938 670.902344 346.390625 C 670.175781 347.191406 669.464844 348.011719 668.777344 348.851562 C 668.089844 349.691406 667.421875 350.542969 666.777344 351.414062 C 666.132812 352.285156 665.507812 353.171875 664.90625 354.074219 C 664.300781 354.976562 663.722656 355.890625 663.164062 356.820312 C 662.605469 357.75 662.074219 358.695312 661.5625 359.652344 C 661.050781 360.605469 660.5625 361.574219 660.097656 362.554688 C 659.636719 363.535156 659.195312 364.527344 658.78125 365.527344 C 658.367188 366.53125 657.976562 367.542969 657.609375 368.5625 C 657.246094 369.582031 656.90625 370.613281 656.589844 371.652344 C 656.277344 372.6875 655.988281 373.734375 655.722656 374.785156 C 655.460938 375.835938 655.222656 376.894531 655.011719 377.957031 C 654.800781 379.023438 654.613281 380.089844 654.457031 381.164062 C 654.296875 382.234375 654.164062 383.3125 654.058594 384.390625 C 653.949219 385.46875 653.871094 386.550781 653.816406 387.632812 C 653.765625 388.714844 653.738281 389.800781 653.738281 390.882812 C 653.738281 391.96875 653.765625 393.050781 653.816406 394.136719 C 653.871094 395.21875 653.949219 396.300781 654.058594 397.378906 C 654.164062 398.457031 654.296875 399.535156 654.453125 400.605469 C 654.613281 401.679688 654.800781 402.746094 655.011719 403.808594 C 655.222656 404.875 655.460938 405.929688 655.722656 406.984375 C 655.988281 408.035156 656.277344 409.078125 656.589844 410.117188 C 656.90625 411.15625 657.246094 412.183594 657.609375 413.207031 C 657.976562 414.226562 658.367188 415.238281 658.78125 416.238281 C 659.195312 417.242188 659.636719 418.230469 660.097656 419.210938 C 660.5625 420.191406 661.050781 421.160156 661.5625 422.117188 C 662.074219 423.074219 662.605469 424.015625 663.164062 424.945312 C 663.722656 425.878906 664.300781 426.792969 664.902344 427.695312 C 665.507812 428.597656 666.128906 429.480469 666.777344 430.351562 C 667.421875 431.222656 668.089844 432.078125 668.777344 432.917969 C 669.464844 433.753906 670.171875 434.574219 670.902344 435.378906 C 671.628906 436.183594 672.378906 436.96875 673.144531 437.734375 C 673.910156 438.5 674.695312 439.25 675.5 439.976562 C 676.300781 440.707031 677.125 441.414062 677.960938 442.101562 C 678.800781 442.789062 679.652344 443.457031 680.523438 444.101562 C 681.394531 444.746094 682.28125 445.371094 683.183594 445.972656 C 684.085938 446.578125 685 447.15625 685.929688 447.714844 C 686.863281 448.273438 687.804688 448.804688 688.761719 449.316406 C 689.71875 449.828125 690.6875 450.316406 691.664062 450.78125 C 692.644531 451.242188 693.636719 451.683594 694.640625 452.097656 C 695.640625 452.511719 696.652344 452.902344 697.671875 453.269531 C 698.695312 453.632812 699.722656 453.972656 700.761719 454.289062 C 701.796875 454.601562 702.84375 454.890625 703.894531 455.15625 C 704.945312 455.417969 706.003906 455.65625 707.070312 455.867188 C 708.132812 456.078125 709.199219 456.265625 710.273438 456.421875 C 711.34375 456.582031 712.421875 456.714844 713.5 456.820312 C 714.578125 456.929688 715.660156 457.007812 716.742188 457.0625 C 717.828125 457.113281 718.910156 457.140625 719.996094 457.140625 C 721.078125 457.140625 722.164062 457.113281 723.246094 457.0625 C 724.328125 457.007812 725.410156 456.929688 726.488281 456.820312 C 727.566406 456.714844 728.644531 456.582031 729.714844 456.421875 C 730.789062 456.265625 731.855469 456.078125 732.921875 455.867188 C 733.984375 455.65625 735.042969 455.417969 736.09375 455.15625 C 737.144531 454.890625 738.191406 454.601562 739.226562 454.289062 C 740.265625 453.972656 741.296875 453.632812 742.316406 453.265625 C 743.335938 452.902344 744.347656 452.511719 745.351562 452.097656 C 746.351562 451.683594 747.34375 451.242188 748.324219 450.777344 C 749.304688 450.316406 750.273438 449.828125 751.226562 449.316406 C 752.183594 448.804688 753.128906 448.273438 754.058594 447.714844 C 754.988281 447.15625 755.902344 446.578125 756.804688 445.972656 C 757.707031 445.371094 758.59375 444.746094 759.464844 444.101562 C 760.335938 443.457031 761.191406 442.789062 762.027344 442.101562 C 762.867188 441.414062 763.6875 440.703125 764.488281 439.976562 C 765.292969 439.25 766.078125 438.5 766.84375 437.734375 C 767.613281 436.96875 768.359375 436.183594 769.085938 435.378906 C 769.816406 434.574219 770.523438 433.753906 771.210938 432.917969 C 771.898438 432.078125 772.566406 431.222656 773.210938 430.351562 C 773.859375 429.480469 774.484375 428.59375 775.085938 427.695312 C 775.6875 426.792969 776.269531 425.875 776.824219 424.945312 C 777.382812 424.015625 777.917969 423.074219 778.429688 422.117188 C 778.9375 421.160156 779.425781 420.191406 779.890625 419.210938 C 780.355469 418.230469 780.792969 417.242188 781.207031 416.238281 C 781.621094 415.238281 782.011719 414.226562 782.378906 413.203125 C 782.742188 412.183594 783.082031 411.152344 783.398438 410.117188 C 783.714844 409.078125 784.003906 408.035156 784.265625 406.980469 C 784.527344 405.929688 784.765625 404.871094 784.976562 403.808594 C 785.191406 402.746094 785.375 401.675781 785.535156 400.605469 C 785.691406 399.53125 785.824219 398.457031 785.933594 397.378906 C 786.039062 396.296875 786.117188 395.21875 786.171875 394.132812 C 786.222656 393.050781 786.25 391.96875 786.25 390.882812 C 786.25 389.800781 786.222656 388.714844 786.167969 387.632812 C 786.113281 386.550781 786.03125 385.46875 785.925781 384.390625 C 785.816406 383.3125 785.683594 382.238281 785.523438 381.164062 C 785.363281 380.09375 785.179688 379.027344 784.964844 377.960938 C 784.753906 376.898438 784.515625 375.84375 784.25 374.792969 C 783.988281 373.738281 783.695312 372.695312 783.382812 371.660156 C 783.066406 370.621094 782.726562 369.59375 782.359375 368.574219 C 781.992188 367.550781 781.601562 366.542969 781.1875 365.539062 C 780.773438 364.539062 780.332031 363.546875 779.867188 362.570312 C 779.40625 361.589844 778.917969 360.621094 778.40625 359.664062 C 777.894531 358.710938 777.359375 357.765625 776.800781 356.835938 C 776.246094 355.90625 775.664062 354.992188 775.0625 354.089844 C 774.460938 353.191406 773.835938 352.304688 773.1875 351.433594 C 772.542969 350.5625 771.875 349.710938 771.1875 348.871094 C 770.5 348.035156 769.792969 347.214844 769.066406 346.410156 C 768.335938 345.605469 767.589844 344.820312 766.824219 344.054688 C 766.058594 343.289062 765.273438 342.542969 764.46875 341.8125 C 763.664062 341.085938 762.84375 340.378906 762.007812 339.691406 C 761.167969 339.003906 760.316406 338.335938 759.445312 337.6875 C 758.574219 337.042969 757.6875 336.417969 756.789062 335.816406 C 755.886719 335.214844 754.972656 334.632812 754.042969 334.078125 C 753.113281 333.519531 752.167969 332.984375 751.214844 332.472656 C 750.257812 331.960938 749.289062 331.472656 748.308594 331.011719 C 747.332031 330.546875 746.339844 330.105469 745.339844 329.691406 C 744.335938 329.277344 743.328125 328.886719 742.304688 328.519531 C 741.285156 328.152344 740.257812 327.8125 739.21875 327.496094 C 738.183594 327.183594 737.140625 326.890625 736.085938 326.628906 C 735.035156 326.363281 733.980469 326.125 732.917969 325.914062 C 731.851562 325.699219 730.785156 325.515625 729.714844 325.355469 C 728.640625 325.195312 727.566406 325.0625 726.488281 324.953125 C 725.410156 324.847656 724.328125 324.765625 723.246094 324.710938 C 722.164062 324.65625 721.078125 324.628906 719.996094 324.628906 Z M 758.335938 400.421875 L 719.996094 400.421875 C 719.371094 400.421875 718.75 400.359375 718.132812 400.238281 C 717.519531 400.117188 716.921875 399.933594 716.34375 399.695312 C 715.765625 399.453125 715.214844 399.160156 714.695312 398.8125 C 714.171875 398.464844 713.691406 398.070312 713.25 397.625 C 712.804688 397.183594 712.410156 396.699219 712.0625 396.179688 C 711.714844 395.660156 711.417969 395.109375 711.179688 394.53125 C 710.941406 393.953125 710.757812 393.355469 710.636719 392.742188 C 710.515625 392.125 710.453125 391.503906 710.453125 390.878906 L 710.453125 352.546875 C 710.453125 351.917969 710.515625 351.296875 710.636719 350.683594 C 710.757812 350.070312 710.941406 349.472656 711.179688 348.894531 C 711.417969 348.316406 711.714844 347.765625 712.0625 347.242188 C 712.410156 346.722656 712.804688 346.242188 713.25 345.796875 C 713.691406 345.355469 714.171875 344.957031 714.695312 344.609375 C 715.214844 344.261719 715.765625 343.96875 716.34375 343.730469 C 716.921875 343.488281 717.519531 343.308594 718.132812 343.1875 C 718.75 343.0625 719.371094 343.003906 719.996094 343.003906 C 720.621094 343.003906 721.242188 343.0625 721.859375 343.1875 C 722.472656 343.308594 723.070312 343.488281 723.648438 343.730469 C 724.226562 343.96875 724.777344 344.261719 725.296875 344.609375 C 725.820312 344.957031 726.300781 345.355469 726.742188 345.796875 C 727.1875 346.242188 727.582031 346.722656 727.929688 347.242188 C 728.277344 347.765625 728.574219 348.316406 728.8125 348.894531 C 729.050781 349.472656 729.234375 350.070312 729.355469 350.683594 C 729.476562 351.296875 729.539062 351.917969 729.539062 352.546875 L 729.539062 381.339844 L 758.335938 381.339844 C 758.960938 381.339844 759.582031 381.402344 760.195312 381.523438 C 760.8125 381.644531 761.40625 381.828125 761.988281 382.066406 C 762.566406 382.304688 763.117188 382.601562 763.636719 382.949219 C 764.15625 383.296875 764.640625 383.691406 765.082031 384.136719 C 765.527344 384.578125 765.921875 385.058594 766.269531 385.582031 C 766.617188 386.101562 766.910156 386.652344 767.152344 387.230469 C 767.390625 387.808594 767.570312 388.40625 767.695312 389.019531 C 767.816406 389.636719 767.878906 390.257812 767.878906 390.882812 C 767.878906 391.507812 767.816406 392.128906 767.695312 392.746094 C 767.570312 393.359375 767.390625 393.957031 767.152344 394.535156 C 766.910156 395.113281 766.617188 395.664062 766.269531 396.183594 C 765.921875 396.707031 765.527344 397.1875 765.082031 397.628906 C 764.640625 398.074219 764.15625 398.46875 763.636719 398.816406 C 763.117188 399.164062 762.566406 399.460938 761.988281 399.699219 C 761.40625 399.9375 760.8125 400.121094 760.195312 400.242188 C 759.582031 400.363281 758.960938 400.425781 758.335938 400.425781 Z M 758.335938 400.421875 " fill-opacity="1" fill-rule="nonzero"/><g clip-path="url(#0bf76a340c)"><path fill="#000173" d="M 1218.140625 778.5625 L 1167.683594 778.5625 L 1167.683594 405.203125 L 1214.636719 405.203125 C 1215.578125 405.203125 1216.507812 405.113281 1217.429688 404.929688 C 1218.351562 404.746094 1219.246094 404.472656 1220.117188 404.113281 C 1220.984375 403.753906 1221.808594 403.3125 1222.589844 402.792969 C 1223.371094 402.269531 1224.09375 401.675781 1224.761719 401.011719 C 1225.425781 400.347656 1226.019531 399.625 1226.539062 398.84375 C 1227.0625 398.0625 1227.503906 397.234375 1227.863281 396.367188 C 1228.222656 395.5 1228.492188 394.605469 1228.675781 393.683594 C 1228.859375 392.761719 1228.953125 391.828125 1228.953125 390.890625 L 1228.953125 359.5 C 1228.953125 358.484375 1228.84375 357.476562 1228.628906 356.484375 C 1228.417969 355.488281 1228.101562 354.527344 1227.679688 353.601562 C 1227.261719 352.675781 1226.75 351.804688 1226.144531 350.984375 C 1225.539062 350.167969 1224.855469 349.421875 1224.09375 348.75 L 1115.003906 252.796875 C 1113.695312 251.648438 1112.226562 250.765625 1110.601562 250.152344 C 1108.972656 249.535156 1107.289062 249.230469 1105.546875 249.230469 L 801.683594 249.230469 L 932.894531 376.570312 L 937.0625 380.605469 C 938.449219 381.953125 939.519531 383.519531 940.273438 385.300781 C 941.027344 387.082031 941.40625 388.941406 941.40625 390.878906 L 941.40625 807.191406 L 1218.140625 807.191406 C 1219.089844 807.199219 1220.027344 807.117188 1220.957031 806.941406 C 1221.882812 806.765625 1222.789062 806.5 1223.664062 806.144531 C 1224.539062 805.789062 1225.375 805.351562 1226.164062 804.828125 C 1226.953125 804.308594 1227.683594 803.714844 1228.355469 803.050781 C 1229.027344 802.382812 1229.628906 801.660156 1230.15625 800.875 C 1230.6875 800.089844 1231.132812 799.261719 1231.496094 798.386719 C 1231.859375 797.515625 1232.136719 796.613281 1232.320312 795.6875 C 1232.507812 794.761719 1232.601562 793.824219 1232.601562 792.878906 C 1232.601562 791.929688 1232.507812 790.996094 1232.320312 790.066406 C 1232.136719 789.140625 1231.859375 788.238281 1231.496094 787.367188 C 1231.132812 786.492188 1230.6875 785.664062 1230.15625 784.878906 C 1229.628906 784.097656 1229.027344 783.371094 1228.355469 782.703125 C 1227.683594 782.039062 1226.953125 781.445312 1226.164062 780.925781 C 1225.375 780.40625 1224.539062 779.96875 1223.664062 779.613281 C 1222.789062 779.257812 1221.882812 778.992188 1220.957031 778.8125 C 1220.027344 778.636719 1219.089844 778.554688 1218.140625 778.5625 Z M 1093.039062 694.929688 C 1093.039062 695.871094 1092.945312 696.800781 1092.761719 697.722656 C 1092.578125 698.644531 1092.308594 699.539062 1091.945312 700.40625 C 1091.585938 701.277344 1091.144531 702.101562 1090.625 702.882812 C 1090.101562 703.664062 1089.507812 704.386719 1088.84375 705.050781 C 1088.175781 705.714844 1087.453125 706.308594 1086.671875 706.832031 C 1085.890625 707.351562 1085.066406 707.792969 1084.199219 708.152344 C 1083.328125 708.511719 1082.433594 708.785156 1081.511719 708.96875 C 1080.589844 709.148438 1079.660156 709.242188 1078.71875 709.242188 L 1005.496094 709.242188 C 1004.558594 709.242188 1003.625 709.148438 1002.703125 708.964844 C 1001.78125 708.78125 1000.886719 708.511719 1000.019531 708.152344 C 999.152344 707.792969 998.328125 707.351562 997.542969 706.828125 C 996.761719 706.304688 996.039062 705.714844 995.375 705.046875 C 994.710938 704.382812 994.117188 703.660156 993.597656 702.878906 C 993.074219 702.097656 992.632812 701.273438 992.273438 700.40625 C 991.914062 699.535156 991.640625 698.640625 991.457031 697.71875 C 991.273438 696.796875 991.183594 695.867188 991.183594 694.925781 L 991.183594 621.699219 C 991.183594 620.761719 991.273438 619.832031 991.457031 618.910156 C 991.640625 617.988281 991.914062 617.089844 992.273438 616.222656 C 992.632812 615.355469 993.074219 614.53125 993.597656 613.75 C 994.117188 612.96875 994.710938 612.246094 995.375 611.578125 C 996.039062 610.914062 996.761719 610.320312 997.542969 609.800781 C 998.328125 609.277344 999.152344 608.835938 1000.019531 608.476562 C 1000.886719 608.117188 1001.78125 607.847656 1002.703125 607.664062 C 1003.625 607.480469 1004.558594 607.386719 1005.496094 607.386719 L 1078.71875 607.386719 C 1079.660156 607.386719 1080.589844 607.480469 1081.511719 607.664062 C 1082.433594 607.847656 1083.328125 608.117188 1084.195312 608.476562 C 1085.066406 608.835938 1085.890625 609.277344 1086.671875 609.800781 C 1087.453125 610.320312 1088.175781 610.914062 1088.839844 611.578125 C 1089.503906 612.246094 1090.097656 612.96875 1090.621094 613.75 C 1091.140625 614.53125 1091.582031 615.355469 1091.941406 616.222656 C 1092.300781 617.089844 1092.574219 617.988281 1092.757812 618.910156 C 1092.941406 619.832031 1093.03125 620.761719 1093.03125 621.699219 Z M 1093.039062 560.140625 C 1093.039062 561.078125 1092.945312 562.011719 1092.761719 562.933594 C 1092.578125 563.855469 1092.304688 564.75 1091.945312 565.617188 C 1091.585938 566.484375 1091.144531 567.3125 1090.625 568.09375 C 1090.101562 568.875 1089.507812 569.597656 1088.84375 570.261719 C 1088.175781 570.925781 1087.453125 571.519531 1086.671875 572.039062 C 1085.890625 572.5625 1085.066406 573.003906 1084.195312 573.363281 C 1083.328125 573.722656 1082.433594 573.992188 1081.511719 574.175781 C 1080.589844 574.359375 1079.660156 574.449219 1078.71875 574.449219 L 1005.496094 574.449219 C 1004.558594 574.449219 1003.625 574.359375 1002.703125 574.175781 C 1001.78125 573.992188 1000.886719 573.71875 1000.019531 573.359375 C 999.152344 573 998.328125 572.558594 997.546875 572.039062 C 996.765625 571.515625 996.039062 570.921875 995.375 570.257812 C 994.710938 569.59375 994.117188 568.871094 993.597656 568.089844 C 993.074219 567.308594 992.632812 566.484375 992.273438 565.613281 C 991.914062 564.746094 991.640625 563.851562 991.457031 562.929688 C 991.273438 562.007812 991.183594 561.078125 991.183594 560.136719 L 991.183594 486.910156 C 991.183594 485.972656 991.273438 485.039062 991.457031 484.117188 C 991.640625 483.195312 991.914062 482.300781 992.273438 481.433594 C 992.632812 480.566406 993.074219 479.742188 993.597656 478.957031 C 994.117188 478.175781 994.710938 477.453125 995.375 476.789062 C 996.039062 476.125 996.761719 475.53125 997.542969 475.007812 C 998.328125 474.488281 999.152344 474.046875 1000.019531 473.6875 C 1000.886719 473.328125 1001.78125 473.054688 1002.703125 472.871094 C 1003.625 472.6875 1004.558594 472.597656 1005.496094 472.597656 L 1078.71875 472.597656 C 1079.660156 472.597656 1080.589844 472.6875 1081.511719 472.871094 C 1082.433594 473.054688 1083.328125 473.328125 1084.195312 473.6875 C 1085.066406 474.046875 1085.890625 474.488281 1086.671875 475.007812 C 1087.453125 475.53125 1088.175781 476.125 1088.839844 476.789062 C 1089.503906 477.453125 1090.097656 478.175781 1090.621094 478.957031 C 1091.140625 479.742188 1091.582031 480.566406 1091.941406 481.433594 C 1092.300781 482.300781 1092.574219 483.195312 1092.757812 484.117188 C 1092.941406 485.039062 1093.03125 485.972656 1093.03125 486.910156 Z M 1093.039062 560.140625 " fill-opacity="1" fill-rule="nonzero"/></g><g clip-path="url(#91b19468e1)"><path fill="#000173" d="M 632.777344 249.230469 L 334.441406 249.230469 C 332.699219 249.230469 331.015625 249.535156 329.386719 250.152344 C 327.761719 250.765625 326.292969 251.648438 324.988281 252.796875 L 215.894531 348.75 C 215.132812 349.421875 214.449219 350.167969 213.84375 350.984375 C 213.238281 351.804688 212.726562 352.675781 212.304688 353.601562 C 211.886719 354.527344 211.570312 355.488281 211.355469 356.484375 C 211.140625 357.476562 211.035156 358.484375 211.035156 359.5 L 211.035156 390.882812 C 211.035156 391.824219 211.125 392.753906 211.308594 393.675781 C 211.492188 394.597656 211.765625 395.492188 212.125 396.363281 C 212.484375 397.230469 212.921875 398.058594 213.445312 398.839844 C 213.96875 399.621094 214.5625 400.34375 215.226562 401.007812 C 215.890625 401.675781 216.613281 402.269531 217.394531 402.789062 C 218.175781 403.3125 219 403.753906 219.871094 404.113281 C 220.738281 404.472656 221.632812 404.746094 222.554688 404.929688 C 223.476562 405.113281 224.410156 405.203125 225.347656 405.203125 L 272.308594 405.203125 L 272.308594 778.5625 L 221.847656 778.5625 C 220.902344 778.554688 219.964844 778.636719 219.035156 778.8125 C 218.105469 778.992188 217.203125 779.257812 216.328125 779.613281 C 215.449219 779.96875 214.617188 780.40625 213.828125 780.925781 C 213.039062 781.445312 212.308594 782.039062 211.636719 782.707031 C 210.964844 783.371094 210.363281 784.097656 209.835938 784.878906 C 209.304688 785.664062 208.859375 786.492188 208.496094 787.367188 C 208.132812 788.238281 207.855469 789.140625 207.671875 790.066406 C 207.484375 790.996094 207.390625 791.929688 207.390625 792.878906 C 207.390625 793.824219 207.484375 794.761719 207.671875 795.6875 C 207.855469 796.613281 208.132812 797.515625 208.496094 798.386719 C 208.859375 799.261719 209.304688 800.089844 209.835938 800.875 C 210.363281 801.660156 210.964844 802.382812 211.636719 803.050781 C 212.308594 803.714844 213.039062 804.308594 213.828125 804.828125 C 214.617188 805.347656 215.449219 805.789062 216.328125 806.144531 C 217.203125 806.5 218.105469 806.765625 219.035156 806.941406 C 219.964844 807.117188 220.902344 807.199219 221.847656 807.191406 L 498.585938 807.191406 L 498.585938 390.882812 C 498.585938 389 498.941406 387.1875 499.660156 385.445312 C 500.375 383.703125 501.394531 382.160156 502.71875 380.820312 L 506.921875 376.570312 Z M 448.808594 694.925781 C 448.808594 695.867188 448.71875 696.796875 448.535156 697.71875 C 448.351562 698.640625 448.078125 699.535156 447.71875 700.40625 C 447.359375 701.273438 446.917969 702.097656 446.398438 702.878906 C 445.875 703.660156 445.28125 704.382812 444.617188 705.050781 C 443.953125 705.714844 443.230469 706.308594 442.449219 706.828125 C 441.667969 707.351562 440.839844 707.792969 439.972656 708.152344 C 439.105469 708.511719 438.210938 708.78125 437.289062 708.964844 C 436.367188 709.148438 435.433594 709.242188 434.496094 709.242188 L 361.273438 709.242188 C 360.332031 709.242188 359.402344 709.148438 358.480469 708.964844 C 357.558594 708.78125 356.664062 708.511719 355.796875 708.152344 C 354.925781 707.792969 354.101562 707.351562 353.320312 706.828125 C 352.539062 706.308594 351.816406 705.714844 351.152344 705.046875 C 350.488281 704.382812 349.894531 703.660156 349.371094 702.878906 C 348.847656 702.097656 348.410156 701.273438 348.046875 700.40625 C 347.6875 699.535156 347.417969 698.640625 347.234375 697.71875 C 347.050781 696.796875 346.960938 695.867188 346.960938 694.925781 L 346.960938 621.699219 C 346.960938 620.761719 347.050781 619.832031 347.234375 618.910156 C 347.417969 617.988281 347.691406 617.089844 348.050781 616.222656 C 348.410156 615.355469 348.851562 614.53125 349.371094 613.75 C 349.894531 612.96875 350.488281 612.246094 351.152344 611.578125 C 351.816406 610.914062 352.539062 610.320312 353.320312 609.800781 C 354.101562 609.277344 354.925781 608.835938 355.796875 608.476562 C 356.664062 608.117188 357.558594 607.847656 358.480469 607.664062 C 359.402344 607.480469 360.332031 607.386719 361.273438 607.386719 L 434.496094 607.386719 C 435.4375 607.386719 436.367188 607.480469 437.289062 607.664062 C 438.210938 607.84375 439.105469 608.117188 439.976562 608.476562 C 440.84375 608.835938 441.667969 609.277344 442.449219 609.800781 C 443.230469 610.320312 443.953125 610.914062 444.621094 611.578125 C 445.285156 612.242188 445.878906 612.96875 446.398438 613.75 C 446.921875 614.53125 447.363281 615.355469 447.722656 616.222656 C 448.082031 617.089844 448.355469 617.988281 448.539062 618.910156 C 448.71875 619.832031 448.8125 620.761719 448.8125 621.699219 Z M 448.808594 560.136719 C 448.808594 561.078125 448.71875 562.007812 448.535156 562.929688 C 448.351562 563.851562 448.078125 564.746094 447.71875 565.613281 C 447.359375 566.484375 446.917969 567.308594 446.398438 568.089844 C 445.875 568.871094 445.28125 569.59375 444.617188 570.257812 C 443.953125 570.921875 443.230469 571.515625 442.445312 572.039062 C 441.664062 572.5625 440.839844 573 439.972656 573.359375 C 439.105469 573.722656 438.210938 573.992188 437.289062 574.175781 C 436.367188 574.359375 435.433594 574.449219 434.496094 574.449219 L 361.273438 574.449219 C 360.332031 574.449219 359.402344 574.359375 358.480469 574.175781 C 357.558594 573.992188 356.664062 573.722656 355.796875 573.359375 C 354.925781 573 354.101562 572.558594 353.320312 572.039062 C 352.539062 571.515625 351.816406 570.921875 351.152344 570.257812 C 350.488281 569.59375 349.894531 568.871094 349.371094 568.089844 C 348.851562 567.308594 348.410156 566.484375 348.050781 565.613281 C 347.6875 564.746094 347.417969 563.851562 347.234375 562.929688 C 347.050781 562.007812 346.960938 561.078125 346.960938 560.136719 L 346.960938 486.910156 C 346.960938 485.972656 347.050781 485.039062 347.234375 484.117188 C 347.417969 483.195312 347.6875 482.300781 348.046875 481.433594 C 348.410156 480.566406 348.847656 479.738281 349.371094 478.957031 C 349.894531 478.175781 350.488281 477.453125 351.152344 476.789062 C 351.816406 476.125 352.539062 475.53125 353.320312 475.007812 C 354.101562 474.488281 354.925781 474.046875 355.796875 473.6875 C 356.664062 473.328125 357.558594 473.054688 358.480469 472.871094 C 359.402344 472.6875 360.332031 472.597656 361.273438 472.597656 L 434.496094 472.597656 C 435.4375 472.597656 436.367188 472.6875 437.289062 472.871094 C 438.210938 473.054688 439.105469 473.328125 439.976562 473.6875 C 440.84375 474.046875 441.667969 474.488281 442.449219 475.007812 C 443.230469 475.53125 443.953125 476.125 444.621094 476.789062 C 445.285156 477.453125 445.878906 478.175781 446.398438 478.957031 C 446.921875 479.738281 447.363281 480.566406 447.722656 481.433594 C 448.082031 482.300781 448.355469 483.195312 448.539062 484.117188 C 448.71875 485.039062 448.8125 485.972656 448.8125 486.910156 Z M 448.808594 560.136719 " fill-opacity="1" fill-rule="nonzero"/></g></svg>